<?xml version="1.0" standalone="no"?>
<!DOCTYPE svg PUBLIC "-//W3C//DTD SVG 20010904//EN"
 "http://www.w3.org/TR/2001/REC-SVG-20010904/DTD/svg10.dtd">
<svg version="1.0" xmlns="http://www.w3.org/2000/svg"
 width="1241.000000pt" height="1754.000000pt" viewBox="0 0 1241.000000 1754.000000"
 preserveAspectRatio="xMidYMid meet">
<metadata>
Created by potrace 1.13, written by Peter Selinger 2001-2015
</metadata>
<g transform="translate(0.000000,1754.000000) scale(0.100000,-0.100000)"
fill="#000000" stroke="none">
<path d="M221 17508 c78 -111 528 -516 627 -564 31 -15 35 -14 53 2 10 9 19
27 19 40 0 28 35 68 226 262 l151 153 41 -59 c129 -184 229 -245 262 -160 25
63 111 230 150 291 l39 62 -56 3 c-68 4 -67 5 -148 -150 -31 -60 -60 -108 -64
-108 -10 0 -85 95 -136 173 -43 65 -71 78 -113 51 -15 -9 -119 -109 -231 -221
-112 -112 -206 -203 -209 -203 -24 0 -371 307 -450 399 l-53 61 -65 0 -65 0
22 -32z"/>
<path d="M1966 17453 c-36 -49 -99 -144 -142 -213 -166 -268 -204 -327 -223
-344 -20 -18 -21 -18 -54 15 -18 19 -61 79 -95 135 -76 124 -93 141 -126 126
-14 -6 -105 -123 -211 -271 l-187 -260 -121 91 c-155 117 -202 161 -352 333
-138 158 -222 240 -328 318 -40 30 -85 68 -100 86 l-27 33 0 -74 0 -74 77 -64
c134 -113 193 -171 329 -326 136 -155 192 -206 397 -357 140 -104 160 -108
201 -42 36 58 329 465 335 465 3 0 23 -31 44 -68 75 -134 153 -201 218 -187
62 14 108 73 284 369 48 82 130 204 181 272 l93 124 -64 0 -65 0 -64 -87z"/>
<path d="M2510 17537 c0 -15 171 -355 246 -490 137 -245 192 -358 279 -581 43
-109 89 -211 102 -226 33 -40 83 -54 162 -46 37 3 137 -1 228 -10 134 -13 189
-14 313 -5 182 13 340 14 340 2 0 -5 -50 -84 -111 -175 -67 -101 -158 -257
-228 -394 -65 -125 -182 -334 -260 -466 -330 -555 -343 -592 -287 -787 14 -46
36 -129 50 -184 14 -55 55 -197 91 -315 75 -244 126 -436 150 -560 9 -47 18
-96 21 -109 5 -23 3 -24 -38 -18 -24 3 -86 22 -137 42 -51 19 -226 75 -390
125 -163 49 -357 110 -431 135 -164 56 -239 75 -305 75 -96 0 -93 3 -131 -128
-13 -46 -62 -179 -108 -295 -89 -225 -122 -324 -210 -637 -30 -107 -67 -229
-82 -270 -53 -149 -168 -348 -184 -319 -15 27 -59 265 -70 379 -13 128 -25
163 -58 168 -46 7 -58 -18 -142 -294 -28 -91 -111 -317 -185 -502 -73 -185
-154 -399 -179 -476 -26 -76 -50 -145 -55 -153 -9 -18 -80 91 -186 287 -38 69
-101 172 -141 230 -39 58 -92 143 -116 190 -24 47 -65 114 -91 149 -26 35 -47
67 -47 72 0 15 -40 30 -62 24 -33 -11 -135 -257 -222 -537 -36 -116 -36 -120
-34 -265 l3 -148 119 353 c65 193 122 352 125 352 3 0 18 -22 33 -49 14 -26
76 -114 137 -195 60 -80 164 -234 231 -341 102 -164 192 -296 240 -352 6 -7
19 -13 29 -13 32 0 48 32 54 105 5 74 16 107 173 515 221 576 248 642 258 618
28 -69 112 -245 124 -260 37 -45 103 -1 192 127 93 136 138 251 261 675 44
151 102 331 128 400 27 69 73 190 104 270 l56 145 41 8 c49 10 177 -14 378
-69 70 -20 188 -51 262 -70 74 -20 196 -55 270 -79 181 -59 365 -105 417 -105
61 0 85 26 77 83 -18 123 -53 273 -134 562 -98 353 -162 590 -193 706 -14 56
-18 90 -12 125 9 62 82 201 282 539 181 306 255 438 341 610 33 66 101 182
151 257 149 226 179 302 129 330 -18 10 -112 13 -393 15 -203 0 -434 3 -513 6
-159 5 -172 10 -193 76 -28 87 -146 374 -191 464 -27 54 -92 176 -145 270 -53
95 -124 232 -159 305 l-63 132 -55 0 c-31 0 -56 -2 -56 -3z"/>
<path d="M2834 17508 c72 -170 190 -417 273 -568 55 -102 115 -219 133 -260
47 -109 76 -155 125 -198 81 -72 164 -78 374 -31 75 16 222 48 326 69 105 22
260 55 345 74 85 19 157 32 159 30 2 -2 -4 -13 -13 -23 -10 -11 -87 -158 -171
-328 -84 -169 -214 -420 -289 -558 -159 -291 -314 -602 -433 -869 -148 -335
-151 -352 -73 -576 29 -81 77 -258 110 -400 32 -140 106 -421 165 -625 118
-407 126 -437 119 -444 -2 -3 -66 25 -142 61 -153 74 -202 91 -415 143 -151
36 -900 281 -968 316 -63 32 -83 26 -109 -28 -38 -81 -85 -211 -144 -397 -96
-303 -107 -332 -257 -673 -114 -259 -161 -376 -215 -542 -47 -139 -88 -233
-111 -253 -16 -13 -9 -22 -145 176 -104 150 -131 176 -168 156 -22 -12 -33
-46 -110 -363 -32 -133 -81 -323 -108 -422 -28 -99 -56 -216 -63 -260 -7 -44
-14 -82 -16 -84 -5 -7 -146 129 -256 247 -59 64 -156 184 -215 266 -155 218
-179 246 -205 246 -31 0 -41 -9 -67 -59 -34 -67 -47 -110 -101 -315 -31 -121
-70 -239 -106 -325 -56 -134 -57 -137 -61 -248 -3 -93 -1 -113 11 -113 17 0
36 21 42 46 7 36 43 130 104 276 36 88 74 199 92 275 54 224 50 210 63 190 58
-95 306 -378 400 -457 36 -30 66 -63 66 -73 0 -10 -11 -29 -25 -42 -27 -28
-61 -31 -163 -15 -43 7 -68 7 -82 0 -38 -21 -23 -51 66 -134 100 -94 114 -117
114 -188 0 -47 -17 -188 -23 -194 -2 -2 -572 61 -634 70 l-33 5 0 -97 c0 -95
1 -98 30 -125 17 -17 30 -39 30 -53 0 -26 -33 -99 -50 -109 -6 -4 -10 -68 -10
-165 l0 -158 68 -45 c161 -106 163 -178 6 -252 l-74 -35 0 -61 0 -60 28 19
c15 11 52 30 82 43 98 41 138 72 176 135 10 17 14 17 95 1 46 -9 140 -24 209
-32 126 -16 302 -47 375 -67 39 -10 39 -10 -90 -43 -281 -71 -548 -207 -782
-400 l-93 -76 0 -72 0 -71 43 40 c198 189 460 349 713 437 124 43 379 99 431
95 38 -3 38 -3 41 -50 l3 -47 -38 -6 c-330 -53 -609 -230 -899 -568 -52 -60
-109 -133 -129 -163 -20 -30 -38 -54 -39 -54 -2 0 -29 34 -60 75 -31 41 -59
75 -61 75 -3 0 -5 -35 -5 -79 l0 -78 52 -69 c63 -83 335 -462 427 -594 82
-118 171 -210 203 -210 40 0 49 15 64 96 7 44 40 165 73 269 82 261 265 776
277 777 15 2 71 -100 120 -217 47 -113 221 -483 299 -637 24 -47 97 -175 163
-285 65 -109 158 -274 207 -368 83 -162 181 -329 214 -368 17 -21 60 -19 72 3
4 8 18 37 31 63 12 27 58 91 101 141 l79 93 82 -81 c45 -45 114 -101 153 -126
l70 -45 12 -100 c7 -55 16 -225 21 -377 10 -282 39 -698 66 -933 25 -224 31
-253 54 -265 33 -18 263 -40 510 -50 312 -13 472 -30 777 -86 136 -24 303 -51
372 -59 96 -12 444 -87 458 -99 2 -1 -18 -36 -43 -77 -57 -92 -138 -192 -385
-474 -267 -305 -410 -501 -579 -795 -24 -41 -70 -115 -102 -163 -54 -82 -78
-138 -78 -179 0 -10 8 -39 18 -65 21 -54 306 -477 527 -783 82 -113 223 -317
313 -455 207 -315 208 -318 312 -450 102 -130 175 -233 169 -238 -2 -2 -110
-14 -239 -28 -173 -18 -296 -24 -465 -24 -126 -1 -318 -5 -425 -9 -162 -6
-214 -5 -305 9 -60 9 -189 19 -285 21 -195 6 -219 0 -232 -51 -58 -232 -158
-696 -158 -737 0 -15 8 -18 49 -18 l48 0 37 188 c46 228 81 371 96 386 13 13
1054 16 1067 2 11 -11 -112 -125 -240 -221 -108 -81 -131 -111 -110 -144 13
-21 60 -20 183 2 150 27 265 36 316 25 62 -13 114 -68 152 -161 l31 -72 50 -3
c37 -2 51 1 51 10 -1 26 -66 174 -98 220 -41 60 -74 83 -151 104 -53 15 -77
16 -174 7 -61 -6 -113 -10 -114 -9 -1 0 40 37 90 81 57 49 100 96 112 121 l20
41 100 11 c55 6 180 21 278 33 l177 23 53 -51 c28 -28 101 -85 161 -127 60
-42 102 -76 95 -76 -54 0 -205 -24 -260 -40 -134 -40 -206 -131 -238 -302 l-8
-48 47 0 47 0 16 58 c9 32 31 80 49 107 49 73 93 92 281 116 144 19 159 20
188 5 44 -22 76 -20 89 5 26 48 -15 95 -185 214 -49 34 -116 83 -148 108 l-57
45 57 7 c119 15 135 35 96 122 -40 87 -96 172 -206 312 -55 69 -143 191 -195
271 -52 80 -145 222 -207 315 -61 94 -206 303 -321 465 -251 352 -388 550
-383 554 9 7 164 26 215 26 119 0 161 -51 234 -277 36 -115 60 -153 95 -153
38 0 53 35 64 155 6 61 16 126 21 146 14 50 49 99 86 121 43 25 266 53 307 38
54 -18 79 -11 91 26 11 36 -36 79 -207 191 l-159 104 6 35 c7 36 74 245 97
301 18 45 0 83 -39 83 -23 0 -36 -11 -71 -60 -48 -69 -106 -115 -163 -130 -47
-13 -88 3 -138 55 l-34 35 28 37 c29 40 135 200 227 343 51 81 389 511 421
537 13 11 28 -35 118 -360 57 -204 176 -664 265 -1022 90 -357 181 -715 203
-795 22 -80 68 -253 101 -385 33 -132 93 -343 131 -470 39 -126 111 -372 160
-545 87 -310 179 -621 200 -675 6 -15 8 -36 5 -46 -6 -17 0 -19 59 -19 53 0
64 3 60 14 -10 25 27 167 76 296 27 69 60 173 75 230 35 138 126 444 163 545
16 44 71 251 122 460 51 209 97 384 101 389 4 4 70 -14 146 -42 76 -27 157
-56 181 -63 37 -11 53 -26 108 -96 54 -70 63 -87 54 -103 -6 -11 -45 -64 -88
-117 -43 -54 -106 -138 -140 -188 -33 -49 -86 -114 -117 -143 -56 -54 -65 -75
-42 -105 11 -16 34 -18 192 -19 99 0 205 3 235 7 l56 7 11 -54 c6 -29 38 -127
71 -218 33 -91 65 -190 71 -220 16 -76 34 -420 26 -507 l-6 -73 50 0 50 0 6
53 c3 28 5 194 3 367 -3 298 -2 326 25 520 69 504 114 778 137 820 32 59 -2
86 -120 93 -170 11 -347 62 -682 195 -218 87 -398 146 -539 177 -123 27 -177
48 -185 69 -13 34 57 114 352 401 526 511 571 553 782 724 97 78 105 82 131
72 38 -16 66 -3 122 56 165 173 234 383 274 828 20 224 32 335 46 403 10 49
12 52 37 46 15 -3 70 -23 122 -44 151 -60 187 -65 363 -51 155 13 277 5 285
-19 13 -37 55 -50 87 -27 16 13 19 38 26 273 9 330 15 352 190 726 109 232
144 325 209 544 83 281 106 338 155 371 l39 26 69 -73 c87 -93 162 -190 312
-400 136 -190 309 -404 372 -460 115 -101 216 -94 283 22 37 64 82 202 104
318 24 125 26 130 34 130 4 0 16 -17 27 -37 32 -61 163 -186 227 -217 95 -47
96 -46 231 154 65 96 238 364 385 595 238 374 322 495 567 815 36 47 96 146
135 221 l70 137 0 103 -1 104 -25 -40 c-13 -22 -54 -97 -90 -167 -35 -71 -69
-128 -74 -128 -6 0 -61 20 -123 45 l-113 46 8 72 c10 87 42 156 83 179 42 23
233 44 274 30 46 -16 61 -6 61 40 0 49 3 46 -163 144 -70 42 -129 80 -132 84
-5 7 27 106 60 188 l17 42 109 0 109 0 0 50 0 50 -37 0 c-49 0 -482 19 -599
26 l-91 6 13 54 c14 61 34 98 62 113 22 12 224 31 252 24 36 -10 70 5 70 31 0
41 -17 50 -232 130 l-48 18 51 97 51 97 131 17 c73 10 187 25 255 34 l122 16
0 50 0 50 -66 -7 -67 -7 33 38 c41 46 77 123 92 197 11 49 9 66 -15 163 -15
59 -27 115 -27 123 0 8 11 36 25 62 23 44 25 57 25 192 l0 144 -33 43 c-60 79
-142 128 -240 144 -23 4 -40 13 -44 23 -3 9 -27 62 -54 117 -57 118 -116 189
-190 230 -47 26 -64 30 -131 30 -62 0 -82 -4 -105 -21 -52 -38 -58 -64 -59
-244 l0 -165 -39 -75 c-21 -41 -43 -92 -50 -114 l-11 -38 -193 -79 c-250 -102
-393 -148 -486 -156 -41 -3 -75 -3 -75 0 0 3 16 61 35 129 41 142 85 269 197
563 109 286 172 474 214 640 19 77 46 178 60 224 l26 84 61 -60 c79 -77 209
-175 376 -283 72 -47 265 -172 429 -278 163 -107 300 -196 305 -199 4 -2 7
113 7 256 l0 260 -55 59 c-109 118 -240 139 -421 66 -59 -24 -67 -24 -88 -11
-13 9 -35 39 -49 69 -15 29 -51 81 -80 115 -118 134 -181 169 -287 159 l-67
-6 -46 50 c-67 73 -81 69 -130 -40 -45 -99 -70 -176 -133 -413 -28 -109 -54
-200 -56 -202 -2 -2 -26 3 -53 11 -34 11 -72 14 -116 10 -121 -9 -192 -54
-241 -153 -27 -55 -32 -76 -32 -141 -1 -161 65 -268 179 -292 46 -10 55 -15
50 -28 -63 -166 -119 -334 -199 -609 -20 -68 -42 -137 -49 -155 l-13 -32 -55
84 c-31 47 -86 122 -123 168 -37 46 -66 85 -64 86 1 1 23 8 48 15 57 16 130
89 148 147 35 117 -11 268 -109 364 -131 127 -352 70 -404 -104 -8 -27 -15
-69 -15 -93 0 -24 -3 -42 -7 -39 -5 2 -30 47 -58 99 l-49 94 35 41 c44 51 61
105 61 191 0 127 -73 249 -177 297 -61 29 -89 30 -159 5 l-54 -19 -105 197
c-58 108 -151 285 -207 393 l-102 198 34 -8 c18 -4 65 -7 105 -6 130 1 228 73
269 196 16 49 16 145 0 193 -4 11 2 2 13 -20 26 -56 52 -70 93 -49 43 23 200
184 278 287 51 68 70 86 91 86 49 1 119 33 160 73 61 59 81 114 88 235 5 86 9
104 26 117 11 9 23 16 26 16 8 0 41 -37 97 -112 l51 -68 -28 -15 c-42 -21 -98
-90 -115 -143 -59 -172 53 -324 251 -340 80 -6 141 11 191 54 l39 33 49 -64
c58 -75 76 -85 113 -57 l26 19 20 -35 c60 -107 263 -149 367 -76 47 33 85 84
94 123 12 53 12 53 51 26 45 -30 91 -32 121 -5 24 22 39 69 72 217 l23 100 55
-38 c30 -22 61 -39 68 -39 7 0 26 -24 42 -54 60 -105 160 -159 297 -160 64 -1
89 4 127 23 75 36 88 59 88 155 l0 81 -50 34 c-83 56 -83 58 -52 121 23 48 27
67 27 145 0 71 -5 100 -22 137 -30 65 -96 133 -159 164 -233 114 -504 -87
-504 -375 0 -71 -53 -373 -70 -401 -5 -7 -28 10 -67 52 -101 106 -193 209
-261 291 -91 110 -120 104 -186 -38 -156 -337 -150 -325 -170 -307 -10 9 -76
94 -146 187 -71 94 -167 213 -214 265 -47 52 -86 98 -86 101 0 4 75 9 168 11
189 6 250 19 308 70 44 39 80 108 99 193 17 71 50 384 59 565 7 123 17 169 48
213 26 37 59 52 175 82 363 93 553 319 553 660 0 175 -59 339 -186 518 -70 98
-137 151 -296 232 -183 94 -320 138 -428 138 -149 1 -198 -43 -240 -218 -11
-49 -48 -182 -80 -295 -32 -113 -88 -315 -124 -450 -36 -135 -76 -276 -89
-315 -26 -75 -27 -74 -42 20 -4 22 -26 122 -51 221 -24 100 -51 226 -60 280
-35 220 -57 325 -94 439 -56 171 -154 430 -170 450 -27 32 -62 15 -98 -50
-194 -340 -311 -501 -712 -985 -116 -140 -263 -324 -327 -407 l-116 -153 -241
0 c-133 0 -278 3 -323 7 -74 5 -83 8 -83 26 0 12 38 58 98 116 54 53 143 152
197 220 195 244 412 489 625 706 119 121 241 250 273 287 35 41 75 75 103 88
75 37 78 90 6 110 -53 14 -504 30 -1037 37 -247 3 -453 8 -457 12 -4 3 -12 69
-18 146 -6 77 -17 193 -26 259 -8 65 -13 120 -12 121 2 2 104 -30 228 -71 124
-40 233 -74 242 -74 46 0 74 101 89 320 6 91 12 167 15 169 10 11 262 -209
465 -405 53 -51 95 -84 107 -84 30 0 134 92 394 349 126 123 230 222 232 220
2 -2 34 -92 71 -199 82 -237 135 -362 192 -457 41 -67 83 -113 105 -113 5 0
48 37 96 83 48 45 160 133 247 194 88 62 228 162 310 222 83 60 151 108 153
107 1 -2 -9 -77 -22 -167 -22 -142 -41 -294 -62 -486 -10 -91 24 -161 84 -176
34 -8 97 13 318 109 246 106 477 223 609 308 l100 65 7 -154 c9 -216 47 -429
114 -651 23 -79 35 -94 71 -94 8 0 79 65 157 144 77 79 163 161 189 183 l48
39 -3 63 -3 63 -26 -21 -26 -20 -13 25 c-8 13 -28 36 -47 50 -91 69 -222 72
-310 8 l-31 -24 -8 78 c-10 89 -11 249 -4 372 5 82 4 84 -20 97 -28 14 -16 20
-192 -98 -62 -42 -138 -90 -169 -107 l-55 -31 0 63 c0 50 -6 76 -30 122 -39
80 -90 107 -184 101 -36 -2 -83 -12 -105 -23 -87 -41 -157 -145 -171 -250 -8
-66 8 -115 53 -165 l35 -39 -38 -16 c-22 -9 -81 -33 -133 -55 -52 -21 -98 -39
-103 -39 -12 0 -10 69 7 231 22 213 45 364 57 368 24 9 82 69 94 98 23 54 18
150 -12 213 -62 134 -180 199 -306 170 -94 -22 -163 -71 -200 -144 -30 -56
-29 -159 0 -241 12 -32 19 -62 14 -65 -4 -4 -37 -30 -74 -59 l-67 -52 -46 50
c-113 121 -260 119 -382 -6 -24 -25 -45 -44 -47 -42 -13 14 -166 465 -166 489
0 17 -32 40 -57 40 -3 0 -35 -29 -73 -65 l-67 -66 -32 30 c-86 80 -290 53
-358 -47 -52 -77 -47 -204 10 -291 l26 -40 -72 -65 -72 -65 -90 88 c-107 105
-318 291 -395 347 -30 23 -71 57 -91 77 -21 21 -43 37 -51 37 -29 0 -51 -27
-54 -66 -1 -21 -2 -42 -3 -46 -1 -3 -18 -2 -38 4 -79 22 -191 -13 -232 -71
-50 -69 -63 -158 -37 -245 l14 -47 -31 6 c-18 4 -72 22 -120 41 -141 54 -149
42 -118 -198 11 -90 23 -203 26 -253 3 -49 8 -111 11 -136 l6 -46 -41 -6 c-23
-3 -59 -14 -80 -25 l-38 -20 -17 29 c-9 16 -36 42 -59 57 -160 109 -334 44
-376 -140 -14 -67 -8 -117 24 -175 27 -49 34 -40 -90 -113 -49 -29 -132 -80
-183 -113 l-92 -59 -21 26 c-49 63 -159 86 -234 50 -47 -22 -103 -88 -116
-138 -10 -38 -8 -85 6 -147 6 -22 0 -30 -52 -64 -125 -82 -171 -132 -157 -170
12 -30 47 -34 130 -14 43 11 204 37 357 60 320 46 619 99 761 135 54 13 100
23 102 21 2 -1 -107 -113 -242 -247 -135 -135 -239 -231 -231 -215 57 117 0
257 -122 300 -108 38 -228 -1 -278 -90 -63 -111 -24 -273 77 -325 57 -29 143
-27 206 4 l49 25 -70 -66 c-61 -57 -267 -226 -605 -497 -137 -110 -230 -196
-230 -212 0 -8 9 -23 20 -34 16 -16 33 -20 87 -20 l67 0 -31 -32 c-44 -47 -63
-90 -63 -145 1 -206 301 -321 420 -161 64 87 65 221 2 291 -16 18 -14 18 43
13 33 -3 90 -8 127 -12 l68 -6 -15 -35 c-35 -83 -10 -172 67 -237 69 -60 164
-79 243 -51 22 8 41 15 42 15 1 0 -17 -31 -39 -70 l-40 -69 -34 25 c-44 34
-143 64 -207 64 -104 -1 -187 -72 -207 -178 -28 -154 69 -265 234 -266 109 0
208 66 241 163 15 44 19 48 131 108 l115 62 35 -39 c39 -43 93 -60 187 -60
142 0 271 142 251 277 -6 44 -7 44 63 58 30 6 32 4 42 -32 27 -105 51 -202 51
-211 0 -5 -20 -17 -44 -26 -98 -37 -176 -152 -176 -258 0 -69 9 -95 51 -142
47 -54 102 -78 184 -83 55 -4 78 0 107 15 l36 19 11 -43 c12 -48 39 -69 76
-60 12 3 25 14 27 23 3 10 23 28 45 40 l40 23 -14 -53 c-32 -121 27 -250 131
-288 l34 -12 -81 -91 c-68 -77 -246 -307 -297 -385 l-15 -23 -65 17 c-36 9
-107 22 -159 29 l-94 12 -15 48 c-9 27 -34 69 -59 96 -135 150 -353 116 -445
-69 -19 -38 -23 -62 -23 -139 l0 -94 -40 -21 c-25 -13 -58 -20 -88 -20 -54 1
-101 29 -221 133 -86 75 -145 95 -323 110 -180 16 -175 14 -190 85 -16 80 -98
563 -116 690 -15 99 -15 100 7 115 131 90 142 262 24 395 -59 68 -144 93 -239
71 -64 -15 -111 -50 -150 -113 l-20 -32 -79 52 c-44 29 -80 55 -80 58 0 4 11
10 25 13 32 8 94 72 112 116 61 143 -69 309 -244 311 -63 1 -99 -10 -145 -42
-35 -25 -68 -88 -68 -129 0 -18 -3 -30 -8 -28 -4 2 -49 35 -100 73 -64 49 -87
71 -75 73 115 20 183 97 183 207 0 92 -56 172 -150 214 -95 42 -167 34 -245
-24 -41 -32 -85 -116 -85 -162 0 -18 -2 -33 -5 -33 -12 0 -155 86 -152 91 4
12 510 469 519 469 2 0 3 -14 0 -30 -6 -45 16 -113 51 -155 44 -54 116 -85
197 -85 138 1 220 80 220 212 0 135 -118 234 -257 213 l-45 -7 51 46 c28 25
53 46 54 46 2 0 22 -9 45 -20 59 -29 161 -27 227 4 117 54 177 200 129 314
-15 36 -14 38 8 55 151 121 412 352 542 478 l162 157 31 -29 c18 -15 56 -35
85 -44 180 -53 322 122 262 324 -8 30 -12 57 -7 61 4 3 40 28 78 55 39 27 93
71 121 97 36 34 59 48 80 48 68 1 161 69 195 145 23 50 25 155 3 217 -33 100
-128 169 -241 176 -76 5 -123 -10 -170 -54 l-36 -34 -70 42 c-114 69 -111 65
-87 115 56 116 -9 295 -133 367 -61 35 -144 49 -211 37 -71 -13 -107 -32 -143
-75 l-28 -35 -71 54 c-79 59 -194 163 -194 174 0 8 46 19 440 107 135 30 252
57 260 59 13 4 15 -3 12 -34 -2 -22 3 -64 12 -94 50 -170 315 -219 450 -83 69
69 94 188 57 279 -10 25 -15 27 -65 27 l-55 0 24 -36 c48 -71 42 -146 -18
-205 -92 -93 -250 -76 -305 31 -26 50 -25 116 1 135 8 6 68 24 133 40 l119 30
-202 3 -202 2 -248 -55 c-136 -31 -300 -67 -365 -80 -64 -13 -132 -31 -152
-39 -45 -19 -57 -57 -30 -91 11 -13 55 -68 98 -122 134 -165 419 -439 676
-647 74 -61 176 -146 226 -190 49 -45 108 -95 130 -112 l39 -31 -25 -22 c-59
-50 -304 -211 -310 -204 -4 4 -32 62 -63 129 -103 225 -180 336 -389 564 -129
140 -209 210 -348 299 -78 50 -121 70 -239 107 -79 25 -162 49 -185 53 l-41 7
0 69 c1 39 5 136 9 218 l9 147 -52 0 -51 0 0 -44 c0 -25 -7 -127 -15 -228 -38
-478 -46 -593 -70 -1008 -29 -507 -40 -666 -60 -869 -8 -79 -24 -275 -35 -435
-11 -160 -23 -319 -27 -354 l-6 -63 -226 -203 c-447 -402 -459 -414 -445 -449
3 -8 39 -40 81 -73 42 -32 108 -86 146 -119 38 -33 97 -81 131 -107 33 -26 62
-51 63 -55 5 -15 -56 -80 -91 -97 -68 -32 -91 -24 -178 65 -65 66 -84 80 -106
77 -26 -3 -27 -5 -26 -58 1 -30 5 -98 9 -150 9 -116 1 -137 -82 -207 -32 -26
-72 -63 -90 -81 -17 -17 -34 -28 -37 -24 -3 5 -165 393 -360 862 l-355 852 34
68 c19 38 62 133 96 212 33 78 113 247 178 373 64 127 134 275 155 330 57 146
366 763 401 800 42 44 121 59 270 53 102 -5 116 -3 131 13 27 30 11 61 -48 92
-29 15 -112 71 -184 125 -73 53 -139 102 -148 107 -16 9 -14 20 22 125 21 63
51 139 66 168 32 64 31 91 -6 111 -27 16 -28 15 -100 -60 -111 -116 -197 -151
-284 -114 -20 8 -82 60 -139 115 -106 103 -137 119 -165 85 -16 -20 -14 -94 5
-186 20 -95 19 -212 -1 -255 -9 -19 -37 -52 -62 -72 -26 -20 -73 -64 -107 -97
-33 -34 -77 -73 -97 -88 -43 -31 -48 -57 -17 -85 20 -19 20 -20 -73 -43 -54
-13 -124 -23 -168 -24 -117 0 -151 32 -230 215 -25 58 -88 184 -140 280 -52
96 -129 252 -171 345 l-76 170 -56 3 -56 3 13 -33z m1501 -429 c66 -29 107
-32 174 -13 34 9 64 21 67 25 3 5 9 9 14 9 12 0 -17 -98 -42 -137 -28 -46 -17
-67 55 -103 60 -30 222 -139 215 -145 -2 -1 -29 -6 -60 -9 -49 -6 -58 -5 -58
8 0 21 -37 39 -69 33 -14 -2 -110 -23 -214 -46 l-187 -43 -62 21 c-35 12 -87
21 -120 21 -32 0 -58 4 -58 9 0 4 18 21 40 36 61 42 136 126 151 170 16 45 16
177 1 242 l-10 43 62 -52 c33 -28 79 -59 101 -69z m2480 -27 c100 -55 145
-156 110 -247 -9 -25 -19 -45 -22 -45 -6 0 -229 151 -298 202 -24 18 -44 38
-45 44 -1 38 73 73 155 73 36 0 64 -7 100 -27z m-997 -93 c162 -53 217 -81
340 -173 144 -109 366 -348 483 -523 50 -74 187 -346 192 -381 1 -10 -46 -63
-119 -135 l-121 -117 -18 47 c-39 106 -177 337 -280 468 -82 105 -222 238
-314 299 -90 60 -202 110 -298 133 -71 16 -73 17 -73 47 0 48 21 349 26 364 6
21 50 14 182 -29z m4965 -10 c12 -6 36 -25 54 -41 l31 -30 -31 -28 c-51 -44
-280 -199 -287 -195 -16 10 -32 99 -28 152 5 52 9 60 46 93 23 20 56 42 74 47
45 15 115 15 141 2z m-1397 -94 c49 -32 44 -43 -70 -152 -60 -57 -112 -103
-116 -103 -15 0 -50 87 -50 124 0 40 22 97 46 117 47 39 141 46 190 14z
m-1092 -115 c11 -13 11 -42 0 -175 -6 -88 -13 -162 -13 -164 -2 -7 -63 9 -107
28 -58 26 -94 96 -94 184 0 66 10 92 48 125 23 20 36 23 90 20 38 -3 68 -10
76 -18z m-865 -156 c76 -38 106 -88 105 -174 0 -76 -23 -123 -74 -153 l-31
-19 6 35 c4 20 4 50 0 68 -8 37 -76 113 -147 165 -26 20 -48 42 -48 50 0 22
60 54 101 54 19 0 59 -12 88 -26z m2715 -54 c31 -12 106 -78 106 -94 0 -7 -33
-35 -72 -62 -40 -27 -101 -73 -135 -101 l-62 -53 -25 43 c-40 68 -49 94 -42
120 9 36 81 112 128 136 48 23 65 25 102 11z m-4429 -67 c193 -61 420 -250
567 -474 97 -146 180 -297 209 -377 21 -61 21 -63 3 -84 -26 -29 -247 -228
-254 -228 -3 0 -16 30 -28 68 -84 242 -312 480 -565 592 l-77 34 5 60 c5 62
25 392 25 421 0 19 26 16 115 -12z m5639 -14 c37 -29 56 -71 56 -124 0 -80
-33 -122 -139 -175 -74 -37 -91 -35 -143 15 -48 47 -56 88 -30 148 24 55 87
126 127 143 45 20 98 17 129 -7z m845 -531 c23 -13 50 -35 59 -50 l16 -27
-124 -121 c-68 -66 -127 -116 -130 -110 -4 6 -17 55 -30 108 -22 95 -22 99 -5
132 43 83 132 111 214 68z m-4699 -52 c39 -26 76 -79 65 -95 -2 -5 -59 -41
-125 -80 -128 -75 -145 -78 -170 -31 -34 63 17 202 84 231 35 15 104 3 146
-25z m-444 2 c11 -36 7 -113 -10 -152 -17 -41 -68 -76 -110 -76 -36 0 -116 37
-116 54 0 21 196 196 220 196 5 0 12 -10 16 -22z m1574 -88 c311 -5 576 -13
589 -18 23 -8 11 -22 -215 -253 -253 -258 -421 -447 -625 -700 -68 -85 -178
-211 -245 -280 -127 -132 -159 -183 -152 -249 4 -45 39 -69 119 -80 35 -6 258
-10 494 -9 399 0 485 -3 485 -19 0 -4 -13 -88 -29 -187 -16 -99 -37 -233 -46
-298 -16 -118 -35 -187 -62 -218 -48 -57 -229 -13 -524 127 -114 54 -220 96
-300 119 -68 19 -198 60 -289 90 -91 30 -221 68 -289 85 -100 25 -233 70 -249
85 -2 2 214 223 481 492 267 268 497 504 513 523 15 19 56 65 91 101 34 37 67
79 73 93 15 41 12 74 -9 85 -11 6 -170 10 -420 9 -221 0 -403 1 -406 4 -9 8
17 314 31 373 17 69 50 108 110 131 30 11 68 13 174 9 74 -3 389 -10 700 -15z
m-2945 -99 c28 -23 96 -92 153 -154 77 -84 114 -134 149 -202 25 -49 58 -105
72 -124 l26 -34 -50 -43 c-28 -23 -165 -142 -305 -263 -140 -120 -256 -218
-257 -217 -5 4 36 576 51 721 8 77 17 181 21 230 3 50 8 107 11 127 l6 38 37
-19 c20 -11 59 -38 86 -60z m4322 -116 c84 -233 103 -309 148 -595 9 -57 34
-174 55 -260 53 -216 66 -290 95 -540 27 -246 36 -291 95 -475 23 -71 44 -156
47 -189 l6 -58 -244 6 c-134 4 -259 11 -276 17 -71 23 -91 85 -104 314 -11
206 -33 369 -54 402 -8 12 -25 28 -37 34 -54 29 -225 -1 -309 -53 -51 -33 -88
-78 -171 -214 -93 -149 -138 -212 -138 -190 0 31 31 221 55 344 28 138 25 158
-28 166 -106 17 -181 26 -221 26 -25 0 -46 3 -46 6 0 9 152 204 295 377 71 88
179 218 238 290 214 260 422 548 503 697 15 28 31 47 34 43 4 -5 30 -71 57
-148z m1060 65 c185 -51 365 -150 474 -260 122 -123 193 -285 206 -471 17
-249 -88 -427 -319 -538 -57 -27 -146 -61 -198 -76 -136 -37 -172 -61 -210
-138 -26 -53 -32 -81 -41 -182 -41 -493 -53 -580 -89 -662 -49 -111 -64 -116
-341 -119 -196 -2 -231 0 -260 14 -41 21 -59 53 -59 111 l0 43 103 -2 c154 -5
175 -2 198 21 19 19 21 29 17 118 -4 81 -13 121 -56 253 -96 297 -95 367 14
711 24 78 71 250 104 382 33 132 84 317 114 412 30 94 60 202 67 240 13 80 34
128 63 148 29 21 128 19 213 -5z m-3544 -127 c-2 -65 -11 -154 -19 -198 l-16
-80 27 -23 c15 -13 26 -25 24 -27 -25 -24 -996 -184 -982 -161 10 16 492 329
643 418 80 47 183 108 230 136 47 28 88 51 91 51 4 1 4 -52 2 -116z m-795
-183 c17 -11 32 -25 32 -32 0 -13 -181 -138 -199 -138 -11 0 -19 54 -13 87 3
14 21 43 42 64 43 46 85 51 138 19z m1565 -167 c-17 -16 -57 -59 -88 -96 -55
-66 -944 -960 -1018 -1024 -71 -61 -40 -108 115 -173 53 -22 144 -52 203 -66
59 -14 146 -40 193 -59 48 -18 155 -51 237 -73 197 -53 269 -79 457 -168 354
-167 535 -191 631 -85 19 21 38 49 42 62 7 22 44 78 180 272 28 40 77 115 109
167 111 180 139 204 258 216 48 5 66 3 75 -8 17 -19 32 -153 42 -358 11 -208
28 -270 95 -335 49 -48 100 -65 211 -73 44 -3 83 -10 87 -16 4 -6 8 -25 8 -42
0 -43 26 -114 52 -141 l21 -22 -26 -30 c-14 -17 -42 -59 -63 -93 -52 -87 -204
-306 -282 -406 -67 -87 -195 -222 -210 -222 -18 0 -123 256 -213 518 -84 246
-131 332 -179 332 -11 0 -43 -15 -72 -34 -29 -18 -86 -50 -126 -70 -40 -20
-121 -65 -180 -100 -181 -108 -312 -177 -421 -222 -58 -24 -107 -41 -110 -39
-2 3 -16 53 -31 112 -15 60 -50 162 -78 229 -27 67 -59 163 -71 215 -52 223
-55 228 -149 209 -151 -30 -377 -124 -611 -256 -46 -26 -82 -43 -79 -38 3 5
45 77 95 159 144 240 176 302 169 330 -10 41 -39 48 -86 24 -39 -20 -52 -21
-168 -16 -211 10 -932 66 -944 73 -8 5 111 103 407 337 99 78 247 206 330 283
206 195 571 575 627 654 25 36 56 71 69 78 24 12 99 16 379 20 l144 2 -31 -27z
m-2319 -249 c17 -45 -8 -127 -51 -166 -27 -25 -88 -48 -125 -48 -41 0 -78 10
-78 20 0 9 231 210 241 210 4 0 10 -7 13 -16z m1043 -69 c37 -25 63 -75 63
-122 0 -86 -109 -161 -193 -134 -58 19 -81 53 -85 125 -4 59 -2 65 27 98 49
57 130 71 188 33z m-2877 -1165 c222 -531 405 -972 407 -981 3 -11 -4 -18 -21
-23 -14 -3 -30 -15 -36 -27 -15 -27 -98 -79 -128 -79 -34 0 -60 16 -124 76
-62 59 -102 71 -116 33 -5 -11 -2 -62 6 -112 19 -120 9 -147 -80 -212 l-63
-46 -190 193 c-237 242 -347 363 -320 356 255 -72 365 -105 431 -129 139 -51
214 -50 214 3 0 10 -22 92 -49 181 -134 437 -236 838 -309 1202 -46 227 -59
383 -41 475 6 33 13 59 14 58 2 -2 184 -437 405 -968z m1581 772 c41 -46 46
-91 18 -149 -21 -43 -29 -49 -71 -60 -162 -39 -286 126 -162 214 39 28 59 32
128 29 52 -2 62 -6 87 -34z m-412 -447 c69 -35 113 -125 91 -189 -17 -51 -56
-76 -122 -76 -94 0 -188 70 -188 140 0 35 36 88 79 117 39 27 98 30 140 8z
m1267 -360 c44 -28 66 -74 60 -124 -11 -87 -58 -131 -140 -131 -56 0 -120 45
-147 103 -23 51 -23 60 -3 102 36 78 151 102 230 50z m631 -1 c59 -9 80 -74
49 -149 -39 -92 -180 -101 -258 -17 -32 34 -39 63 -26 110 18 67 31 74 123 67
44 -3 94 -8 112 -11z m-1442 -23 c45 -20 92 -70 101 -107 4 -14 4 -41 1 -61
-13 -80 -75 -122 -150 -102 -54 14 -121 80 -137 136 -11 36 -10 46 6 79 20 40
72 74 114 74 14 0 43 -9 65 -19z m-517 -152 l42 -31 0 -145 0 -145 -22 14
c-13 8 -53 34 -90 57 -38 24 -68 49 -68 56 0 15 57 180 71 208 13 23 18 22 67
-14z m-408 -84 c40 -43 124 -56 193 -29 15 5 15 1 -3 -52 -18 -53 -19 -59 -4
-81 15 -23 128 -103 146 -103 4 0 8 -3 8 -7 0 -5 -33 -16 -72 -25 -88 -22
-131 -60 -159 -139 l-18 -54 -21 48 c-34 77 -82 124 -140 136 -27 6 -64 8 -82
5 -33 -6 -33 -6 24 48 77 72 93 105 93 201 0 42 3 77 6 77 3 0 16 -11 29 -25z
m2990 -35 c0 -107 -99 -180 -218 -161 -46 7 -92 32 -92 50 0 13 274 150 303
151 4 0 7 -18 7 -40z m-2315 -81 c61 -45 209 -148 330 -229 223 -150 330 -237
377 -307 21 -31 31 -69 53 -208 15 -93 42 -255 61 -359 19 -104 33 -191 31
-193 -2 -2 -44 -8 -93 -14 -213 -26 -386 -122 -509 -284 -98 -129 -131 -212
-150 -380 -15 -119 -25 -145 -60 -145 -16 0 -83 50 -120 89 l-30 32 0 817 c-1
449 -5 917 -9 1040 -6 132 -5 222 0 222 5 0 59 -37 119 -81z m6594 -59 c100
-51 149 -193 102 -297 -89 -195 -326 -232 -431 -66 -38 60 -46 116 -26 185 46
160 220 247 355 178z m-5834 -3 c22 -12 55 -45 73 -72 30 -45 33 -56 30 -103
-4 -43 -11 -59 -38 -87 l-33 -34 -28 39 c-17 24 -66 62 -128 100 -56 34 -101
66 -101 72 0 5 10 23 21 40 49 69 131 87 204 45z m783 -11 c42 -22 62 -53 62
-99 0 -80 -64 -138 -160 -145 -64 -5 -114 16 -142 61 -49 75 -8 183 77 206 37
9 123 -2 163 -23z m-4344 -100 c89 -30 219 -66 290 -81 71 -14 157 -38 192
-52 59 -23 72 -35 172 -152 60 -69 117 -132 126 -140 9 -7 16 -16 16 -20 0 -3
-50 -7 -110 -8 -97 -2 -110 0 -110 15 0 34 -48 118 -88 154 -92 83 -224 88
-332 13 -34 -24 -92 -95 -102 -126 -2 -6 -24 -1 -48 10 -57 26 -105 26 -174 0
-191 -71 -292 -336 -171 -449 l24 -23 -43 -29 c-98 -64 -165 -165 -166 -246 0
-61 20 -102 74 -149 66 -58 134 -73 223 -50 84 22 144 58 221 132 l62 61 31
-32 c18 -18 54 -42 81 -54 38 -16 56 -32 76 -67 79 -133 418 -505 555 -608
l39 -29 -86 -23 c-144 -38 -256 -105 -389 -232 -133 -127 -190 -218 -233 -376
-31 -112 -60 -155 -105 -155 -16 0 -71 22 -122 49 -133 70 -250 95 -405 88
-69 -3 -135 -11 -161 -21 -50 -18 -61 -15 -61 22 -1 15 -16 86 -35 157 -100
378 -196 772 -192 790 18 71 137 383 244 634 165 390 220 532 282 731 84 267
103 319 120 324 46 14 153 -6 305 -58z m6478 -18 c-54 -27 -89 -65 -107 -116
-41 -121 11 -253 117 -297 24 -10 78 -21 121 -24 l79 -6 53 -120 c30 -66 54
-124 55 -129 0 -5 -23 12 -50 38 -68 64 -128 89 -210 90 -115 1 -202 -59 -259
-177 l-28 -59 -30 54 c-16 29 -35 63 -43 75 -13 20 -11 24 14 50 94 93 95 235
2 327 -24 24 -60 49 -82 55 -21 7 -45 15 -53 17 -16 5 106 80 309 190 92 49
137 69 142 61 4 -7 -7 -18 -30 -29z m-1057 -44 c14 -31 35 -92 47 -136 l21
-79 -25 -26 c-58 -58 -179 -30 -226 52 -44 77 -14 168 73 221 64 38 81 33 110
-32z m-2841 -86 c13 -189 18 -678 11 -1118 l-8 -469 -51 29 c-49 28 -53 34
-103 142 -28 62 -116 273 -196 468 -80 195 -204 495 -275 665 -146 350 -144
319 -24 330 132 14 163 -13 226 -190 31 -87 54 -125 76 -125 3 0 14 6 23 13
13 9 22 41 32 115 16 112 32 153 71 179 27 17 125 40 181 42 l31 1 6 -82z
m4021 -78 c25 -74 45 -138 45 -142 0 -16 -82 -7 -121 12 -67 34 -102 117 -79
186 13 38 87 101 102 86 4 -4 28 -68 53 -142z m1222 -65 c21 -15 169 -213 180
-241 8 -21 -40 -61 -88 -74 -75 -21 -183 12 -223 66 -48 67 -34 177 31 234 37
33 68 38 100 15z m-7425 -46 c36 -19 69 -77 79 -140 6 -35 15 -69 21 -76 8
-10 41 -11 142 -7 149 7 207 -3 232 -41 15 -23 14 -27 -7 -65 -26 -45 -92 -94
-152 -112 -32 -10 -47 -9 -91 6 -30 11 -62 15 -75 11 -28 -9 -38 -49 -17 -78
73 -100 85 -137 63 -190 -30 -72 -146 -127 -264 -127 -110 1 -187 48 -212 130
-12 40 -36 56 -69 46 -10 -3 -37 -35 -60 -70 -49 -74 -106 -127 -176 -163 -42
-21 -60 -24 -114 -21 -55 4 -68 8 -88 32 -14 16 -24 40 -24 58 0 95 117 211
232 232 45 8 68 29 68 62 0 26 -12 33 -85 53 -105 28 -121 108 -45 223 39 58
98 99 152 105 37 4 47 1 72 -23 15 -16 34 -41 42 -56 9 -18 22 -28 37 -28 40
0 59 25 71 91 7 42 54 111 91 135 49 32 129 38 177 13z m5700 -6 c90 -53 104
-169 29 -237 -12 -11 -33 -21 -46 -22 -14 -1 -48 -16 -75 -33 -27 -17 -60 -33
-73 -36 -52 -13 -140 51 -157 115 -24 91 43 197 148 231 41 13 138 3 174 -18z
m3467 -88 c34 -26 61 -50 61 -53 0 -17 -33 -53 -62 -68 -45 -23 -145 -21 -204
5 -46 21 -104 66 -104 82 0 3 22 9 50 13 27 4 78 22 112 40 35 19 68 33 74 31
7 -2 39 -24 73 -50z m-1024 -19 c55 -25 111 -82 121 -122 13 -52 -2 -123 -32
-155 -70 -73 -221 -60 -273 24 -41 67 -20 200 40 256 30 28 80 27 144 -3z
m-6611 -175 c30 -74 54 -136 52 -138 -3 -3 -196 96 -196 102 0 5 48 129 61
158 7 15 16 24 20 20 4 -5 32 -69 63 -142z m-319 15 c17 -4 45 -2 64 4 19 5
36 8 38 6 2 -2 -3 -21 -12 -41 -20 -50 -7 -70 71 -112 36 -19 53 -33 44 -36
-8 -3 -35 -10 -59 -17 -65 -17 -87 -36 -114 -92 l-24 -50 -26 44 c-39 67 -67
87 -135 100 l-62 12 35 25 c55 38 76 80 76 150 l1 60 36 -23 c20 -14 51 -27
67 -30z m-185 -501 c102 -115 252 -275 333 -355 82 -80 164 -163 182 -186 l34
-41 -74 -47 c-41 -26 -92 -68 -114 -93 l-41 -46 -47 39 c-86 68 -232 215 -440
442 -194 211 -369 381 -481 467 -52 40 -62 55 -39 55 27 0 119 51 160 90 26
23 54 63 67 92 l22 52 127 -129 c69 -72 210 -224 311 -340z m5199 421 c127
-65 154 -180 71 -301 -93 -135 -370 -79 -370 75 0 88 53 188 124 231 44 27
115 25 175 -5z m-568 -221 c107 -163 138 -215 234 -396 48 -90 123 -220 165
-289 43 -69 122 -208 175 -310 54 -102 101 -190 106 -196 16 -20 229 -437 225
-441 -2 -2 -59 12 -127 30 -244 66 -284 107 -313 316 -10 72 -25 134 -41 168
-120 264 -457 555 -825 713 -41 18 -76 34 -78 35 -5 5 117 173 199 275 102
126 185 213 197 209 6 -2 43 -53 83 -114z m-3966 -105 c32 -80 101 -246 153
-370 51 -124 96 -232 98 -240 4 -13 -6 -14 -61 -12 -37 2 -95 -1 -130 -7 l-64
-11 -209 212 c-191 194 -257 266 -452 487 l-65 74 59 -5 c74 -6 101 -33 141
-139 33 -87 49 -109 82 -109 27 0 37 20 48 100 9 65 25 110 49 129 31 26 109
40 202 38 l90 -2 59 -145z m-1262 -95 c43 -38 155 -153 250 -255 260 -280 412
-433 520 -523 66 -55 96 -85 92 -96 -3 -8 -10 -35 -16 -60 -5 -25 -12 -52 -14
-59 -9 -24 -219 161 -515 453 -162 160 -348 335 -413 389 l-118 97 36 42 c19
22 40 58 47 79 13 44 5 48 131 -67z m4144 48 c34 -24 79 -82 87 -108 6 -19 0
-22 -77 -33 -69 -10 -190 -45 -269 -77 -24 -10 -32 27 -18 85 13 55 63 119
112 144 43 22 129 17 165 -11z m-4332 -253 c44 -36 226 -209 405 -384 179
-176 357 -346 395 -378 161 -135 167 -141 152 -149 -34 -19 -99 17 -200 109
-86 79 -165 126 -264 157 -48 15 -104 36 -124 46 -101 50 -414 338 -545 499
-59 72 -104 138 -104 151 0 4 21 10 48 13 26 4 63 13 82 20 40 14 26 21 155
-84z m3405 57 c77 -19 123 -45 219 -126 156 -130 246 -142 392 -51 108 68 180
98 289 121 252 51 532 -8 835 -177 242 -135 472 -339 568 -502 43 -74 66 -145
82 -254 18 -121 39 -171 95 -232 54 -58 112 -85 279 -131 211 -57 336 -113
476 -214 235 -170 430 -436 569 -778 72 -176 97 -278 103 -425 7 -151 -10
-236 -64 -325 -48 -82 -87 -118 -267 -256 -271 -207 -309 -281 -326 -632 -13
-265 -35 -395 -94 -565 -130 -370 -409 -569 -856 -610 -210 -19 -363 -1 -695
84 -270 70 -310 77 -397 78 -187 0 -314 -69 -618 -337 -208 -183 -278 -228
-453 -287 -81 -28 -108 -32 -232 -36 -119 -3 -154 -1 -230 17 -126 30 -245 92
-425 220 -247 176 -354 217 -475 186 -88 -23 -138 -57 -255 -170 -241 -234
-389 -328 -600 -381 -100 -25 -262 -25 -345 0 -165 49 -261 129 -414 344 -103
145 -197 242 -263 272 -69 31 -115 26 -252 -29 -300 -121 -460 -107 -717 64
-116 77 -234 186 -294 270 -59 82 -129 230 -159 337 -41 141 -48 231 -44 515
l3 263 -31 30 c-19 19 -65 44 -123 66 -313 118 -555 302 -651 497 -48 97 -64
175 -57 277 7 117 31 169 166 355 58 82 71 131 111 449 29 232 145 432 323
557 99 69 162 91 282 96 130 6 206 -11 358 -84 143 -68 192 -76 245 -41 47 32
82 95 127 235 58 180 151 299 322 410 168 110 308 144 474 117 115 -18 178
-51 295 -151 102 -87 167 -123 239 -130 109 -11 168 50 206 216 12 53 30 113
41 134 26 52 89 111 167 157 97 57 166 74 296 75 100 0 116 -3 169 -28 71 -33
126 -76 223 -174 39 -41 87 -80 107 -88 52 -22 107 -19 146 8 54 36 69 73 85
204 7 66 22 142 33 170 67 176 253 347 435 398 68 20 492 14 577 -8z m5427
-393 c100 -34 155 -107 172 -226 5 -35 8 -64 6 -66 -2 -2 -402 253 -414 264
-8 8 9 17 56 30 66 18 124 17 180 -2z m-10824 -30 c53 -44 152 -94 204 -101
27 -3 51 0 72 12 18 9 35 14 38 12 4 -5 52 -184 53 -198 0 -3 -11 -4 -24 -2
-18 4 -31 -4 -56 -36 -31 -38 -82 -71 -111 -71 -7 0 -41 30 -75 66 -55 60 -65
66 -89 60 l-28 -7 7 -91 c4 -50 7 -94 8 -97 6 -57 -4 -75 -86 -156 l-84 -83
-26 27 -26 27 24 90 c13 49 41 154 64 234 22 80 50 191 62 248 13 56 25 102
28 102 2 0 23 -16 45 -36z m9568 -264 c10 -6 19 -20 19 -31 0 -27 -119 -350
-136 -369 -12 -12 -21 -12 -61 -1 -26 6 -56 20 -67 29 -34 31 -56 93 -56 162
0 101 41 172 118 206 34 15 157 18 183 4z m-1184 -65 c59 -50 93 -124 93 -199
0 -67 -31 -151 -52 -144 -11 4 -208 333 -208 349 0 12 46 28 86 28 32 1 49 -6
81 -34z m-7969 -136 c18 -73 31 -133 29 -135 -2 -2 -122 69 -135 81 -4 4 61
185 68 185 3 0 20 -59 38 -131z m-208 -4 c34 7 34 8 19 -33 -14 -40 -2 -62 58
-103 l46 -32 -48 -18 c-58 -22 -83 -44 -102 -88 l-15 -35 -25 45 c-28 52 -67
79 -112 79 -37 0 -39 6 -7 31 34 27 66 98 66 147 l0 41 45 -20 c31 -14 56 -18
75 -14z m10218 -136 c34 -16 73 -44 87 -61 32 -38 76 -124 110 -214 33 -87 39
-94 89 -94 77 0 118 -18 177 -79 39 -40 61 -73 73 -109 20 -60 15 -95 -20
-147 -62 -91 -66 -128 -34 -263 33 -138 26 -205 -33 -290 -37 -55 -81 -82
-133 -82 -87 0 -124 71 -124 236 0 119 -14 183 -53 241 -39 58 -90 88 -176
103 -209 39 -251 121 -163 317 57 127 64 165 56 305 -6 100 -4 121 10 143 22
34 58 32 134 -6z m-9964 -118 c15 -6 26 -34 47 -117 36 -140 36 -146 -2 -168
-17 -10 -64 -52 -105 -92 l-74 -74 -76 73 c-190 179 -357 347 -352 352 3 3 36
7 73 8 61 2 68 0 90 -25 13 -15 33 -57 45 -95 34 -101 47 -123 75 -123 32 0
37 10 51 109 8 51 21 95 32 110 29 39 142 63 196 42z m8416 -16 c105 -29 188
-245 132 -344 -25 -46 -74 -71 -137 -71 -137 0 -248 189 -191 323 18 44 67 88
108 97 33 8 42 7 88 -5z m-9053 -127 c-12 -3 -34 -6 -49 -7 -30 -1 -32 6 -22
70 l6 36 43 -46 c42 -44 43 -46 22 -53z m-262 -114 c27 -7 133 2 163 14 10 3
2 -14 -21 -46 -59 -79 -63 -107 -32 -210 l7 -22 -43 20 c-75 34 -152 20 -212
-37 l-27 -27 6 75 c8 90 -5 137 -52 195 l-33 42 41 6 c52 9 100 37 118 71 l14
26 22 -50 c17 -37 29 -52 49 -57z m455 -41 c45 -49 108 -111 140 -138 32 -28
68 -62 80 -78 l22 -27 -36 -83 c-19 -45 -41 -103 -48 -129 -13 -52 -16 -53
-68 -38 -39 11 -542 95 -632 106 -32 3 -58 9 -58 13 0 10 72 77 97 90 38 19
63 12 179 -49 62 -33 120 -60 128 -60 9 0 21 11 28 24 9 22 4 35 -45 112 -71
108 -78 139 -44 196 41 70 123 141 168 147 4 1 44 -38 89 -86z m10078 -261
c12 -36 57 -88 105 -123 l38 -28 -38 -6 c-114 -19 -547 -110 -736 -155 -121
-28 -221 -49 -223 -47 -3 2 9 40 25 83 27 76 30 79 58 76 51 -5 225 26 323 58
52 17 165 62 250 100 85 37 162 68 172 69 9 1 20 -11 26 -27z m-11123 -172
c127 -16 302 -37 390 -45 197 -20 659 -94 759 -122 16 -4 17 -12 11 -72 -11
-109 6 -100 -225 -125 -130 -14 -383 27 -802 130 l-308 76 0 29 c0 60 -35 111
-106 156 -22 13 -52 16 281 -27z m11519 -82 c7 -13 16 -35 20 -50 6 -26 4 -27
-41 -33 -104 -13 -178 -29 -408 -90 -385 -102 -552 -166 -664 -255 -29 -23
-54 -40 -55 -38 -2 1 -19 44 -38 93 -20 50 -43 107 -52 128 -15 35 -15 37 1
37 10 0 115 23 233 51 439 103 509 118 628 139 113 19 252 35 329 39 24 1 36
-5 47 -21z m-11447 -242 c345 -86 484 -113 676 -133 133 -13 179 -14 258 -5
53 6 103 14 112 18 23 9 22 -16 -4 -76 -21 -48 -21 -48 -87 -62 -42 -8 -131
-13 -237 -12 -265 1 -490 48 -850 178 -211 76 -207 74 -199 88 23 38 49 68 61
68 7 0 128 -29 270 -64z m11476 -14 c9 -91 32 -156 72 -197 18 -19 30 -35 26
-35 -3 0 -103 -14 -221 -30 -118 -17 -287 -39 -375 -50 -139 -18 -297 -44
-557 -93 l-67 -13 -6 37 c-8 47 2 65 66 123 99 89 264 150 712 265 225 57 227
58 293 60 l51 1 6 -68z m-11593 -189 c380 -132 629 -179 894 -171 l141 4 -28
-55 c-15 -30 -34 -78 -43 -107 l-15 -52 -72 28 c-132 52 -321 93 -587 130
-256 35 -292 43 -301 68 -16 44 -62 92 -128 136 -75 51 -111 82 -111 97 0 7 7
8 18 4 9 -4 114 -41 232 -82z m11474 -184 c-11 -19 -87 -49 -124 -48 -19 0
-48 6 -65 13 -29 12 -27 13 60 25 50 7 95 14 100 16 21 7 36 4 29 -6z m-374
-103 c0 -60 -21 -87 -100 -126 -77 -39 -110 -69 -110 -101 0 -34 -7 -33 152
-33 112 -1 130 -3 154 -22 26 -19 101 -140 93 -149 -4 -3 -812 16 -816 19 -2
2 7 40 18 87 18 68 20 100 15 171 -3 48 -7 93 -8 100 -3 14 37 23 327 72 240
41 257 43 268 38 4 -2 7 -27 7 -56z m261 -30 l57 1 -8 -27 c-11 -38 4 -58 62
-85 l50 -23 -51 -11 c-71 -15 -100 -37 -125 -93 l-21 -48 -35 47 c-43 58 -86
88 -138 97 l-40 6 39 39 c39 38 44 55 39 123 l-1 28 58 -27 c42 -20 73 -27
114 -27z m-10374 -442 l30 -71 -121 -5 c-140 -6 -200 -25 -308 -94 -93 -60
-191 -160 -340 -347 -92 -116 -139 -186 -175 -259 l-50 -101 -58 83 -59 83 28
53 c38 71 166 226 295 354 201 200 460 345 658 368 38 4 69 8 69 8 1 -1 15
-33 31 -72z m10095 -60 l257 -6 5 -27 c41 -204 28 -253 -89 -336 -66 -47 -134
-116 -136 -138 -1 -6 -1 -18 0 -24 1 -7 -1 -13 -3 -13 -3 0 -113 59 -243 132
-131 72 -311 167 -400 210 -175 85 -175 86 -124 132 12 11 31 35 42 53 l21 34
207 -6 c113 -3 322 -8 463 -11z m601 -20 c67 -6 75 -9 65 -22 -7 -8 -33 -24
-57 -35 -55 -24 -94 -17 -146 28 l-40 34 51 1 c28 0 85 -3 127 -6z m-192 -121
c36 -43 151 -67 213 -43 14 5 26 8 26 6 0 -2 -10 -29 -21 -60 l-22 -57 24 -25
c13 -14 58 -45 99 -67 l75 -41 -40 -8 c-144 -30 -188 -61 -220 -159 l-18 -52
-17 36 c-57 117 -110 157 -210 160 -33 1 -60 4 -60 7 1 3 21 20 46 38 24 18
57 51 72 74 24 37 27 51 27 125 0 46 3 83 6 83 4 0 13 -7 20 -17z m-10337 -78
c76 -74 141 -116 336 -219 230 -121 284 -179 297 -310 3 -35 0 -101 -6 -146
-17 -110 -15 -230 4 -321 30 -146 107 -349 168 -446 15 -24 27 -46 27 -51 0
-20 -214 -192 -225 -180 -1 2 -40 77 -85 168 -45 91 -144 266 -218 390 -75
124 -159 277 -187 340 -29 63 -82 174 -117 245 -36 72 -85 175 -108 230 -52
122 -109 237 -144 287 -14 21 -21 40 -16 43 18 11 95 23 157 24 l61 1 56 -55z
m9132 -6 c40 -24 42 -38 14 -134 -23 -82 -26 -196 -6 -270 18 -67 44 -117 127
-239 91 -135 109 -187 109 -318 0 -140 -16 -258 -55 -413 -40 -159 -83 -265
-147 -361 -58 -87 -112 -135 -193 -174 -125 -59 -355 -94 -466 -71 -59 12 -59
12 -212 207 l-18 23 79 -6 c167 -12 382 35 532 119 93 51 204 160 248 244 96
184 82 339 -75 819 -42 126 -46 205 -20 340 8 44 18 116 22 160 10 108 9 107
61 74z m-162 -76 c-3 -38 -14 -115 -26 -173 -30 -156 -24 -205 60 -456 79
-235 102 -332 102 -433 0 -268 -230 -468 -587 -512 -90 -11 -233 -6 -233 8 0
3 23 31 52 62 97 106 173 240 232 410 47 134 71 258 91 461 32 339 65 453 169
584 25 30 129 116 142 116 2 0 1 -30 -2 -67z m-9459 -25 c-8 -35 -39 -125
-158 -448 -100 -274 -173 -452 -183 -448 -5 1 -40 45 -77 98 l-69 95 5 58 c12
132 213 449 389 612 80 74 103 82 93 33z m9855 -13 l90 -45 0 -64 c0 -112 41
-203 157 -346 119 -149 130 -189 113 -453 -27 -441 -79 -650 -211 -846 -32
-48 -80 -108 -108 -135 l-50 -49 -11 29 c-17 50 -26 59 -58 62 -39 4 -46 -8
-66 -117 -9 -45 -19 -87 -22 -92 -20 -33 -422 -198 -455 -187 -5 2 -52 62
-104 133 l-95 130 103 6 c108 7 236 34 333 70 172 64 296 205 381 431 73 194
131 524 120 678 -10 118 -30 170 -124 308 -115 168 -127 197 -127 297 0 70 28
235 40 235 3 0 45 -20 94 -45z m416 -226 c224 -126 498 -255 789 -374 77 -31
142 -59 144 -61 6 -5 -22 -45 -133 -188 -169 -217 -230 -305 -469 -681 -274
-431 -480 -745 -488 -745 -29 -1 -205 171 -197 191 2 4 32 28 68 55 83 63 127
122 200 269 69 139 120 287 150 434 41 202 43 571 4 728 -17 72 -65 177 -139
308 -37 66 -57 125 -42 125 2 0 53 -27 113 -61z m513 -13 c22 -20 81 -130 81
-152 0 -17 -3 -16 -200 80 l-165 80 45 7 c25 4 84 6 131 5 70 -1 91 -5 108
-20z m-3458 -1411 l137 -27 6 -31 c4 -18 13 -124 21 -237 8 -113 21 -259 30
-325 22 -182 46 -447 41 -453 -8 -7 -206 121 -206 134 0 10 54 169 86 255 15
39 16 50 5 63 -23 27 -40 19 -114 -58 -56 -57 -81 -76 -109 -81 -63 -12 -88 1
-179 96 -86 88 -100 97 -129 79 -17 -11 -17 -89 0 -162 14 -63 12 -171 -5
-209 -19 -46 -48 -78 -127 -139 -74 -57 -108 -97 -108 -129 0 -32 29 -41 101
-31 86 13 173 12 201 -1 38 -17 84 -96 123 -211 39 -113 61 -144 93 -134 27 9
30 20 47 148 8 65 22 123 33 141 37 64 103 88 251 91 l55 1 17 -155 c10 -85
26 -210 36 -277 l19 -123 -33 -6 c-19 -4 -73 -4 -121 -1 -71 4 -107 12 -197
47 -133 52 -199 58 -238 22 -38 -35 -66 -168 -82 -387 -3 -44 -8 -97 -11 -118
l-6 -38 -36 43 c-89 105 -156 168 -179 168 -41 0 -47 -34 -28 -156 10 -60 18
-145 18 -189 0 -98 -17 -136 -98 -215 -30 -30 -79 -90 -107 -133 -45 -69 -50
-80 -40 -102 10 -22 18 -25 66 -25 30 0 93 9 141 21 48 11 100 19 116 17 l29
-3 -32 -50 c-27 -41 -38 -50 -65 -51 -44 -2 -259 -168 -515 -396 -48 -43 -88
-78 -91 -78 -2 0 17 78 43 173 189 694 237 891 310 1262 12 61 30 148 40 195
11 47 40 180 65 295 45 201 144 622 292 1234 l68 284 115 -6 c63 -3 176 -18
251 -32z m-585 -440 c-58 -240 -106 -443 -106 -451 0 -20 -7 -18 -53 20 -53
42 -66 49 -173 88 -117 42 -173 95 -203 193 -12 37 -21 75 -21 84 0 9 20 30
44 46 24 17 119 95 211 175 92 80 193 164 223 187 58 43 172 106 179 99 3 -2
-43 -201 -101 -441z m1029 350 c83 -13 166 -26 185 -27 l34 -3 -2 -50 c-7
-134 -48 -205 -119 -205 -22 0 -77 11 -123 25 -92 27 -121 30 -137 14 -7 -7
-12 12 -17 68 -3 43 -9 109 -12 147 -6 69 -6 69 17 63 13 -4 92 -18 174 -32z
m595 -52 c0 -38 -38 -194 -51 -209 -18 -22 -107 -36 -137 -22 -35 17 -68 79
-91 170 l-19 73 127 5 c69 3 136 7 149 8 18 2 22 -3 22 -25z m-5750 -59 c66
-31 170 -107 170 -123 0 -15 -217 -197 -345 -289 -66 -48 -175 -130 -242 -184
-98 -79 -295 -218 -307 -218 -6 0 -18 197 -27 458 -5 147 -12 293 -15 324 l-6
57 58 -17 c82 -23 250 -20 379 6 147 31 251 26 335 -14z m2179 -17 c45 -23
195 -421 245 -647 52 -236 76 -537 48 -602 -10 -23 -15 -26 -34 -19 -13 5 -47
12 -75 16 -29 4 -53 11 -53 15 0 43 -162 897 -210 1112 -17 72 -30 132 -30
134 0 10 87 3 109 -9z m-199 -54 c26 -92 195 -962 220 -1137 11 -73 10 -80 -7
-89 -10 -6 -35 -27 -55 -48 l-37 -39 -16 58 c-80 272 -133 594 -200 1197 -6
50 -5 51 32 73 21 12 41 22 45 22 4 0 12 -17 18 -37z m3531 -179 c23 -11 49
-15 91 -12 39 3 57 1 55 -6 -61 -171 -152 -394 -158 -390 -5 3 -18 23 -30 45
-11 22 -27 43 -35 46 -8 3 -34 -8 -57 -24 -49 -35 -107 -66 -113 -60 -2 2 0
36 5 75 6 50 5 90 -3 130 -11 56 -59 146 -92 172 -25 21 -15 29 23 18 77 -21
175 18 208 83 l16 31 29 -46 c16 -25 43 -52 61 -62z m-3661 -442 c28 -194 81
-458 123 -610 l34 -124 -53 7 c-100 12 -223 -27 -267 -86 -30 -42 -34 -109 -7
-163 26 -55 101 -123 182 -166 60 -32 65 -41 48 -85 -6 -15 -11 -55 -11 -89
-3 -192 194 -310 386 -231 71 29 65 28 65 10 0 -23 59 -84 104 -107 31 -16 60
-22 116 -22 187 -2 336 113 328 252 l-3 52 31 0 c55 0 147 21 194 45 189 96
169 328 -34 404 -95 35 -206 37 -323 5 -18 -5 -23 -2 -23 13 0 58 -35 120
-107 191 l-74 73 12 42 c18 63 13 260 -11 431 -27 189 -75 378 -139 549 -27
72 -48 133 -46 135 2 2 32 -18 67 -43 34 -26 93 -62 131 -81 37 -19 67 -38 67
-43 0 -5 -9 -29 -20 -54 -77 -174 10 -422 224 -641 149 -151 214 -186 486
-256 217 -56 268 -78 331 -141 54 -53 129 -198 129 -247 0 -35 -71 -385 -120
-587 -55 -232 -161 -598 -180 -625 -26 -36 -113 -102 -176 -134 -66 -33 -163
-47 -251 -36 -128 17 -215 51 -445 176 -390 212 -661 266 -821 164 l-43 -27
-112 403 c-62 221 -115 409 -118 417 -3 8 2 22 11 31 29 29 14 70 -33 93 -2 0
-16 59 -32 130 -34 157 -80 325 -170 628 -107 359 -132 447 -127 452 3 2 31
11 64 20 80 20 188 72 250 120 29 21 97 89 152 150 55 61 111 119 123 127 l23
16 22 -196 c12 -107 31 -262 43 -342z m3243 378 c32 -36 66 -78 74 -95 27 -50
27 -148 0 -262 -24 -106 -22 -137 11 -145 14 -4 31 6 59 34 32 33 170 116 177
106 36 -51 46 -70 46 -91 0 -13 -27 -89 -59 -168 -113 -276 -171 -477 -171
-593 l0 -46 -45 2 c-38 3 -45 6 -50 28 -11 57 -35 224 -50 355 -21 189 -23
208 -40 407 -14 157 -48 480 -60 568 l-5 35 28 -35 c15 -19 53 -64 85 -100z
m-4743 16 l91 -90 -41 -120 c-49 -141 -127 -383 -165 -510 -14 -48 -31 -100
-36 -114 l-10 -25 -40 39 c-63 61 -82 98 -76 145 7 50 63 145 99 167 53 31 41
82 -20 82 -20 0 -91 -15 -157 -34 -70 -19 -125 -30 -131 -25 -16 13 -128 178
-123 182 2 2 56 42 119 90 63 47 175 135 249 197 74 61 138 109 142 108 4 -2
49 -43 99 -92z m3140 -103 c28 -104 85 -189 155 -233 17 -10 73 -33 125 -50
63 -22 106 -43 128 -64 38 -35 72 -95 72 -125 0 -21 -37 -181 -43 -187 -2 -2
-19 16 -37 41 -68 91 -167 159 -370 258 -161 77 -249 139 -285 201 -26 44 -50
114 -43 122 3 2 38 10 79 18 41 8 101 25 134 39 33 14 63 26 66 26 4 1 12 -20
19 -46z m-536 -18 c49 -8 99 -15 111 -15 18 0 24 -9 34 -52 19 -88 60 -155
134 -223 56 -53 98 -78 250 -153 255 -126 341 -196 382 -313 16 -44 19 -111 6
-142 -6 -17 -12 -13 -46 25 -117 131 -210 184 -449 253 -304 88 -465 193 -538
351 -19 41 -23 66 -23 154 0 118 6 144 32 136 10 -3 58 -12 107 -21z m-2312
-88 c110 -55 240 -87 354 -87 l71 0 28 -102 c15 -57 63 -222 107 -368 78 -260
169 -603 183 -688 l7 -43 -29 7 c-15 3 -82 20 -148 36 -66 17 -187 41 -268 53
-82 13 -150 25 -152 27 -8 9 28 206 45 245 15 34 28 48 62 63 60 26 227 44
281 29 36 -9 43 -9 54 7 31 43 8 66 -178 176 l-137 81 23 66 c12 36 37 102 55
146 l32 80 -22 17 c-28 22 -45 14 -93 -46 -22 -26 -59 -55 -91 -71 -80 -39
-115 -27 -217 76 -66 67 -83 80 -106 77 -24 -3 -28 -8 -31 -41 -2 -21 4 -81
13 -132 26 -153 8 -197 -116 -291 -41 -31 -82 -65 -91 -76 -10 -11 -18 -17
-18 -13 0 12 99 322 177 555 95 282 92 272 101 268 4 -2 51 -25 104 -51z
m3877 -138 c40 -12 96 -6 153 16 15 6 15 -2 -7 -66 -32 -92 -28 -98 102 -175
l97 -57 -87 -18 c-138 -28 -179 -63 -213 -187 l-17 -62 -30 71 c-54 130 -127
178 -249 165 -32 -3 -58 -4 -58 -2 0 2 29 28 65 56 36 29 78 73 93 98 25 43
27 55 26 149 l-1 102 43 -39 c23 -21 61 -44 83 -51z m-4849 -78 c0 -79 -19
-93 -126 -99 -49 -2 -87 -2 -84 1 3 3 42 32 86 65 45 33 85 65 88 71 4 6 14
11 22 11 10 0 14 -13 14 -49z m148 -139 c20 -20 28 -23 64 -17 23 4 66 16 96
26 50 17 54 17 47 1 -25 -60 -45 -125 -45 -146 0 -13 13 -48 28 -78 l29 -54
-51 13 c-81 21 -123 10 -178 -49 l-48 -50 0 44 c0 100 -48 186 -130 234 -16
10 -30 21 -30 25 0 3 18 9 39 13 45 7 97 53 108 94 l6 26 21 -29 c12 -16 31
-40 44 -53z m-365 -63 c195 -120 211 -137 227 -249 22 -151 30 -181 53 -189
32 -12 51 2 85 62 17 30 45 66 63 82 28 23 39 26 75 21 41 -5 170 -51 188 -67
6 -5 -58 -289 -67 -294 -1 -1 -117 2 -257 6 -243 7 -457 24 -472 38 -10 9 -25
112 -42 296 -9 88 -18 186 -21 217 l-6 57 58 46 c51 40 58 43 61 26 2 -11 26
-34 55 -52z m1217 -39 c46 -24 90 -29 143 -15 29 7 53 12 55 10 2 -2 -6 -25
-17 -50 -26 -58 -27 -87 -3 -107 9 -9 60 -40 112 -69 l95 -54 -61 -7 c-164
-18 -224 -67 -249 -202 -9 -43 -16 -39 -40 26 -21 56 -75 122 -119 145 -21 12
-56 17 -110 17 l-78 1 33 25 c130 98 155 145 146 277 l-6 86 37 -35 c20 -20
48 -41 62 -48z m-380 -403 c14 0 70 4 125 8 118 9 149 -1 190 -63 23 -35 101
-231 93 -236 -1 -1 -97 14 -213 34 -115 21 -231 41 -256 44 l-47 7 20 87 c11
48 22 97 25 110 4 17 10 21 22 16 9 -4 27 -7 41 -7z m2190 -41 c64 -32 123
-86 145 -133 13 -27 15 -50 10 -107 -6 -61 -4 -74 10 -86 15 -12 23 -12 64 4
195 76 316 74 398 -9 36 -36 43 -49 43 -82 0 -45 -23 -73 -82 -97 -53 -22
-164 -30 -218 -16 -72 20 -110 18 -126 -5 -14 -22 -12 -28 51 -114 33 -46 32
-82 -5 -125 -57 -64 -179 -101 -254 -76 -52 17 -76 52 -76 113 0 87 -51 114
-106 56 -60 -65 -159 -93 -229 -66 -104 40 -133 130 -79 244 14 31 22 62 19
73 -3 10 -44 40 -90 66 -46 26 -106 67 -134 91 -42 37 -51 50 -51 77 0 40 21
60 79 76 86 23 195 -13 229 -75 27 -48 52 -57 86 -32 15 11 19 29 20 88 1 84
16 117 69 150 46 29 153 22 227 -15z m1807 -708 l55 -68 -12 -83 c-15 -108
-48 -239 -64 -255 -7 -8 -62 -20 -122 -28 -60 -8 -115 -16 -121 -19 -30 -11
-8 26 62 105 117 132 141 201 124 345 -5 44 -12 86 -15 94 -8 23 30 -14 93
-91z m-2182 -663 c129 -28 199 -56 470 -191 310 -154 400 -185 540 -187 104
-2 176 14 259 55 l59 30 -8 -38 c-33 -180 -226 -352 -404 -362 -124 -7 -264
43 -441 159 -214 140 -335 181 -471 161 -42 -6 -103 -21 -135 -32 -107 -40
-93 -54 -143 144 -24 96 -41 181 -38 190 8 21 80 67 119 76 53 13 118 11 193
-5z m-1349 -356 c37 -40 119 -79 166 -79 21 0 56 7 78 16 23 9 43 15 45 12 6
-6 -21 -99 -40 -136 -17 -33 -17 -34 11 -64 16 -16 79 -59 139 -96 l110 -66
-45 -8 c-156 -28 -206 -45 -247 -90 -28 -30 -60 -102 -69 -156 -4 -23 -9 -42
-13 -42 -3 0 -14 23 -24 51 -31 85 -74 147 -125 177 -43 24 -56 27 -144 27
-54 0 -98 2 -98 5 1 3 21 21 46 40 141 109 181 189 171 347 -3 51 -2 93 2 93
4 0 20 -14 37 -31z m1524 -131 c61 -19 181 -84 290 -158 179 -120 403 -177
542 -136 31 9 59 16 62 16 16 0 -250 -247 -282 -262 -46 -22 -135 -23 -193 -3
-24 8 -108 47 -187 87 -137 68 -147 72 -226 76 -93 5 -172 -13 -243 -54 l-42
-25 -7 28 c-3 16 -25 106 -49 201 l-43 173 27 13 c113 57 252 75 351 44z m223
-743 c56 -19 120 -38 142 -43 39 -8 40 -9 47 -61 8 -72 32 -94 168 -158 252
-119 329 -159 330 -170 1 -35 -213 -854 -245 -938 -14 -38 -44 -135 -66 -215
-23 -80 -56 -200 -75 -266 -18 -67 -52 -168 -76 -225 l-43 -103 -27 89 c-16
50 -71 241 -123 425 -51 184 -124 432 -160 550 -36 118 -93 319 -126 445 -33
127 -83 317 -111 423 -28 106 -49 194 -47 195 13 9 168 76 184 80 61 14 131 5
228 -28z m1415 -694 c32 -16 100 -44 152 -62 52 -17 98 -35 102 -38 4 -3 -4
-71 -17 -151 -13 -80 -38 -259 -56 -397 -18 -139 -36 -249 -41 -245 -13 13
-76 217 -83 270 -11 85 -9 84 -221 76 -101 -4 -184 -5 -184 -2 0 12 131 197
214 303 107 136 121 165 107 207 -6 18 -19 40 -28 50 -22 25 -12 23 55 -11z"/>
<path d="M9888 15349 c-45 -26 -215 -268 -353 -504 -48 -82 -110 -182 -137
-223 -49 -72 -78 -137 -78 -173 0 -11 10 -29 21 -40 20 -20 28 -21 110 -15
103 8 152 -2 363 -70 77 -24 147 -42 158 -39 29 10 39 40 45 133 4 61 -1 132
-16 237 -23 161 -25 256 -11 430 11 149 4 232 -24 250 -33 20 -59 25 -78 14z
m2 -269 c-15 -174 -12 -285 10 -432 21 -140 26 -248 11 -248 -5 0 -28 7 -52
16 -136 48 -252 77 -332 83 l-88 6 36 50 c20 28 68 104 107 170 155 262 302
484 313 473 3 -2 0 -55 -5 -118z"/>
<path d="M10937 15360 c-66 -20 -76 -41 -136 -302 -93 -402 -113 -514 -101
-558 30 -113 337 -213 521 -170 267 62 444 356 374 623 -45 173 -128 246 -397
345 -177 65 -218 75 -261 62z m171 -135 c275 -107 313 -131 360 -224 96 -193
13 -440 -181 -536 -127 -62 -254 -58 -409 12 -64 30 -78 40 -78 59 0 77 130
671 156 712 8 12 19 22 24 22 6 0 63 -20 128 -45z"/>
<path d="M6300 11674 c-102 -27 -200 -82 -273 -155 -78 -78 -103 -127 -147
-289 -37 -135 -68 -197 -132 -261 -60 -61 -119 -83 -196 -77 -71 7 -148 44
-292 143 -169 115 -285 145 -420 111 -158 -41 -241 -128 -321 -334 -49 -129
-136 -192 -265 -192 -96 0 -152 19 -329 110 -202 103 -281 119 -402 82 -148
-47 -286 -184 -413 -412 -73 -131 -120 -199 -170 -244 -99 -89 -189 -100 -385
-46 -199 54 -353 52 -470 -7 -77 -40 -173 -143 -223 -243 -46 -91 -60 -147
-90 -337 -23 -144 -45 -195 -132 -303 -107 -133 -136 -223 -111 -341 28 -129
139 -296 256 -386 39 -30 145 -91 240 -138 300 -148 302 -151 325 -630 15
-318 37 -409 130 -548 157 -234 418 -390 675 -404 121 -7 177 6 344 76 209 88
284 99 350 52 17 -12 60 -60 96 -106 73 -93 125 -140 233 -210 158 -101 284
-135 543 -142 171 -5 193 -4 255 15 87 27 171 77 288 171 102 82 204 150 256
172 47 19 166 17 205 -3 17 -9 50 -34 75 -55 62 -54 115 -89 255 -166 251
-138 353 -171 525 -171 131 0 220 20 347 79 117 54 193 115 403 320 172 169
205 196 274 230 68 34 86 39 144 38 82 -1 159 -26 301 -98 273 -136 391 -172
601 -182 197 -9 350 17 522 88 385 158 736 582 790 954 9 65 9 112 -2 226 -21
235 -7 271 184 469 137 143 181 206 224 318 24 61 26 80 27 212 0 139 -2 149
-34 243 -20 57 -83 189 -153 319 -168 310 -226 394 -333 475 -80 61 -143 91
-315 153 -188 67 -352 148 -417 205 -74 65 -107 137 -143 320 -50 246 -98 322
-309 491 -267 214 -446 307 -648 336 -161 23 -285 -9 -557 -143 l-169 -84 -81
0 c-71 0 -89 4 -151 34 -38 19 -118 67 -177 107 -132 90 -205 128 -300 154
-87 24 -225 26 -308 4z m334 -122 c58 -19 115 -49 205 -111 200 -134 314 -178
443 -169 60 5 89 16 275 106 115 55 226 106 248 114 24 8 85 13 155 12 99 0
126 -4 195 -28 124 -43 207 -91 375 -217 276 -207 327 -281 378 -539 33 -167
64 -238 131 -306 93 -94 217 -163 441 -244 220 -79 280 -111 366 -192 84 -80
129 -144 239 -342 101 -180 170 -326 190 -401 23 -84 31 -240 15 -306 -29
-121 -73 -186 -225 -334 -116 -113 -164 -180 -196 -275 -20 -60 -21 -75 -13
-200 15 -238 11 -304 -23 -402 -80 -230 -293 -500 -507 -643 -145 -96 -270
-145 -436 -170 -120 -19 -229 -19 -350 0 -136 20 -212 46 -410 140 -213 101
-298 129 -400 128 -146 0 -234 -54 -454 -280 -221 -227 -369 -327 -557 -374
-107 -28 -221 -22 -333 15 -141 48 -385 181 -519 284 -98 74 -141 94 -220 100
-135 10 -231 -34 -416 -190 -197 -166 -251 -188 -468 -188 -344 0 -568 99
-749 331 -75 96 -106 123 -165 144 -90 32 -179 16 -385 -70 -129 -55 -207 -75
-289 -75 -174 0 -376 106 -543 284 -120 130 -172 258 -172 431 0 140 -28 474
-45 538 -37 144 -88 192 -330 315 -198 101 -272 153 -340 239 -74 95 -107 167
-113 245 -6 88 11 134 90 235 103 134 138 219 163 403 9 63 20 133 26 155 31
113 133 246 231 300 49 28 60 30 158 30 82 0 133 -7 230 -30 167 -40 301 -42
375 -5 92 44 181 146 294 338 121 205 188 280 298 335 136 69 194 62 393 -49
239 -132 397 -153 558 -73 78 38 116 88 167 215 81 205 191 294 350 281 70 -5
151 -43 293 -136 51 -33 114 -71 140 -85 201 -100 408 -23 518 195 18 37 49
122 69 190 20 68 47 143 61 166 51 88 179 172 294 192 81 14 203 3 294 -27z"/>
<path d="M7917 10919 c-77 -18 -127 -59 -166 -134 -69 -136 -73 -409 -6 -567
6 -15 1 -14 -47 4 -77 31 -195 31 -265 -1 -99 -44 -192 -166 -224 -294 l-12
-49 -66 65 c-36 35 -88 79 -114 97 -57 38 -209 110 -286 135 -109 35 -216 2
-303 -95 -47 -52 -119 -183 -133 -242 -4 -16 -11 -28 -15 -28 -4 0 -38 20 -75
45 -142 93 -285 133 -404 114 -197 -31 -400 -192 -451 -356 l-16 -53 -60 46
c-230 179 -481 240 -673 165 -114 -46 -235 -149 -263 -227 -14 -40 -19 -41
-37 -11 -58 92 -188 208 -302 267 -133 69 -267 87 -412 54 -87 -20 -355 -114
-453 -159 -216 -99 -356 -264 -356 -419 0 -79 23 -135 252 -606 92 -190 181
-381 198 -425 54 -143 171 -576 198 -730 14 -82 33 -165 42 -184 46 -98 323
-128 647 -68 77 14 204 35 283 47 259 39 491 117 629 211 109 75 196 176 223
262 10 33 15 38 34 32 130 -38 266 7 400 134 54 52 150 168 158 193 3 7 15 5
36 -6 67 -35 211 -88 299 -111 259 -68 477 -25 638 127 l64 60 83 -46 c198
-108 373 -138 488 -85 77 36 115 71 144 134 45 94 30 239 -40 378 -14 26 -22
47 -20 47 2 0 32 -7 65 -16 55 -14 67 -14 114 0 85 25 140 74 175 156 l18 42
48 -111 c153 -353 325 -504 555 -488 122 8 186 43 222 122 40 86 17 180 -102
411 -43 85 -79 159 -79 163 0 4 32 -9 72 -28 67 -34 78 -36 167 -36 88 0 102
3 162 32 80 40 159 120 197 200 23 49 27 71 26 143 0 76 -5 97 -42 190 -85
215 -195 410 -378 670 -52 74 -142 210 -200 302 -163 259 -254 371 -369 452
-97 69 -189 95 -268 75z m161 -123 c44 -23 173 -146 228 -217 24 -31 86 -125
138 -208 53 -84 159 -243 236 -354 160 -228 241 -364 310 -517 73 -163 94
-231 87 -291 -11 -88 -74 -178 -159 -224 -123 -69 -280 -24 -414 118 -63 66
-84 101 -233 387 -146 281 -214 397 -321 550 -44 62 -115 204 -134 268 -34
116 -30 272 10 394 18 54 80 115 123 120 38 5 91 -6 129 -26z m-390 -682 c62
-27 159 -116 212 -194 117 -173 378 -658 527 -979 47 -102 112 -238 144 -301
97 -191 100 -258 15 -300 -64 -31 -146 -27 -223 9 -151 72 -252 218 -393 571
-74 186 -133 304 -160 323 -26 18 -57 11 -71 -14 -7 -14 -1 -45 28 -126 32
-93 37 -121 38 -198 0 -71 -4 -97 -18 -118 -43 -66 -125 -84 -206 -45 -45 21
-180 149 -287 272 -44 50 -55 57 -75 51 -60 -19 -53 -48 50 -188 111 -152 172
-258 211 -365 60 -165 48 -260 -41 -319 -40 -26 -49 -28 -143 -28 -112 0 -139
9 -288 93 l-78 43 20 39 c30 60 68 201 76 282 12 142 -43 347 -137 509 -82
142 -250 342 -433 517 l-86 83 11 47 c7 26 24 75 40 109 58 131 132 193 230
193 51 0 73 -8 196 -69 163 -82 215 -125 325 -268 90 -116 103 -127 139 -110
33 17 35 42 9 94 -46 92 -11 249 74 335 86 88 177 104 294 52z m-1725 -259
c139 -36 274 -130 466 -325 234 -237 378 -430 437 -587 100 -266 57 -539 -112
-707 -150 -151 -356 -183 -617 -95 -81 27 -237 93 -237 101 0 2 10 28 22 58
19 47 22 74 23 190 0 127 -2 141 -33 229 -18 52 -54 135 -79 184 -66 128 -227
365 -323 477 l-82 95 5 53 c10 92 73 180 187 257 119 82 219 102 343 70z
m-2127 -99 c28 -7 84 -31 125 -52 95 -49 249 -200 296 -290 87 -165 84 -383
-8 -568 -45 -91 -72 -121 -150 -167 -39 -23 -84 -55 -100 -71 -66 -67 -9 -145
64 -88 14 11 52 33 84 47 51 24 73 28 183 31 154 5 242 -12 359 -68 109 -53
202 -122 293 -219 127 -136 178 -245 178 -380 0 -118 -26 -179 -110 -262 -133
-131 -392 -224 -765 -275 -66 -8 -167 -25 -225 -35 -252 -47 -472 -30 -509 40
-6 10 -22 87 -36 172 -38 226 -131 551 -225 784 -17 44 -87 195 -155 335 -68
140 -135 284 -150 320 -15 36 -44 99 -65 140 -47 94 -53 121 -40 168 24 90
122 190 260 265 82 45 390 157 485 177 63 13 155 11 211 -4z m1069 -71 c131
-34 277 -127 423 -269 115 -112 191 -205 295 -361 251 -379 289 -622 132 -860
-62 -93 -199 -231 -261 -261 -60 -29 -127 -35 -184 -16 -34 11 -36 15 -48 78
-7 37 -22 90 -34 118 -25 60 -98 177 -141 226 l-31 35 52 6 c108 14 235 106
281 205 58 122 49 273 -24 414 -24 47 -103 129 -145 150 -194 97 -433 -5 -503
-214 -28 -83 -21 -206 18 -298 5 -14 -3 -12 -55 9 -86 34 -190 54 -297 56 -51
1 -92 4 -90 7 1 3 18 37 38 75 88 169 116 337 84 499 -23 115 -16 171 29 239
98 147 276 209 461 162z m262 -626 c86 -41 153 -172 153 -297 0 -115 -32 -175
-125 -236 -107 -71 -177 -55 -289 66 -99 106 -126 199 -91 314 31 106 127 174
244 174 45 0 78 -6 108 -21z"/>
<path d="M6053 9389 c-128 -25 -205 -133 -205 -289 0 -272 195 -521 407 -522
90 0 159 26 217 83 112 112 100 289 -34 491 -119 178 -256 263 -385 237z m150
-130 c99 -66 222 -252 241 -366 27 -156 -127 -261 -279 -189 -128 59 -232 269
-211 422 20 145 136 208 249 133z"/>
<path d="M3522 9397 c-117 -44 -183 -178 -160 -324 12 -76 37 -131 84 -183
108 -119 277 -119 408 1 74 68 106 134 106 218 0 82 -23 135 -82 194 -67 66
-145 100 -243 104 -47 1 -93 -2 -113 -10z m220 -120 c80 -47 118 -103 118
-173 0 -125 -182 -245 -288 -190 -15 8 -39 27 -53 43 -98 105 -86 265 25 335
43 27 139 20 198 -15z"/>
<path d="M3977 8276 c-53 -19 -105 -62 -138 -114 -42 -66 -52 -106 -47 -182 7
-91 52 -174 143 -265 119 -119 245 -160 366 -120 75 25 167 118 197 198 28 75
29 166 2 226 -23 49 -115 144 -192 196 -99 66 -241 93 -331 61z m220 -116
c118 -55 223 -176 223 -256 0 -59 -13 -87 -66 -144 -84 -90 -167 -101 -267
-36 -60 39 -90 69 -145 149 -50 72 -62 129 -38 191 45 118 165 157 293 96z"/>
<path d="M9103 8888 c-160 -23 -291 -165 -324 -348 -23 -130 20 -262 114 -353
160 -154 419 -226 567 -156 98 46 163 136 195 271 47 199 -30 383 -209 499
-109 71 -234 103 -343 87z m231 -142 c182 -90 266 -251 222 -425 -55 -217
-211 -273 -442 -161 -104 50 -184 122 -214 192 -32 74 -25 189 15 268 42 83
72 116 128 145 46 24 61 26 134 23 70 -4 93 -10 157 -42z"/>
<path d="M7921 17513 c-19 -41 -25 -135 -12 -176 22 -65 66 -113 133 -146 163
-80 333 -29 382 115 21 61 30 159 18 199 -8 27 -13 30 -56 33 -45 3 -47 2 -37
-17 6 -11 11 -52 11 -91 0 -132 -64 -196 -186 -188 -72 4 -131 38 -171 97 -29
43 -29 83 2 149 l24 52 -48 0 c-42 0 -49 -3 -60 -27z"/>
<path d="M9101 17509 c-15 -44 -14 -123 3 -163 30 -72 135 -149 234 -172 109
-25 206 20 270 126 44 74 64 144 56 198 l-6 42 -44 0 c-49 0 -49 0 -32 -47 15
-41 1 -87 -49 -155 -65 -90 -133 -109 -223 -63 -129 65 -166 141 -116 238 l15
27 -49 0 c-45 0 -49 -2 -59 -31z"/>
<path d="M10360 17530 c0 -27 46 -126 74 -157 119 -137 405 -76 446 95 6 28 9
56 5 62 -3 5 -22 10 -40 10 -29 0 -36 -4 -41 -27 -17 -71 -107 -133 -193 -133
-75 0 -141 56 -158 133 -5 24 -10 27 -49 27 -24 0 -44 -4 -44 -10z"/>
<path d="M10942 17481 l41 -60 -33 -37 c-43 -50 -60 -93 -60 -154 0 -139 109
-268 244 -286 53 -8 125 10 155 37 11 10 23 19 27 19 3 0 35 -27 71 -60 35
-33 70 -60 78 -60 12 0 15 -14 15 -58 0 -74 30 -134 89 -179 46 -36 125 -63
180 -63 136 1 259 179 221 320 -26 96 -95 148 -213 159 l-69 6 75 85 c41 47
138 153 215 235 l139 150 -74 3 -74 3 -77 -63 c-42 -34 -147 -132 -232 -218
-163 -164 -205 -200 -238 -200 -31 0 -220 222 -346 408 l-50 72 -62 0 -63 0
41 -59z m271 -363 c39 -47 40 -48 22 -68 -24 -27 -107 -27 -155 -1 -44 23 -86
82 -100 144 -14 57 -8 85 26 126 l26 31 70 -93 c39 -50 89 -113 111 -139z
m619 -169 c20 -10 43 -29 49 -41 28 -53 0 -158 -57 -208 -43 -37 -106 -41
-171 -9 -81 39 -109 109 -74 182 47 98 150 129 253 76z"/>
<path d="M2315 17478 c-60 -33 -120 -114 -358 -488 -75 -119 -286 -410 -370
-513 l-40 -48 -44 43 c-25 24 -71 75 -103 114 -33 39 -73 77 -90 84 -28 11
-33 11 -54 -9 -13 -12 -47 -75 -76 -139 -95 -210 -160 -339 -180 -357 -16 -15
-25 -16 -43 -8 -30 14 -431 387 -475 441 -18 23 -77 80 -133 128 -55 48 -113
106 -129 129 -75 109 -123 50 -187 -226 -26 -113 -26 -118 -30 -594 -2 -264
-2 -477 1 -475 2 3 18 73 35 155 49 245 91 564 101 770 10 193 18 246 37 252
6 2 116 -99 244 -224 406 -396 497 -472 564 -473 67 0 143 103 242 332 36 84
67 155 69 157 6 7 162 -150 185 -186 28 -45 53 -50 97 -19 46 32 86 79 236
280 130 176 175 242 326 486 125 200 162 253 171 243 13 -16 99 -352 124 -488
14 -77 30 -156 35 -175 6 -19 10 -40 10 -46 0 -6 -48 -24 -107 -39 -209 -54
-336 -107 -425 -177 -50 -39 -51 -73 -3 -117 19 -17 35 -35 35 -40 0 -4 -39
-16 -87 -25 -236 -47 -393 -127 -445 -230 -44 -87 -24 -193 123 -630 39 -114
68 -210 66 -212 -5 -6 -236 177 -347 276 -50 44 -96 80 -101 80 -6 0 -19 -5
-30 -10 -25 -14 -24 -46 2 -140 36 -130 59 -268 59 -356 l0 -86 -44 54 c-67
79 -129 187 -201 349 -108 240 -205 428 -240 465 -39 41 -73 43 -92 4 -6 -14
-27 -56 -46 -95 -19 -38 -66 -121 -106 -184 -91 -147 -115 -207 -116 -292 0
-60 3 -71 38 -120 20 -30 73 -94 118 -144 91 -101 224 -274 414 -540 174 -241
304 -402 442 -546 106 -109 118 -119 152 -119 20 0 41 4 48 8 24 15 31 56 21
117 -15 82 3 216 57 425 23 94 45 174 48 176 3 3 26 -11 53 -31 66 -50 140
-86 321 -155 85 -33 180 -74 212 -91 63 -35 105 -35 116 -1 3 11 -13 109 -35
220 -22 111 -70 381 -105 601 -63 387 -120 702 -149 826 -8 33 -13 61 -12 62
3 3 101 -168 217 -379 54 -97 121 -212 150 -255 62 -92 198 -231 252 -257 34
-16 41 -16 61 -3 18 12 26 33 39 110 26 144 46 352 54 550 3 97 7 177 7 177 1
0 107 -27 236 -59 129 -33 263 -63 298 -67 34 -3 62 -10 62 -14 0 -5 -44 -86
-99 -182 -123 -216 -135 -241 -227 -452 -62 -140 -112 -243 -130 -265 -1 -1
-26 5 -54 14 -73 24 -189 18 -255 -15 -113 -55 -177 -163 -178 -300 -1 -219
149 -403 363 -443 l59 -11 25 -82 c14 -45 51 -142 81 -215 30 -73 55 -137 55
-141 0 -4 -8 -8 -18 -8 -31 0 -253 57 -418 109 -89 27 -229 65 -312 84 -149
35 -219 63 -293 117 -39 28 -68 30 -88 6 -30 -37 -279 -660 -342 -854 -23 -72
-43 -131 -44 -130 -2 2 -19 53 -40 113 -55 165 -117 288 -178 350 -60 62 -100
77 -127 49 -39 -42 -105 -294 -175 -676 -51 -278 -72 -355 -151 -572 -31 -83
-73 -199 -93 -258 -20 -59 -38 -107 -41 -108 -5 0 -48 62 -186 275 -66 103
-108 150 -283 328 -113 114 -211 207 -217 207 -34 0 -56 -37 -70 -117 -7 -45
-23 -105 -34 -133 -16 -41 -20 -73 -20 -173 l1 -122 29 55 c16 30 46 99 66
153 21 53 41 97 46 97 4 0 55 -46 114 -102 117 -113 261 -280 347 -404 82
-118 132 -175 174 -201 75 -45 97 -29 132 99 12 42 60 179 107 304 98 261 128
370 179 649 42 232 94 466 104 478 14 14 75 -65 124 -159 40 -79 119 -296 141
-387 7 -29 38 -47 67 -40 22 6 32 33 59 158 31 141 107 371 194 586 117 291
119 295 165 318 80 41 235 23 441 -52 52 -19 145 -45 205 -57 61 -12 156 -34
212 -50 95 -27 228 -50 296 -52 38 -1 60 27 52 67 -3 16 -39 113 -79 215 -85
212 -114 302 -98 308 31 10 97 69 123 110 45 72 62 141 57 236 -6 99 -34 174
-94 256 l-45 61 30 52 c16 29 52 106 81 172 92 212 155 339 260 521 129 224
144 257 130 284 -12 22 -5 21 -189 49 -74 11 -224 44 -334 73 l-199 53 7 235
c13 482 14 468 -18 496 -39 33 -96 31 -199 -6 -45 -16 -87 -30 -93 -30 -13 0
-24 41 -65 247 -16 79 -49 216 -74 305 -25 90 -50 187 -57 216 -14 65 -40 85
-84 60z m500 -889 c4 -11 2 -132 -4 -267 -6 -136 -16 -373 -21 -526 -14 -363
-41 -646 -64 -646 -18 0 -115 111 -171 195 -29 44 -90 150 -135 235 -46 85
-111 203 -146 262 -90 152 -118 211 -163 341 -22 64 -47 127 -56 141 -16 23
-15 25 7 40 53 35 162 76 293 110 180 47 322 91 377 116 55 25 75 25 83 -1z
m-856 -486 c29 -73 174 -796 226 -1128 20 -126 52 -324 71 -438 20 -115 34
-210 32 -213 -7 -6 -276 94 -358 133 -56 28 -94 56 -152 115 -101 102 -138
102 -153 1 -4 -26 -29 -136 -56 -243 -50 -201 -68 -302 -69 -380 l0 -44 -61
59 c-87 85 -234 271 -394 496 -76 107 -186 253 -244 324 -59 72 -122 150 -141
175 -19 25 -60 74 -91 110 -80 93 -89 109 -89 160 0 56 30 120 138 297 l80
133 34 -63 c19 -34 53 -102 75 -152 23 -49 64 -139 91 -200 92 -202 169 -321
270 -417 66 -63 111 -77 131 -40 34 63 32 289 -3 445 -7 31 -11 57 -7 57 12
-1 303 -239 371 -303 38 -37 77 -67 85 -67 34 0 55 20 55 52 0 17 -42 157 -94
312 -117 346 -178 556 -180 618 -1 60 23 87 129 139 71 35 232 86 276 88 9 1
22 -11 28 -26z m1026 -1397 c181 -100 232 -335 103 -481 -46 -52 -92 -70 -156
-60 -62 9 -115 37 -174 93 -72 67 -100 129 -106 227 -4 73 -1 85 25 135 42 80
104 120 187 120 50 0 71 -6 121 -34z"/>
<path d="M8731 17368 c-96 -15 -172 -74 -213 -166 -81 -183 42 -383 221 -358
55 8 135 44 179 80 111 95 123 283 24 378 -63 61 -122 79 -211 66z m145 -121
c39 -42 59 -102 50 -150 -16 -85 -106 -158 -205 -165 -50 -4 -61 -1 -88 22
-40 34 -56 83 -51 157 3 47 10 66 34 96 47 57 107 85 173 80 47 -3 59 -9 87
-40z"/>
<path d="M9966 17355 c-135 -55 -208 -185 -172 -307 21 -72 64 -121 139 -158
119 -58 258 -48 331 25 75 74 99 230 52 330 -45 95 -111 135 -223 135 -49 0
-85 -7 -127 -25z m217 -83 c18 -10 43 -34 55 -53 47 -67 13 -221 -58 -262 -18
-11 -50 -17 -92 -17 -157 0 -255 112 -204 233 17 43 87 102 134 116 50 14 127
6 165 -17z"/>
<path d="M12329 17336 c-118 -42 -199 -185 -169 -297 27 -101 119 -190 205
-200 29 -4 30 -2 33 37 3 39 1 42 -27 47 -16 4 -45 20 -64 37 -67 59 -85 140
-46 210 22 39 91 90 121 90 15 0 18 8 18 45 0 51 -8 54 -71 31z"/>
<path d="M7635 17217 c-79 -31 -146 -89 -181 -157 -24 -46 -24 -143 -1 -187
28 -53 96 -111 150 -129 90 -30 216 -7 296 53 99 75 94 249 -9 353 -72 71
-174 98 -255 67z m169 -107 c60 -38 92 -102 82 -164 -9 -56 -27 -80 -79 -105
-86 -42 -203 -20 -261 50 -25 29 -28 39 -24 81 6 54 41 107 98 146 50 34 123
31 184 -8z"/>
<path d="M12206 16694 c-96 -35 -156 -122 -156 -225 0 -90 36 -154 109 -197
37 -22 58 -27 111 -27 36 0 80 6 98 14 30 12 32 17 32 61 l0 48 -37 -19 c-49
-25 -129 -25 -166 0 -80 52 -87 156 -16 229 54 55 117 63 202 27 15 -6 17 -1
17 38 0 45 -1 46 -37 56 -51 15 -110 13 -157 -5z"/>
<path d="M12355 15626 c-71 -32 -94 -89 -106 -270 -21 -309 -21 -454 0 -756
11 -162 23 -362 26 -445 4 -82 13 -215 22 -294 9 -89 12 -172 8 -217 -6 -70
-6 -73 19 -89 24 -16 28 -16 51 -1 25 16 25 18 25 154 0 76 -4 173 -10 217 -5
44 -14 197 -20 340 -6 143 -15 316 -21 384 -16 182 -16 410 0 636 11 165 17
205 32 227 13 18 19 44 19 78 0 55 -1 55 -45 36z"/>
<path d="M4318 15575 c-9 -20 -8 -50 5 -138 40 -268 23 -322 -148 -459 -103
-83 -137 -136 -115 -179 11 -20 18 -21 79 -16 224 20 213 20 261 -5 56 -29 84
-78 140 -244 22 -66 47 -129 55 -141 20 -28 51 -34 75 -15 16 14 23 41 35 149
28 248 65 283 313 299 69 5 105 3 121 -5 30 -17 71 9 71 45 0 34 -29 60 -205
177 -82 55 -153 103 -157 106 -9 8 59 239 91 315 23 53 20 80 -10 97 -28 14
-57 2 -74 -31 -37 -71 -151 -160 -206 -160 -42 0 -105 48 -182 139 -66 77 -82
91 -107 91 -23 0 -33 -6 -42 -25z m242 -285 c50 -25 120 -28 172 -6 21 9 39
16 42 16 7 0 -20 -93 -37 -127 -10 -18 -17 -38 -17 -46 0 -22 49 -61 150 -122
52 -31 99 -60 104 -65 10 -10 -9 -15 -89 -25 -150 -20 -218 -82 -255 -233
l-12 -54 -24 58 c-68 168 -144 222 -297 211 -37 -2 -66 -1 -65 3 2 3 32 31 68
61 118 99 159 192 145 328 -3 36 -9 75 -12 86 -4 14 7 8 40 -22 25 -23 64 -51
87 -63z"/>
<path d="M32 15113 c-31 -4 -32 -5 -32 -56 l0 -52 93 0 c87 0 96 -2 172 -40
161 -80 306 -261 454 -565 225 -463 248 -806 68 -1034 -42 -53 -136 -120 -203
-146 -185 -69 -378 -32 -527 100 l-57 52 0 -70 c0 -67 2 -72 32 -98 47 -40
183 -100 256 -115 184 -35 397 33 538 175 126 126 176 262 177 481 0 154 -22
272 -83 449 -68 196 -184 416 -308 583 -72 97 -206 223 -283 266 -95 52 -213
80 -297 70z"/>
<path d="M6244 14710 c-93 -19 -161 -65 -195 -133 -16 -31 -20 -54 -17 -101 9
-141 134 -226 289 -195 124 24 204 110 203 219 -1 143 -130 239 -280 210z
m126 -98 c23 -12 43 -35 58 -65 21 -40 22 -51 13 -80 -50 -151 -326 -136 -326
18 0 55 26 92 85 123 54 27 122 29 170 4z"/>
<path d="M205 14437 c-63 -30 -134 -106 -174 -185 l-31 -61 0 -184 0 -184 28
-39 c73 -99 182 -168 307 -194 162 -33 327 40 385 173 64 144 -25 431 -180
587 -80 82 -124 103 -215 108 -58 2 -79 -1 -120 -21z m207 -104 c77 -48 181
-216 214 -346 46 -179 -41 -301 -216 -301 -64 0 -85 4 -140 31 -36 17 -84 47
-107 67 -52 46 -103 144 -103 200 0 98 52 226 122 303 79 85 147 99 230 46z"/>
<path d="M5904 14175 c-43 -19 -78 -64 -104 -132 -35 -95 -26 -175 28 -226 73
-70 225 -94 309 -49 122 64 136 239 28 347 -67 67 -183 94 -261 60z m154 -86
c59 -29 95 -85 94 -146 -1 -84 -35 -113 -134 -113 -61 0 -108 19 -137 56 -56
71 21 224 113 224 11 0 39 -10 64 -21z"/>
<path d="M7348 12965 c-86 -31 -147 -104 -173 -202 -28 -107 13 -205 108 -256
60 -32 204 -32 263 0 51 27 100 83 128 142 27 61 28 162 2 214 -20 40 -79 86
-135 105 -45 16 -147 14 -193 -3z m202 -99 c79 -52 88 -123 26 -212 -59 -87
-153 -115 -243 -74 -98 44 -110 152 -27 249 62 74 164 90 244 37z"/>
<path d="M6570 12834 c-63 -22 -105 -57 -137 -112 -23 -39 -28 -59 -28 -113 0
-56 5 -77 35 -135 54 -106 133 -148 234 -125 104 23 172 96 204 216 14 55 15
71 4 112 -18 66 -52 107 -115 137 -69 34 -138 41 -197 20z m174 -108 c73 -56
82 -124 26 -207 -52 -79 -138 -109 -200 -72 -42 25 -80 100 -80 159 0 59 23
98 77 131 52 33 126 28 177 -11z"/>
<path d="M7818 12577 c-53 -20 -93 -56 -125 -112 -24 -44 -28 -60 -28 -130 0
-62 6 -92 24 -133 41 -92 132 -151 232 -152 159 0 292 127 292 280 0 99 -51
178 -148 228 -61 31 -187 41 -247 19z m197 -86 c132 -61 154 -213 43 -306
-102 -86 -231 -66 -288 45 -24 47 -27 147 -6 188 18 34 54 68 86 81 41 16 122
12 165 -8z"/>
<path d="M7027 12479 c-169 -39 -247 -238 -160 -408 35 -66 89 -107 165 -122
50 -10 65 -9 128 10 56 17 81 32 115 66 93 92 99 265 14 369 -54 65 -176 104
-262 85z m161 -111 c116 -77 101 -246 -28 -317 -83 -46 -172 -24 -218 55 -19
32 -22 51 -20 109 4 77 31 130 85 167 41 28 128 21 181 -14z"/>
<path d="M9982 12434 c-164 -81 -227 -307 -119 -422 48 -52 94 -67 202 -67
116 0 165 17 228 81 59 59 70 88 65 159 -17 207 -208 333 -376 249z m174 -73
c51 -23 93 -77 110 -141 16 -62 10 -86 -35 -133 -80 -84 -223 -88 -303 -7 -32
31 -38 44 -38 79 0 72 62 165 133 200 52 26 80 26 133 2z"/>
<path d="M11697 12390 c-140 -36 -242 -161 -241 -300 0 -76 24 -130 79 -178
60 -54 113 -75 195 -80 87 -5 163 18 233 72 151 115 118 375 -57 461 -61 30
-148 40 -209 25z m181 -104 c42 -22 89 -96 98 -153 17 -117 -67 -206 -209
-220 -45 -4 -61 0 -117 29 -84 43 -110 80 -110 158 0 81 37 135 122 180 75 40
147 42 216 6z"/>
<path d="M12350 12197 c-55 -26 -129 -99 -153 -150 -10 -20 -23 -61 -29 -90
-27 -126 58 -244 210 -291 21 -7 22 -4 22 38 0 42 -2 45 -34 56 -76 25 -135
119 -120 195 10 53 59 123 109 153 41 25 44 30 45 70 0 23 -1 42 -2 42 -2 -1
-23 -11 -48 -23z"/>
<path d="M10599 12124 c-64 -22 -138 -81 -163 -129 -93 -180 73 -427 286 -428
84 0 138 24 193 85 177 197 66 476 -195 485 -49 2 -91 -3 -121 -13z m178 -79
c162 -48 190 -246 50 -359 -34 -27 -46 -31 -101 -31 -52 0 -71 5 -111 30 -89
55 -135 149 -114 229 19 71 62 111 149 140 29 9 77 6 127 -9z"/>
<path d="M9601 11938 c-122 -21 -216 -131 -228 -267 -18 -195 156 -321 351
-255 69 24 150 102 172 166 64 195 -97 391 -295 356z m118 -92 c62 -32 111
-115 111 -186 -1 -100 -116 -190 -226 -177 -52 5 -83 24 -119 71 -32 42 -36
124 -9 181 46 98 164 151 243 111z"/>
<path d="M10083 11633 c-42 -8 -111 -82 -149 -157 -86 -175 -42 -328 110 -385
127 -47 269 -15 328 75 131 197 3 475 -217 472 -27 0 -60 -3 -72 -5z m132 -92
c47 -22 99 -74 114 -114 19 -49 13 -128 -14 -185 -39 -83 -117 -110 -219 -76
-26 9 -65 33 -87 54 -33 31 -39 43 -39 78 0 85 68 213 130 244 44 23 65 22
115 -1z"/>
<path d="M1066 7744 c-18 -18 -19 -20 -40 -176 -9 -64 -37 -194 -61 -290 -25
-95 -63 -245 -86 -333 -22 -88 -49 -214 -59 -280 l-17 -120 -54 55 c-30 31
-109 141 -178 250 -117 184 -358 542 -505 749 l-66 94 0 -89 0 -89 67 -95 c95
-137 353 -521 458 -685 100 -155 194 -259 267 -294 84 -40 118 -15 118 88 0
86 28 247 71 417 22 88 63 245 89 349 27 105 49 192 50 195 0 3 34 -58 76
-135 172 -316 488 -1049 635 -1473 54 -155 79 -204 129 -245 57 -49 77 -34
134 99 76 180 281 544 296 527 18 -18 55 -427 70 -753 6 -124 15 -281 20 -350
6 -69 14 -200 20 -292 7 -135 13 -177 31 -218 35 -81 112 -140 230 -174 131
-38 200 -47 449 -56 278 -10 374 -21 673 -80 109 -22 236 -45 283 -52 46 -7
84 -16 84 -20 0 -22 -55 -114 -122 -204 -201 -270 -519 -737 -615 -904 -31
-52 -80 -134 -110 -182 -67 -108 -97 -188 -90 -245 7 -63 54 -153 164 -319 55
-82 155 -250 223 -374 148 -270 184 -330 315 -526 104 -154 175 -282 175 -315
0 -27 -38 -34 -170 -32 -140 2 -305 23 -550 70 -123 23 -220 36 -290 38 -99 2
-110 5 -177 39 -80 40 -122 45 -145 19 -23 -26 -51 -109 -124 -362 -91 -316
-126 -419 -212 -631 -72 -179 -122 -314 -122 -332 0 -5 23 -8 51 -6 l51 3 33
90 c17 50 58 153 90 230 75 181 102 261 181 535 72 250 113 380 120 380 3 0
32 -14 66 -32 56 -29 73 -33 190 -40 71 -4 204 -21 296 -38 333 -60 638 -86
714 -61 52 17 85 46 98 86 22 66 -12 144 -171 390 -78 121 -207 337 -287 480
-79 143 -195 337 -257 430 -147 221 -158 245 -153 310 4 45 23 81 163 310 200
328 342 538 668 991 52 72 99 179 105 234 6 61 -2 65 -150 85 -62 8 -203 33
-313 55 -308 63 -370 70 -655 80 -357 13 -491 39 -568 110 -64 62 -70 86 -82
343 -36 779 -52 1003 -91 1272 -27 190 -34 213 -65 221 -17 4 -31 1 -45 -12
-48 -43 -268 -414 -351 -593 -37 -78 -52 -101 -59 -90 -5 8 -25 64 -45 124
-45 136 -198 522 -314 795 -129 302 -219 493 -319 680 -88 162 -151 302 -151
334 0 20 -35 56 -54 56 -8 0 -22 -7 -30 -16z"/>
<path d="M12133 7005 c-52 -36 -158 -231 -293 -537 -98 -220 -157 -333 -308
-583 -194 -322 -321 -605 -377 -833 l-18 -74 -29 44 c-16 24 -50 84 -75 133
-25 50 -52 98 -61 108 -25 28 -60 21 -82 -15 -28 -46 -73 -189 -105 -338 -15
-69 -29 -127 -32 -129 -2 -3 -20 11 -41 30 -20 20 -80 71 -132 114 -210 175
-399 382 -618 677 -183 248 -319 380 -371 363 -11 -3 -33 -29 -49 -58 -45 -79
-139 -333 -179 -481 -19 -72 -75 -268 -124 -436 -91 -316 -147 -532 -170 -658
l-13 -74 -80 7 c-138 12 -224 48 -317 132 -22 20 -47 49 -55 65 -15 28 -45 37
-72 19 -13 -8 -59 -175 -121 -437 -17 -72 -47 -181 -66 -242 l-35 -111 -31 11
c-16 6 -58 8 -92 6 -80 -5 -159 -42 -313 -146 -66 -45 -146 -93 -179 -108 -65
-30 -75 -38 -75 -70 0 -22 75 -136 198 -297 41 -55 70 -102 66 -107 -70 -63
-169 -139 -249 -192 -69 -46 -170 -132 -325 -277 -124 -116 -226 -216 -228
-224 -6 -26 34 -57 118 -93 198 -83 233 -95 307 -104 343 -42 472 -54 572 -53
112 2 171 -11 171 -37 0 -5 -11 -78 -25 -162 -97 -600 -120 -1189 -57 -1497
25 -126 51 -131 167 -33 39 32 125 95 192 140 151 101 276 201 463 372 80 73
267 230 416 350 149 120 313 255 364 299 51 45 95 79 97 78 2 -2 -68 -219
-155 -481 -169 -512 -170 -517 -111 -524 19 -2 34 6 55 31 16 19 58 69 94 112
36 42 126 132 199 199 74 66 209 188 300 270 220 200 1041 1028 1109 1119 30
40 58 72 61 72 3 0 173 -83 376 -184 318 -157 486 -246 583 -309 22 -14 22
-14 22 46 l0 60 -72 43 c-40 24 -246 130 -458 236 -212 105 -432 221 -489 258
-57 36 -114 65 -126 65 -18 0 -43 -26 -106 -108 -190 -246 -356 -437 -773
-887 -254 -273 -499 -547 -575 -642 -19 -24 -36 -42 -37 -40 -11 11 273 839
355 1036 36 87 37 92 11 116 -33 30 -66 13 -96 -50 -62 -126 -222 -274 -630
-583 -264 -199 -370 -292 -664 -577 -250 -244 -457 -435 -470 -435 -12 0 -19
50 -31 220 -23 330 31 959 123 1410 23 115 24 148 5 167 -23 23 -149 34 -504
43 -194 5 -390 14 -435 20 -89 12 -188 39 -188 51 0 4 13 18 29 31 16 13 98
89 183 169 97 91 200 177 274 228 66 45 143 103 173 128 l55 46 23 -29 c13
-16 92 -130 175 -254 208 -309 334 -475 456 -602 115 -119 237 -218 269 -218
35 0 42 22 53 151 11 128 36 344 46 391 l5 27 92 -66 c51 -37 157 -131 236
-210 79 -79 152 -143 162 -143 9 0 24 7 33 15 20 20 51 124 77 255 11 58 23
119 27 137 l7 32 65 -50 c76 -60 199 -121 290 -145 87 -24 243 -23 335 0 39
10 112 38 164 63 236 113 363 344 380 688 l6 129 77 -87 c43 -47 118 -147 167
-220 49 -74 102 -144 117 -156 32 -25 66 -27 85 -4 19 22 25 319 10 495 -6 72
-9 133 -7 135 10 10 305 -228 432 -349 99 -94 132 -90 154 20 43 216 111 485
252 1002 196 724 258 1004 258 1170 0 61 -1 110 -2 111 -2 1 -100 4 -218 9
-118 4 -237 13 -264 19 -26 6 -100 33 -165 58 -89 36 -132 48 -186 51 -88 5
-95 -2 -106 -106 -4 -42 -15 -122 -24 -177 -23 -148 -30 -520 -15 -810 7 -135
11 -248 8 -250 -3 -3 -43 54 -89 126 -144 224 -200 299 -227 306 -43 10 -58
-21 -66 -134 -6 -97 -36 -345 -41 -351 -4 -4 -140 213 -203 325 -109 190 -152
305 -152 400 0 91 -33 94 -175 19 -216 -114 -448 -274 -453 -313 -2 -13 11
-42 30 -70 40 -58 357 -587 354 -590 -1 -2 -18 2 -37 7 -52 15 -179 12 -240
-6 -128 -38 -306 -161 -403 -280 -30 -37 -52 -57 -54 -49 -5 22 27 230 50 325
11 47 45 154 76 239 60 169 60 171 1 206 -31 19 -52 20 -274 20 -265 0 -303
-6 -384 -65 -40 -29 -81 -96 -95 -153 -13 -55 -7 -183 14 -297 12 -66 25 -194
30 -300 5 -102 16 -250 25 -329 8 -79 13 -146 11 -148 -8 -8 -84 96 -135 185
-27 48 -73 139 -101 202 -28 63 -56 120 -62 127 -17 21 -55 15 -76 -12 -28
-36 -78 -179 -101 -288 -18 -89 -19 -91 -31 -62 -26 65 -63 176 -101 310 -41
145 -75 229 -107 270 -19 24 -19 25 19 137 21 61 64 217 95 345 31 128 59 233
63 233 4 0 33 -20 63 -43 106 -82 230 -119 403 -121 130 -1 154 9 179 76 9 24
39 165 66 313 66 350 111 560 165 772 53 205 152 513 165 513 23 0 157 -155
272 -313 130 -177 301 -382 417 -497 36 -36 122 -112 191 -170 69 -58 153
-131 187 -162 69 -64 103 -73 127 -35 8 12 29 89 46 172 35 171 62 275 70 275
3 -1 27 -39 54 -85 63 -108 142 -195 178 -195 14 0 30 6 36 13 5 6 19 62 31
122 49 247 170 525 385 883 154 257 210 363 301 572 76 173 181 387 208 424
12 17 17 8 45 -90 18 -60 50 -183 72 -274 23 -91 64 -250 93 -355 l52 -190 3
180 2 181 -58 234 c-81 321 -127 465 -154 485 -27 19 -29 19 -55 0z m-376
-1835 c148 -60 205 -70 400 -70 83 0 154 -3 156 -7 7 -12 -73 -401 -126 -613
-25 -102 -99 -383 -165 -625 -66 -242 -139 -521 -162 -620 -67 -284 -58 -259
-79 -243 -10 7 -54 44 -97 82 -90 78 -383 300 -426 322 -31 16 -61 7 -72 -22
-3 -8 1 -67 9 -130 21 -160 32 -464 17 -464 -7 0 -12 4 -12 9 0 19 -103 164
-186 262 -137 160 -150 179 -219 316 -57 113 -75 139 -154 221 -102 106 -130
146 -322 466 -76 127 -148 245 -159 262 l-20 32 87 59 c49 33 139 90 202 126
l115 67 33 -101 c47 -145 174 -378 336 -617 92 -135 119 -158 156 -135 21 13
27 42 54 276 l22 199 111 -169 c157 -238 205 -287 258 -267 27 10 28 65 11
411 -20 390 -16 628 15 838 11 77 20 152 20 168 0 28 1 29 38 22 20 -3 92 -29
159 -55z m-2033 -1109 c3 -4 -13 -60 -35 -122 -95 -268 -129 -502 -144 -1014
-11 -364 -37 -603 -86 -788 l-10 -38 -117 112 c-64 62 -157 142 -207 179 -90
66 -101 81 -148 188 -11 24 -44 29 -69 10 -11 -10 -17 -39 -22 -107 -3 -52
-15 -163 -26 -245 -11 -83 -23 -182 -28 -221 l-7 -70 -115 115 c-131 131 -212
234 -400 510 -73 107 -202 288 -287 402 -217 294 -281 390 -264 396 7 2 73 44
147 93 185 123 227 143 295 143 109 1 162 -69 221 -292 36 -133 158 -486 206
-595 19 -43 24 -47 55 -47 23 0 37 6 41 16 3 9 6 74 6 146 0 126 23 283 51
355 11 27 13 25 59 -74 93 -196 215 -351 308 -390 30 -12 37 -12 58 2 22 14
24 22 24 103 0 48 -7 146 -15 217 -9 72 -20 213 -25 315 -5 102 -18 244 -30
315 -47 279 -9 368 163 384 119 10 395 12 401 2z m651 -456 c260 -68 386 -291
372 -660 -8 -209 -49 -340 -145 -461 -111 -140 -364 -235 -549 -205 -113 18
-250 86 -343 168 -82 73 -82 77 -70 350 11 240 22 315 60 400 59 134 201 288
327 355 123 66 232 83 348 53z"/>
<path d="M10140 3323 c-96 -33 -196 -117 -238 -200 -52 -101 -68 -257 -37
-360 72 -241 404 -356 579 -201 132 115 154 380 50 593 -77 156 -209 219 -354
168z m159 -103 c95 -48 160 -190 161 -347 0 -138 -43 -228 -127 -265 -127 -56
-319 38 -367 179 -9 26 -16 79 -16 118 0 60 5 81 34 140 38 80 100 145 166
174 57 26 100 26 149 1z"/>
<path d="M0 6858 l0 -93 104 -155 c58 -85 162 -227 231 -315 163 -207 274
-359 332 -454 130 -213 241 -369 322 -453 122 -125 141 -121 190 40 37 119 53
198 85 422 30 200 66 374 76 363 19 -21 176 -515 231 -723 34 -129 82 -309
105 -400 24 -91 54 -210 65 -265 12 -55 26 -106 31 -112 31 -39 100 5 294 189
l71 68 7 -32 c7 -34 21 -312 31 -628 8 -255 14 -328 30 -344 17 -17 41 -20
362 -51 144 -14 344 -38 444 -55 101 -16 193 -30 206 -30 13 0 23 -2 23 -4 0
-2 -51 -80 -113 -173 -136 -203 -235 -368 -393 -652 l-119 -214 -18 164 c-11
102 -19 264 -20 429 -4 279 -13 349 -49 374 -33 24 -57 6 -120 -88 -58 -85
-284 -326 -306 -326 -11 0 -123 170 -261 393 -48 78 -114 177 -146 219 -33 42
-68 88 -78 103 -15 21 -26 26 -50 23 -28 -3 -32 0 -35 22 -31 306 -136 763
-187 820 -53 58 -106 -8 -285 -353 l-102 -198 -40 81 c-48 99 -147 208 -254
279 -40 27 -78 51 -86 53 -21 7 4 45 100 150 106 116 135 174 136 272 0 81
-19 148 -72 250 -110 211 -332 333 -639 353 l-103 6 0 -50 0 -50 108 -11 c255
-28 426 -115 523 -265 80 -123 102 -243 61 -323 -11 -22 -61 -83 -110 -136
-85 -92 -132 -163 -132 -202 0 -34 20 -54 93 -94 233 -128 352 -325 317 -523
-18 -99 -64 -184 -145 -264 -151 -151 -347 -204 -595 -160 -124 22 -120 23
-120 -34 l0 -48 58 -13 c31 -6 114 -14 183 -17 146 -6 235 9 338 57 35 17 65
29 67 27 9 -8 -70 -297 -131 -487 -73 -224 -78 -271 -36 -314 20 -20 31 -21
179 -21 184 0 225 12 260 73 32 57 41 106 51 270 12 181 29 234 85 257 38 16
103 20 123 7 15 -9 4 -151 -31 -397 -14 -99 -28 -220 -32 -270 -9 -132 -14
-129 188 -135 l163 -5 12 -118 c6 -64 10 -194 9 -288 -2 -194 -1 -199 68 -199
74 0 148 -19 196 -50 55 -36 71 -37 96 -9 25 27 31 182 15 386 -7 82 -14 186
-17 233 l-5 85 45 -70 c25 -38 53 -90 63 -115 22 -59 31 -70 58 -70 31 0 47
21 103 141 27 58 54 109 59 112 13 8 21 -71 34 -361 11 -243 4 -343 -27 -404
-8 -15 -14 -41 -14 -58 0 -49 31 -57 136 -35 75 16 97 17 165 6 83 -13 111 -7
123 26 14 35 28 237 34 488 l7 260 57 -80 c31 -44 89 -134 129 -200 113 -187
164 -260 279 -400 59 -71 123 -155 143 -185 l37 -55 -127 -7 c-71 -3 -267 -9
-438 -13 -170 -4 -318 -12 -327 -16 -23 -12 -33 -63 -73 -376 -19 -150 -42
-307 -51 -349 -17 -86 -46 -165 -59 -165 -5 0 -38 68 -75 153 -184 424 -406
798 -558 941 -59 54 -60 54 -157 -10 -33 -22 -117 -72 -187 -112 -70 -40 -153
-91 -186 -115 -67 -49 -405 -337 -473 -403 -45 -43 -46 -44 -52 -21 -4 13 -12
105 -18 204 -16 258 0 519 45 769 18 105 37 222 40 260 7 76 -7 202 -27 244
-25 54 -98 36 -327 -79 -237 -119 -220 -106 -220 -172 0 -32 2 -58 4 -58 3 0
67 34 143 76 156 86 304 154 317 146 15 -9 -2 -231 -27 -367 -44 -226 -51
-316 -51 -615 0 -392 29 -610 83 -610 12 0 57 38 113 96 51 53 131 128 178
167 47 40 131 111 186 158 141 121 193 157 340 242 71 40 145 83 164 95 19 12
40 22 45 22 11 0 89 -93 146 -176 133 -189 320 -552 444 -859 27 -66 55 -128
63 -137 36 -43 86 -5 138 107 54 116 80 237 119 555 14 113 28 225 33 250 l8
45 64 -3 c36 -2 164 2 285 8 121 6 311 15 423 18 164 6 205 10 212 22 17 26
11 58 -14 77 -13 10 -54 60 -91 112 -37 52 -111 149 -164 216 -126 157 -171
221 -271 385 -45 74 -107 170 -137 213 l-55 78 33 62 c192 364 438 767 610
1000 33 43 59 88 59 100 0 45 -11 49 -136 52 -75 2 -184 14 -296 34 -134 23
-583 71 -666 71 -13 0 -19 88 -33 480 -11 317 -26 491 -51 565 -11 33 -18 41
-41 43 -25 3 -48 -16 -180 -144 l-151 -148 -33 135 c-94 376 -224 834 -308
1084 -51 154 -101 316 -110 360 -11 52 -24 86 -37 98 -44 38 -78 9 -78 -68 0
-29 -12 -93 -26 -141 -42 -142 -51 -183 -89 -435 -39 -252 -73 -410 -90 -416
-23 -7 -164 186 -318 437 -79 129 -157 237 -320 442 -75 95 -205 273 -287 396
l-150 223 0 -93z m1315 -2145 c109 -373 161 -924 153 -1633 l-3 -285 -126 -3
-126 -3 4 53 c3 29 18 148 33 263 50 362 51 453 7 477 -12 6 -64 12 -117 12
-102 1 -150 -15 -197 -66 -52 -56 -83 -188 -83 -363 0 -83 -14 -139 -41 -166
-16 -16 -33 -19 -122 -19 -56 0 -112 3 -123 6 -26 7 -27 2 53 249 30 94 70
235 89 315 47 196 70 255 122 319 54 68 90 140 127 254 15 48 60 152 100 230
119 236 217 417 226 417 4 0 15 -26 24 -57z m360 -907 c23 -34 66 -101 95
-151 91 -156 259 -404 284 -420 15 -10 33 -14 49 -9 42 10 209 157 291 254 41
49 78 85 82 79 3 -6 3 -90 -1 -187 -6 -151 -3 -207 16 -377 20 -171 23 -246
22 -525 0 -179 -5 -363 -9 -410 l-9 -85 -103 0 -104 0 6 35 c21 125 16 304
-19 750 -12 154 -17 177 -35 192 -32 26 -58 11 -90 -53 -17 -32 -48 -86 -70
-120 -22 -34 -45 -77 -52 -95 -7 -19 -15 -34 -19 -34 -10 0 -105 148 -128 200
-11 25 -21 57 -21 72 0 52 -17 78 -50 78 -41 0 -57 -29 -71 -125 -8 -58 -8
-120 0 -225 21 -278 34 -501 29 -505 -2 -2 -22 2 -43 9 -22 8 -61 17 -86 21
l-47 7 -6 181 c-14 378 -18 1279 -6 1382 16 137 19 149 37 133 8 -6 34 -39 58
-72z"/>
<path d="M1208 4429 c-24 -14 -103 -150 -203 -348 -120 -240 -139 -289 -126
-318 l11 -24 207 7 c228 7 250 13 284 67 25 39 22 118 -10 330 -24 157 -48
224 -98 267 -37 33 -40 34 -65 19z m62 -294 c7 -55 18 -131 26 -170 11 -60 11
-73 -1 -92 -14 -20 -24 -22 -147 -25 -73 -2 -135 -2 -138 0 -5 3 107 231 178
362 l46 85 12 -30 c7 -17 18 -75 24 -130z"/>
<path d="M63 5521 c-23 -11 -46 -28 -52 -39 -7 -13 -11 -115 -11 -285 l0 -263
37 -21 c83 -47 211 -51 339 -12 72 22 136 83 153 145 27 96 2 230 -57 317 -56
81 -207 163 -317 173 -36 4 -62 -1 -92 -15z m202 -129 c88 -46 135 -93 158
-157 36 -104 15 -195 -55 -231 -42 -22 -191 -31 -241 -15 -74 25 -77 40 -60
285 9 118 12 131 33 148 31 26 73 18 165 -30z"/>
<path d="M0 4554 c0 -64 -23 -58 235 -59 157 0 173 -2 212 -23 176 -93 218
-293 85 -402 -75 -61 -200 -63 -399 -3 -144 42 -133 43 -133 -15 0 -40 4 -52
17 -56 162 -49 223 -59 353 -60 132 -1 136 0 189 29 104 58 156 156 149 285
-7 118 -65 214 -175 291 -71 49 -137 61 -308 53 -94 -4 -164 -3 -187 4 l-38
10 0 -54z"/>
<path d="M12392 3990 c0 -14 2 -19 5 -12 2 6 2 18 0 25 -3 6 -5 1 -5 -13z"/>
<path d="M12360 3165 c-14 -17 -13 -27 19 -230 l19 -120 1 183 c1 148 -2 182
-13 182 -7 0 -19 -7 -26 -15z"/>
<path d="M11299 1663 c-256 -308 -440 -521 -643 -743 -104 -113 -265 -297
-359 -410 -179 -213 -328 -370 -435 -458 l-63 -52 83 0 84 0 130 133 c72 72
197 212 278 310 81 98 241 280 354 405 210 230 367 411 546 625 54 65 100 116
102 114 2 -2 -1 -19 -6 -37 -19 -65 -29 -273 -20 -410 14 -225 -11 -357 -110
-567 -58 -122 -119 -227 -252 -426 l-99 -148 138 3 137 3 90 125 c170 237 234
364 257 512 13 87 8 159 -26 328 -39 196 -31 380 22 500 l18 42 75 -57 c41
-32 79 -61 83 -65 5 -4 1 -36 -8 -71 -24 -92 -16 -221 20 -319 94 -254 89
-231 89 -395 -1 -134 -3 -160 -28 -239 -32 -105 -76 -204 -134 -299 l-41 -68
62 3 62 3 53 105 c88 176 132 341 132 501 0 115 -21 215 -75 361 -25 65 -47
140 -51 167 -8 63 3 161 19 161 7 -1 54 -39 106 -86 l95 -85 0 -82 c1 -73 6
-95 45 -192 58 -146 68 -215 52 -358 -10 -90 -61 -365 -88 -474 -5 -22 -2 -23
45 -23 l50 0 10 43 c26 102 62 280 76 378 30 203 19 315 -49 474 -25 58 -45
114 -45 125 0 16 39 -15 158 -125 l157 -146 3 116 3 116 -163 172 c-221 234
-363 375 -558 555 -125 116 -170 152 -191 152 -22 0 -53 -32 -190 -197z"/>
<path d="M1379 1201 c-67 -43 -259 -222 -510 -477 -233 -236 -671 -699 -677
-715 -2 -5 27 -9 65 -8 l68 1 180 195 c354 384 905 923 943 923 24 0 326 -553
507 -927 l94 -193 55 0 55 0 -33 73 c-53 114 -302 611 -368 732 -82 150 -217
375 -242 403 -28 32 -81 29 -137 -7z"/>
<path d="M1 478 l-1 -478 23 0 c22 0 23 3 20 63 -1 34 -10 244 -18 467 -9 223
-18 410 -20 415 -2 6 -4 -205 -4 -467z"/>
<path d="M9343 752 c-10 -10 -49 -59 -88 -108 -131 -167 -362 -392 -594 -577
l-83 -67 266 2 267 3 58 170 c85 251 142 372 226 482 41 53 44 76 13 97 -29
21 -44 20 -65 -2z"/>
<path d="M1299 588 c-9 -7 -56 -65 -105 -128 -49 -63 -163 -191 -253 -285
l-165 -170 110 -3 109 -3 197 198 196 198 75 -150 c40 -82 82 -171 92 -197
l18 -48 53 0 53 0 -22 62 c-12 35 -64 147 -115 251 -119 242 -188 320 -243
275z"/>
</g>
</svg>
