<?xml version="1.0" standalone="no"?>
<!DOCTYPE svg PUBLIC "-//W3C//DTD SVG 20010904//EN"
 "http://www.w3.org/TR/2001/REC-SVG-20010904/DTD/svg10.dtd">
<svg version="1.0" xmlns="http://www.w3.org/2000/svg"
 width="1241.000000pt" height="1754.000000pt" viewBox="0 0 1241.000000 1754.000000"
 preserveAspectRatio="xMidYMid meet">
<metadata>
Created by potrace 1.13, written by Peter Selinger 2001-2015
</metadata>
<g transform="translate(0.000000,1754.000000) scale(0.100000,-0.100000)"
fill="#000000" stroke="none">
<path d="M1748 17359 c-29 -16 -21 -52 29 -136 25 -43 74 -136 108 -208 61
-126 175 -402 175 -421 0 -14 -343 -184 -370 -184 -14 0 -193 417 -301 697
-68 178 -84 203 -124 185 -14 -7 -25 -20 -25 -31 0 -43 250 -658 384 -945 25
-55 45 -101 43 -102 -2 -2 -40 3 -85 11 -46 8 -210 30 -365 50 -155 20 -385
51 -512 70 -219 33 -677 95 -696 95 -5 0 -9 -17 -9 -38 l0 -38 108 -13 c59 -6
246 -32 417 -57 171 -25 447 -63 615 -84 309 -40 550 -77 567 -89 9 -6 43 -73
129 -258 l33 -71 -57 4 c-147 13 -356 42 -817 114 -275 44 -599 93 -720 109
-121 17 -232 33 -247 36 -27 4 -28 3 -28 -35 0 -44 0 -44 105 -55 114 -12 411
-56 880 -130 564 -89 667 -103 810 -113 l110 -7 57 -110 57 -110 -22 -18 c-20
-17 -37 -18 -177 -13 -181 7 -308 20 -750 81 -374 50 -562 70 -815 85 -99 6
-197 13 -217 15 l-38 5 0 -39 0 -39 68 -6 c37 -3 168 -13 292 -21 260 -18 399
-33 745 -81 307 -43 582 -74 655 -74 l55 0 -69 -40 c-37 -22 -111 -70 -163
-106 l-96 -67 -156 6 c-235 9 -666 35 -846 52 -88 9 -233 18 -323 22 l-162 6
0 -36 0 -35 62 -6 c35 -3 121 -8 193 -11 72 -3 195 -12 275 -20 80 -8 235 -19
345 -25 221 -11 499 -30 503 -34 1 -2 -25 -24 -57 -50 -33 -25 -84 -69 -114
-96 -48 -43 -60 -49 -103 -51 -27 -2 -233 5 -459 15 -401 16 -560 32 -617 61
l-28 13 0 -61 0 -62 140 -150 c106 -114 137 -152 127 -160 -6 -6 -45 -42 -85
-80 l-72 -69 -48 47 c-26 26 -51 47 -55 47 -4 0 -7 -26 -7 -58 0 -50 4 -62 26
-83 l26 -24 -24 -5 c-20 -5 -23 -13 -26 -54 -3 -47 -2 -48 20 -42 13 3 46 9
73 12 l50 6 110 -112 c119 -120 122 -130 40 -130 -22 0 -94 -9 -160 -20 -66
-11 -123 -20 -127 -20 -5 0 -8 -22 -8 -49 l0 -50 33 10 c55 16 229 39 303 39
66 0 128 -13 147 -30 5 -4 -9 -63 -32 -131 -22 -68 -45 -143 -52 -165 -11 -41
-13 -42 -116 -83 -57 -22 -109 -41 -114 -41 -6 0 -28 14 -49 31 -80 64 -123 2
-118 -167 l3 -89 33 57 c47 80 76 86 140 26 26 -24 101 -88 167 -143 65 -54
180 -155 255 -223 74 -68 216 -185 315 -260 237 -179 265 -206 265 -247 0 -36
-64 -142 -91 -150 -15 -5 -323 78 -557 151 -102 32 -346 120 -479 173 l-53 21
0 -49 c0 -56 -7 -51 163 -112 60 -22 115 -43 123 -47 9 -5 -34 -35 -134 -94
l-147 -86 0 -63 0 -63 145 -38 c87 -23 193 -42 267 -50 68 -7 128 -15 134 -19
16 -9 25 -129 10 -129 -6 0 -64 -20 -129 -44 -64 -24 -171 -56 -237 -70 -210
-47 -195 -40 -195 -91 0 -25 2 -45 3 -45 2 0 83 18 179 39 101 23 218 56 274
79 55 22 118 43 141 47 60 10 66 21 64 128 -2 136 -10 160 -51 173 l-34 11
117 76 117 77 118 -36 c130 -40 169 -44 206 -25 51 28 146 176 146 227 0 32
-26 93 -51 120 l-20 21 53 34 c29 19 107 75 174 125 l121 91 49 -40 c78 -62
121 -81 192 -81 l63 -1 -24 -20 c-61 -51 -334 -270 -437 -350 -63 -50 -176
-142 -250 -205 -379 -322 -510 -427 -1148 -925 -2 -2 -2 -24 0 -50 l3 -47 292
230 c160 126 396 317 525 423 478 396 568 469 758 619 258 203 329 263 535
456 l173 164 48 -21 c55 -25 89 -22 206 17 73 24 78 27 88 62 5 20 10 60 10
89 0 45 5 58 42 105 23 29 106 118 183 197 l142 144 47 -87 c44 -81 47 -89 33
-109 -56 -82 -780 -836 -935 -973 -76 -67 -114 -89 -435 -252 -528 -269 -949
-509 -1031 -588 -83 -79 -113 -173 -96 -296 10 -70 10 -70 -17 -91 -57 -44
-144 -126 -356 -334 l-218 -213 3 -46 3 -46 146 138 c81 77 220 208 309 292
l163 153 58 -118 c32 -65 70 -140 86 -167 l28 -49 -85 -75 c-47 -41 -226 -217
-397 -391 l-313 -316 0 -54 0 -55 357 361 c197 198 386 383 420 412 l61 51 96
-140 97 -141 -48 -54 c-26 -30 -95 -95 -153 -146 -58 -50 -268 -251 -467 -446
l-363 -355 0 -55 0 -55 368 362 c202 200 435 422 517 495 83 73 161 144 174
158 l24 26 66 -87 c40 -52 87 -101 118 -122 29 -19 52 -37 52 -40 0 -3 -22
-23 -50 -45 -27 -22 -176 -173 -332 -335 -155 -162 -410 -425 -567 -585 l-285
-290 -43 2 -42 1 0 -324 0 -324 58 -1 c240 -4 522 -15 528 -22 4 -4 -20 -94
-54 -200 -69 -218 -95 -318 -147 -567 -50 -244 -81 -357 -132 -490 -52 -135
-64 -208 -47 -276 12 -47 11 -49 -33 -133 -25 -47 -56 -101 -68 -118 l-22 -32
-12 212 c-7 116 -19 286 -27 377 -8 91 -14 217 -15 280 0 63 -7 203 -14 310
-12 181 -13 137 -12 -633 l0 -828 89 133 c49 73 112 172 140 221 l51 87 34
-21 c96 -60 215 -97 409 -128 309 -50 413 -75 440 -104 6 -7 17 -39 24 -72 20
-97 74 -219 171 -387 145 -253 186 -393 196 -668 6 -185 -5 -253 -53 -309 -44
-53 -87 -38 -181 63 -104 110 -135 203 -153 453 -5 76 -10 144 -10 151 0 14
-36 52 -49 52 -29 0 -39 -33 -45 -152 -9 -150 -28 -281 -56 -373 -32 -104
-117 -270 -162 -314 -62 -63 -130 -58 -186 13 -68 87 -57 204 52 574 23 81 36
144 36 183 0 54 -2 61 -25 71 -42 19 -58 -10 -100 -182 -85 -348 -166 -515
-273 -562 -51 -23 -101 -19 -162 12 -111 57 -114 193 -9 443 124 294 143 344
147 387 5 52 -11 74 -50 68 -18 -2 -36 -27 -83 -119 -75 -145 -106 -190 -156
-225 -36 -25 -39 -30 -39 -75 0 -27 2 -49 5 -49 3 0 24 9 47 21 28 14 39 17
36 7 -3 -7 -16 -42 -28 -77 -15 -40 -30 -66 -42 -69 -14 -3 -18 -14 -18 -48 0
-24 3 -44 8 -44 4 0 8 -25 9 -55 0 -30 7 -70 13 -90 11 -33 10 -39 -9 -59 -15
-16 -21 -35 -21 -70 l0 -48 41 36 42 35 33 -25 c47 -36 126 -64 182 -64 64 1
123 29 181 89 l49 50 10 -52 10 -52 -55 -60 c-30 -33 -154 -157 -275 -275
l-219 -215 3 -55 3 -55 290 291 291 291 29 -24 c59 -48 129 -66 199 -51 39 8
60 21 95 57 56 58 132 200 177 330 27 80 34 92 40 72 4 -14 20 -50 36 -80 15
-31 28 -64 28 -74 0 -11 -226 -245 -565 -585 l-565 -566 -30 29 -30 29 0 -179
0 -179 64 63 65 64 38 -28 c32 -25 105 -83 212 -171 l25 -22 -70 -74 c-38 -42
-85 -96 -104 -121 -19 -26 -37 -46 -40 -47 -3 0 -45 34 -93 75 -49 41 -90 75
-93 75 -2 0 -4 -24 -4 -53 l0 -52 141 -125 c78 -69 184 -158 236 -197 53 -40
123 -99 158 -131 34 -32 99 -84 143 -116 45 -31 84 -61 87 -66 20 -33 -217
-33 -368 -1 -97 22 -113 28 -155 66 -68 60 -232 195 -237 195 -3 0 -5 -21 -4
-47 0 -47 2 -49 72 -107 l72 -59 -48 6 c-27 4 -60 4 -73 1 -21 -5 -24 -12 -24
-49 l0 -42 108 -6 c61 -3 169 -19 252 -37 301 -65 449 -49 574 61 l44 39 174
0 c116 0 228 -7 334 -20 87 -11 245 -23 349 -26 171 -6 196 -5 247 13 l56 19
7 -40 c51 -322 68 -708 30 -722 -7 -3 -55 9 -106 26 -127 42 -157 45 -282 26
-59 -9 -111 -16 -116 -16 -5 0 -12 28 -15 63 -9 74 -47 193 -82 253 -32 55
-84 100 -143 126 -60 26 -193 21 -262 -10 -92 -40 -165 -127 -209 -249 -18
-51 -38 -78 -114 -156 l-91 -94 -345 -22 c-447 -29 -410 -22 -410 -77 l0 -44
85 6 c70 6 85 4 85 -7 0 -8 33 -40 73 -71 39 -32 97 -80 127 -106 l55 -49
-104 -124 c-58 -68 -108 -128 -113 -134 -5 -5 -48 30 -108 90 l-100 100 0 -55
c0 -55 0 -56 70 -125 39 -38 70 -74 70 -80 0 -6 -32 -49 -70 -94 l-70 -83 0
-72 c1 -70 1 -71 19 -49 266 319 476 563 484 563 5 0 57 -46 116 -102 98 -94
204 -181 233 -190 7 -3 -6 -27 -33 -64 -92 -120 -169 -238 -169 -259 0 -13 7
-28 15 -35 27 -22 59 -2 105 67 25 37 80 115 123 173 l77 105 103 6 c56 3 228
1 382 -4 305 -10 574 -5 985 18 317 17 872 32 1480 40 245 3 468 8 495 11 l50
5 -114 -113 c-113 -111 -191 -214 -191 -249 0 -10 12 -26 27 -36 26 -17 26
-17 57 22 43 53 418 439 432 443 5 1 45 -36 88 -83 l78 -86 -43 -49 c-24 -27
-69 -77 -100 -112 -65 -73 -77 -99 -54 -122 25 -24 44 -20 84 22 66 68 434
464 596 642 216 237 390 420 447 470 l47 41 21 -21 c19 -19 29 -21 82 -15 40
5 59 4 57 -3 -2 -5 -131 -151 -286 -324 -432 -482 -672 -762 -686 -800 -3 -9
0 -24 8 -34 21 -29 45 -10 172 141 131 156 318 368 682 773 185 208 249 272
266 272 13 0 30 3 38 6 11 4 31 -17 66 -67 28 -40 51 -79 51 -86 0 -8 -64 -81
-143 -161 -358 -369 -707 -757 -707 -787 0 -23 17 -45 35 -45 7 0 74 71 151
157 290 329 712 769 724 756 4 -4 35 -50 70 -101 l62 -94 -154 -156 c-84 -86
-212 -215 -283 -287 -184 -183 -235 -267 -182 -299 15 -9 22 -6 38 14 11 14
46 59 78 100 33 41 169 185 304 319 l244 243 57 -80 c31 -44 56 -83 56 -87 0
-8 -76 -89 -255 -271 -153 -156 -196 -242 -127 -252 16 -2 29 10 57 54 21 32
78 99 129 149 50 50 126 129 168 174 l78 82 84 -128 c46 -70 106 -168 133
-218 50 -93 75 -112 109 -85 26 22 15 55 -62 189 -42 73 -74 134 -72 135 100
62 180 108 244 141 81 42 81 42 95 21 7 -12 50 -81 96 -155 l83 -134 -118 -80
c-153 -104 -229 -163 -242 -187 -8 -15 -6 -24 10 -40 28 -28 47 -21 140 50
159 121 790 521 826 524 15 1 41 -57 108 -239 18 -49 36 -97 39 -105 5 -11
-35 -43 -151 -120 -131 -87 -158 -109 -160 -132 -4 -37 28 -55 66 -35 15 8
185 117 377 244 193 126 661 429 1040 673 1162 746 1888 1221 1989 1299 32 25
69 55 83 65 l25 19 58 -64 c33 -35 59 -68 59 -74 0 -5 -32 -30 -71 -54 -39
-25 -170 -116 -292 -204 -344 -249 -831 -570 -1501 -990 -317 -199 -872 -568
-1017 -677 -61 -45 -72 -72 -38 -90 24 -13 38 -7 135 65 155 114 669 454 985
652 644 403 1085 693 1420 934 214 155 374 265 418 288 25 13 24 14 171 -122
l64 -59 -49 -50 c-83 -85 -238 -208 -484 -383 -245 -174 -1544 -1042 -1970
-1316 -319 -204 -320 -206 -320 -228 0 -25 23 -43 46 -34 38 14 364 226 1119
726 817 542 922 613 1217 824 229 163 317 233 419 330 52 49 82 72 91 67 7 -4
55 -46 105 -92 l93 -84 -68 -51 c-37 -28 -242 -193 -457 -366 -483 -390 -799
-638 -1045 -816 -104 -75 -191 -144 -194 -152 -10 -26 13 -55 37 -47 71 22
698 505 1482 1142 110 90 224 179 253 199 l53 37 79 -79 78 -78 -97 -78 c-127
-101 -328 -280 -566 -504 -252 -236 -361 -335 -475 -429 -128 -106 -300 -273
-300 -291 0 -8 9 -19 21 -25 27 -15 51 1 164 110 50 48 131 120 180 160 110
90 123 101 465 421 305 284 406 374 558 498 100 80 104 82 123 65 19 -17 19
-16 19 47 0 63 0 64 -52 116 -29 29 -47 53 -40 53 6 0 30 16 52 36 l40 36 0
153 0 152 -61 48 c-59 46 -61 49 -55 84 3 20 6 44 6 53 0 10 12 24 28 32 15 8
40 26 55 41 l27 28 0 192 0 192 -39 59 c-21 32 -52 76 -70 98 -17 21 -31 42
-31 47 0 4 31 32 69 61 l70 53 0 57 c1 45 -4 62 -23 85 -65 78 -166 217 -166
228 0 8 42 44 94 82 l95 68 0 59 1 58 -32 -24 c-18 -13 -63 -46 -100 -72 l-68
-47 6 253 c5 183 2 319 -10 491 -9 131 -16 283 -16 338 l0 99 110 0 110 0 0
283 c0 282 0 282 -20 257 -11 -14 -22 -33 -26 -42 -3 -10 -9 -18 -13 -18 -4 0
-83 126 -175 279 -92 153 -214 350 -270 437 l-103 159 26 16 c59 36 94 98 103
184 l3 30 28 -47 c37 -63 182 -258 334 -447 l123 -153 0 61 0 61 -122 154
c-130 162 -212 273 -272 368 l-37 58 62 -40 c114 -73 221 -102 285 -75 60 25
72 41 78 103 7 64 -6 257 -19 286 -6 14 -5 17 3 12 9 -5 12 7 12 43 0 42 -3
51 -17 51 -32 0 -146 60 -230 121 -88 64 -119 72 -132 37 -12 -34 3 -58 76
-113 91 -70 197 -186 229 -251 34 -69 31 -156 -6 -186 -72 -58 -230 20 -403
201 -57 60 -78 90 -87 123 -15 60 -23 73 -53 76 -18 2 -29 -3 -37 -18 -14 -26
-5 -71 46 -237 28 -90 37 -137 38 -196 1 -76 0 -79 -30 -107 -57 -50 -159 -48
-222 5 -44 37 -69 106 -101 287 -32 182 -41 208 -74 208 -34 0 -44 -11 -57
-60 -8 -30 -26 -58 -54 -85 -50 -48 -165 -110 -222 -120 -51 -8 -109 14 -119
44 -13 42 33 144 128 285 100 148 137 253 137 382 l0 72 85 42 c154 76 300
192 370 294 22 32 43 53 49 49 25 -16 475 -339 516 -372 25 -20 73 -60 108
-90 l62 -53 0 62 c0 40 -5 67 -13 74 -46 39 -396 297 -509 376 l-136 95 -4 90
c-6 114 -26 160 -157 360 -54 83 -142 231 -196 330 -54 99 -105 191 -115 205
-70 104 -48 90 106 -70 238 -246 318 -332 484 -520 322 -364 541 -610 546
-610 2 0 4 24 4 53 0 52 -2 55 -71 132 -40 44 -178 202 -309 350 -251 286
-342 384 -670 726 -113 118 -227 240 -254 271 l-48 58 57 62 c31 35 60 63 65
63 4 0 57 -52 117 -117 59 -64 212 -213 338 -331 224 -209 386 -371 648 -645
l127 -134 0 57 0 58 -237 245 c-131 135 -337 337 -458 450 -221 206 -356 341
-442 440 -40 46 -45 56 -35 72 6 11 33 57 60 103 l48 84 199 -190 c191 -182
811 -757 848 -786 16 -12 17 -10 17 37 l0 50 -312 288 c-172 159 -404 376
-515 482 l-203 194 17 31 c9 18 33 78 53 134 l36 102 150 -142 c260 -247 380
-350 639 -546 61 -46 116 -88 123 -94 9 -7 12 2 12 40 l0 49 -137 104 c-76 57
-183 142 -238 188 -141 117 -515 472 -515 488 0 13 44 136 56 155 3 5 49 -21
102 -58 136 -94 508 -363 624 -450 53 -40 100 -73 103 -73 3 0 5 21 3 47 l-3
47 -226 165 c-124 91 -300 217 -390 280 -90 63 -167 117 -171 121 -5 3 9 57
30 119 l38 113 59 -44 c33 -24 103 -70 155 -103 52 -33 183 -125 290 -206 107
-80 201 -149 208 -153 9 -5 12 5 12 38 l0 46 -198 148 c-108 81 -240 174 -292
206 -110 68 -210 138 -210 145 0 4 6 27 13 53 l12 46 155 -98 c144 -91 351
-232 463 -316 l47 -36 0 57 c0 43 -4 61 -17 71 -10 8 -75 55 -145 105 -71 50
-128 92 -128 94 0 2 19 25 42 52 34 40 162 227 204 299 10 16 13 17 28 5 15
-12 16 -8 16 48 l0 61 -99 74 -100 73 105 110 104 111 -1 54 0 53 -132 -138
c-73 -75 -136 -137 -141 -137 -4 0 -26 14 -47 31 l-39 31 75 80 c42 44 97 110
123 147 25 36 70 96 100 133 53 66 53 67 58 150 l5 83 -54 38 c-30 21 -77 62
-105 90 l-51 52 100 110 99 110 0 70 -1 70 -31 -35 c-172 -195 -242 -270 -245
-266 -2 2 20 68 50 147 69 181 90 247 171 545 68 249 80 332 57 410 -5 18 -48
83 -95 146 -47 63 -86 121 -86 130 0 8 40 55 90 104 l90 89 0 71 0 70 -243
330 c-325 440 -409 559 -637 894 -308 453 -483 689 -644 868 -36 40 -66 77
-66 83 0 12 115 185 129 193 5 4 31 -29 56 -71 56 -93 130 -191 281 -373 94
-114 382 -498 779 -1040 51 -69 151 -212 223 -319 l132 -194 0 70 0 70 -123
179 c-68 99 -242 339 -388 534 -146 195 -305 411 -354 479 -50 67 -157 205
-238 305 -139 170 -224 288 -278 382 l-23 41 59 71 c33 40 60 72 61 72 2 0 28
-42 60 -92 62 -101 114 -168 375 -484 177 -212 278 -340 612 -769 103 -132
198 -253 212 -270 l25 -30 0 62 c0 57 -3 64 -43 115 -24 29 -113 143 -197 253
-204 265 -350 448 -604 753 -205 246 -280 345 -359 471 l-38 60 26 40 c28 46
32 73 10 91 -24 20 -60 3 -89 -41 -15 -22 -30 -38 -33 -35 -11 10 -33 -16 -33
-38 0 -18 -218 -297 -238 -304 -4 -1 -32 25 -61 59 -30 34 -69 68 -87 75 l-33
14 77 110 c106 151 212 330 212 356 0 29 -24 48 -54 40 -17 -4 -36 -27 -62
-73 -93 -169 -264 -409 -542 -760 -210 -265 -261 -337 -508 -703 -253 -375
-373 -538 -384 -520 -4 6 -18 54 -31 105 l-23 94 99 148 c221 327 659 924 985
1343 76 98 144 188 150 200 21 39 -11 82 -43 57 -60 -47 -844 -1101 -1127
-1514 -46 -68 -87 -123 -90 -123 -4 0 -19 47 -35 104 l-27 104 64 99 c70 106
170 267 409 658 168 276 302 479 391 597 63 84 73 122 36 134 -18 5 -29 -1
-55 -31 -87 -101 -262 -371 -769 -1193 -50 -81 -95 -147 -99 -147 -5 0 -25 61
-46 135 -46 163 -46 165 45 307 117 181 436 765 436 796 0 24 -37 42 -55 27
-8 -7 -40 -60 -71 -119 -185 -346 -419 -750 -429 -739 -2 2 -26 82 -53 178
-87 299 -160 531 -173 546 -15 19 -53 18 -69 -1 -11 -13 -3 -49 45 -208 32
-106 58 -196 59 -202 1 -8 -114 -44 -156 -48 -14 -2 -28 27 -66 138 -83 239
-96 260 -149 236 -29 -13 -28 -21 8 -119 l24 -64 -50 -45 c-27 -25 -157 -122
-290 -216 -132 -93 -269 -193 -305 -221 -145 -113 -481 -395 -579 -485 l-104
-96 5 125 5 125 94 91 c165 160 228 212 559 462 381 288 522 398 533 417 12
22 -3 45 -32 45 -17 0 -48 -18 -86 -48 -33 -27 -220 -169 -415 -317 -369 -278
-430 -327 -567 -458 l-81 -78 4 38 c2 21 7 94 10 163 l7 125 59 50 c63 53 87
73 356 283 153 119 173 138 170 161 -5 43 -37 37 -113 -20 -135 -102 -390
-303 -429 -338 l-39 -36 7 150 c16 409 19 631 7 653 -13 24 -52 30 -69 10 -5
-7 -13 -103 -16 -218 -4 -113 -9 -269 -12 -347 l-6 -143 -122 0 -123 0 -6 137
c-4 75 -7 188 -7 252 0 138 -5 159 -36 167 -53 13 -50 50 -57 -920 -4 -497
-10 -917 -13 -934 l-6 -30 -54 13 c-30 7 -56 14 -58 16 -1 2 1 69 6 149 5 80
10 447 13 816 5 596 3 673 -10 684 -23 19 -65 -2 -65 -32 -1 -13 -2 -338 -4
-723 -2 -385 -7 -737 -11 -783 -8 -83 -8 -83 -34 -77 -14 3 -60 23 -101 43
l-75 37 1 40 c0 22 6 308 13 635 7 327 11 649 9 715 -3 106 -5 120 -21 123
-10 2 -27 -4 -38 -14 -18 -16 -19 -33 -19 -293 0 -270 -18 -1143 -24 -1148 -2
-2 -32 16 -68 41 -36 24 -84 54 -107 67 l-42 23 7 206 c7 212 -10 900 -26
1066 -9 101 -21 127 -54 122 -25 -4 -25 6 -8 -483 13 -370 15 -799 4 -828 -6
-15 -28 0 -139 93 l-131 110 4 308 c2 169 9 387 15 484 13 208 11 228 -31 228
-25 0 -30 -4 -35 -32 -7 -45 -25 -577 -25 -760 0 -83 -4 -148 -9 -148 -5 0
-61 57 -124 126 l-116 125 -3 327 c-2 180 -7 335 -12 345 -5 10 -19 17 -37 17
-21 0 -29 -5 -29 -17 -1 -10 -1 -144 0 -298 l0 -280 -25 30 c-154 181 -249
339 -329 545 -51 131 -56 140 -80 140 -40 0 -49 -15 -42 -61 14 -82 16 -78
-58 -104 -64 -22 -70 -23 -93 -8 -21 14 -32 15 -70 4 -39 -10 -48 -9 -63 4
-10 9 -29 15 -41 13 -20 -3 -27 6 -51 70 -16 40 -40 114 -54 165 -35 128 -40
137 -68 137 -60 0 -59 -53 6 -249 73 -219 244 -532 444 -808 l85 -118 -6 -95
c-4 -52 -10 -100 -13 -106 -4 -7 -31 28 -66 84 -84 140 -332 596 -444 817 -52
105 -97 192 -98 194 -2 2 -15 0 -30 -3 -24 -6 -26 -10 -21 -46 6 -48 79 -193
285 -567 88 -158 174 -317 192 -353 18 -36 43 -79 56 -97 13 -17 24 -33 24
-35 0 -2 -33 -1 -72 3 -40 4 -112 8 -160 8 l-88 1 -46 93 c-26 50 -106 202
-179 337 -126 231 -192 367 -247 504 -25 64 -45 83 -73 72 -14 -5 -17 -14 -12
-44 8 -65 111 -284 270 -580 172 -319 200 -373 195 -377 -2 -1 -75 -6 -164 -9
l-161 -7 -22 60 c-13 33 -50 106 -83 163 -79 137 -301 580 -347 693 -45 110
-48 115 -70 115 -33 0 -44 -25 -31 -67 19 -59 280 -593 370 -753 79 -143 107
-206 96 -217 -3 -3 -68 -14 -143 -24 l-138 -18 -22 24 c-11 13 -36 61 -54 107
-44 109 -466 950 -484 962 -19 14 -45 -10 -45 -41 0 -13 93 -207 206 -431 221
-434 310 -631 291 -637 -58 -17 -291 -55 -298 -48 -4 4 -53 109 -107 233 -55
124 -141 315 -192 425 -92 200 -153 345 -184 442 -11 34 -24 54 -37 58 -24 8
-49 -11 -49 -36 0 -30 101 -279 200 -494 136 -296 291 -647 286 -652 -5 -6
-308 -84 -312 -81 -1 2 -19 52 -39 112 -20 60 -80 213 -135 340 -139 327 -186
442 -242 596 -74 202 -97 249 -124 256 -52 13 -56 -16 -15 -107 16 -35 43
-103 59 -150 42 -119 152 -392 260 -645 96 -224 165 -415 154 -425 -9 -9 -183
-61 -187 -57 -8 7 -260 571 -297 663 -22 55 -73 195 -113 310 -40 116 -91 257
-113 315 -114 302 -294 651 -335 650 -7 0 -20 -5 -29 -11z m3239 -776 c16 -38
55 -110 86 -162 31 -52 57 -97 57 -100 0 -10 -154 -122 -227 -165 -9 -5 -43
39 -107 136 -124 191 -121 185 -95 200 12 7 72 46 133 85 61 40 114 73 117 73
3 0 19 -30 36 -67z m5573 -21 c0 -4 34 -47 75 -95 46 -53 73 -92 69 -100 -25
-42 -177 -247 -184 -247 -4 0 -49 39 -99 88 l-91 87 108 137 c99 126 122 151
122 130z m-1934 -138 c30 -97 34 -119 22 -129 -32 -30 -280 -235 -478 -395
-309 -250 -381 -311 -515 -440 -66 -63 -178 -164 -248 -224 l-129 -108 -34 33
c-38 37 -39 44 -27 208 l6 92 131 118 c308 276 605 514 866 693 102 70 223
158 270 196 47 39 88 71 92 71 4 1 24 -51 44 -115z m-6450 -154 c24 -69 44
-130 44 -136 0 -6 -13 -17 -30 -24 -16 -7 -63 -35 -102 -63 -40 -27 -88 -61
-107 -74 -19 -12 -46 -23 -60 -23 -24 0 -32 13 -89 136 -35 75 -60 139 -55
143 4 4 37 20 73 34 36 15 110 52 165 81 55 30 104 54 109 52 5 -1 28 -58 52
-126z m6830 -160 c30 -106 53 -194 52 -195 -8 -4 -181 -45 -184 -43 -4 4 -94
345 -94 356 0 6 21 15 48 22 26 6 63 22 82 35 19 12 36 21 38 20 2 -2 28 -89
58 -195z m-1913 174 l79 -6 -6 -116 c-4 -65 -9 -147 -12 -184 -7 -78 -6 -78
-109 -53 -33 8 -75 15 -92 15 l-33 0 0 180 0 179 48 -4 c26 -3 82 -7 125 -11z
m1620 -168 c15 -57 27 -111 27 -120 0 -9 -19 -33 -42 -54 -23 -20 -110 -101
-193 -178 -82 -78 -238 -218 -345 -310 -107 -93 -256 -227 -330 -299 -75 -71
-168 -158 -206 -192 l-70 -61 -70 53 c-38 29 -86 68 -108 87 l-39 34 139 119
c76 66 177 156 224 200 141 133 374 332 585 502 110 88 243 196 295 241 52 45
98 82 101 82 3 0 17 -47 32 -104z m-3392 -28 c30 -35 87 -97 127 -139 l73 -77
-60 -57 c-32 -31 -71 -74 -86 -95 -15 -22 -38 -46 -52 -55 -24 -16 -26 -16
-55 12 -41 39 -228 262 -227 271 1 8 211 202 220 202 3 0 30 -28 60 -62z
m4975 -35 c37 -49 74 -93 82 -100 12 -10 0 -33 -83 -149 -111 -155 -97 -152
-162 -34 -20 36 -50 79 -66 97 -30 32 -30 32 -12 60 45 69 156 213 164 213 6
0 40 -39 77 -87z m712 -90 c54 -71 120 -158 146 -195 42 -59 45 -67 28 -72
-10 -4 -66 -49 -123 -101 -57 -52 -109 -95 -114 -95 -6 0 -28 24 -50 53 -129
171 -205 280 -205 292 0 8 45 62 100 121 55 59 100 111 100 116 0 25 29 -5
118 -119z m-8658 -128 c33 -72 60 -135 60 -141 0 -13 -80 -67 -277 -187 -9 -6
-36 39 -88 144 -72 142 -75 152 -58 165 29 21 287 154 296 151 4 -1 35 -61 67
-132z m8196 50 l37 -55 -41 -67 c-22 -38 -82 -126 -133 -198 -50 -71 -144
-209 -208 -305 -64 -96 -164 -236 -222 -310 -129 -165 -171 -225 -289 -410
-51 -80 -95 -148 -99 -153 -4 -4 -20 35 -35 86 l-28 94 67 89 c36 48 82 117
102 153 49 88 86 142 153 226 50 61 320 433 575 792 44 62 81 113 82 113 2 0
19 -25 39 -55z m-1732 -148 l37 -138 -50 -62 c-50 -63 -620 -625 -785 -774
l-90 -81 -41 20 c-64 33 -244 139 -250 148 -6 10 405 398 640 602 105 91 257
229 340 307 98 94 151 137 156 129 3 -7 23 -75 43 -151z m-3738 16 c27 -32 73
-84 102 -116 l53 -58 -3 -72 -3 -72 -55 5 c-30 3 -88 4 -127 3 l-73 -1 5 36
c25 183 35 271 35 299 0 18 4 33 9 33 5 0 30 -26 57 -57z m4033 -20 c6 -21 29
-103 51 -183 36 -130 38 -146 24 -157 -18 -13 -161 -49 -168 -42 -6 7 -106
373 -102 376 2 2 31 8 64 13 34 6 71 14 84 20 35 14 36 13 47 -27z m-2094 12
c33 -8 75 -14 93 -15 l33 0 -7 -172 c-4 -95 -9 -176 -13 -180 -3 -3 -51 -1
-106 5 l-100 12 -3 120 c-2 66 0 148 3 183 7 71 6 70 100 47z m3678 -75 c46
-62 54 -78 44 -91 -7 -9 -43 -54 -80 -100 -38 -46 -169 -235 -292 -419 -123
-184 -309 -450 -414 -590 -105 -140 -207 -285 -226 -322 -20 -38 -39 -68 -43
-68 -7 0 -62 175 -62 197 0 25 286 453 409 613 111 143 256 352 526 754 39 58
73 104 77 103 3 -1 31 -36 61 -77z m-4838 -110 c50 -40 104 -86 122 -103 l31
-29 -83 -102 c-46 -56 -90 -108 -98 -114 -12 -10 -31 1 -108 59 -52 40 -128
102 -170 138 -75 64 -77 67 -60 87 9 12 52 69 96 127 l80 106 50 -48 c28 -26
91 -81 140 -121z m4115 105 c19 -26 53 -71 76 -99 l40 -51 -119 -167 -119
-166 -55 61 c-30 34 -65 82 -78 107 l-23 45 110 163 c61 90 115 161 122 159 6
-2 27 -25 46 -52z m-5424 -32 c-13 -42 -46 -250 -46 -288 l0 -41 -97 13 c-54
6 -140 15 -190 19 l-93 7 0 148 0 148 48 4 c26 2 123 4 215 5 156 2 168 1 163
-15z m332 -10 c21 -5 23 -10 18 -42 -3 -20 -13 -108 -22 -196 -9 -88 -17 -161
-18 -163 -2 -1 -40 8 -85 20 l-83 22 6 30 c3 17 8 74 11 126 3 52 8 124 11
159 l6 63 66 -7 c37 -3 77 -9 90 -12z m-964 -25 c8 -32 7 -221 -2 -234 -5 -8
-78 -13 -232 -15 l-225 -4 -9 94 c-7 72 -6 95 4 101 13 8 200 42 356 65 49 7
92 13 95 14 4 0 9 -9 13 -21z m-1330 -279 l44 -97 -50 -27 c-28 -15 -80 -50
-116 -77 -66 -50 -109 -75 -116 -67 -2 2 -38 72 -79 155 l-76 152 40 28 c22
16 89 54 147 84 l107 55 27 -55 c15 -30 47 -98 72 -151z m8270 137 c31 -40 56
-76 56 -80 0 -10 -112 -209 -154 -271 -22 -33 -110 -154 -196 -270 -87 -115
-219 -302 -296 -415 -76 -113 -187 -272 -247 -354 -60 -81 -136 -189 -169
-238 -33 -49 -62 -88 -64 -86 -5 6 -74 228 -74 240 0 10 61 109 135 217 22 33
116 160 209 283 92 122 234 322 313 443 192 292 235 355 306 450 47 63 116
148 123 154 1 1 27 -32 58 -73z m575 -86 c111 -164 120 -180 99 -180 -8 0 -50
-32 -93 -71 -72 -64 -132 -106 -139 -97 -40 51 -184 246 -189 254 -5 9 129
156 220 242 1 1 47 -65 102 -148z m-2499 -55 c28 -99 49 -189 46 -200 -3 -11
-40 -49 -83 -85 -43 -36 -157 -142 -253 -236 -96 -93 -203 -196 -236 -228
l-62 -57 -120 46 c-67 25 -144 56 -171 68 l-51 22 113 102 c61 56 258 247 437
425 179 178 326 323 327 323 1 0 24 -81 53 -180z m-3390 -20 c45 -37 78 -71
73 -75 -4 -3 -39 -31 -78 -60 -38 -30 -103 -85 -144 -122 -41 -37 -76 -66 -79
-64 -2 2 0 119 4 260 l7 256 67 -64 c38 -35 105 -94 150 -131z m-2350 103 c13
-46 23 -87 24 -91 1 -5 -33 -21 -74 -36 -98 -36 -134 -55 -198 -103 -30 -22
-55 -38 -57 -36 -7 7 -84 195 -90 220 -7 26 -4 28 52 44 100 29 297 83 309 83
6 1 22 -36 34 -81z m-1008 -232 l117 -233 -96 -7 c-53 -4 -99 -3 -103 1 -4 4
-17 37 -30 73 -13 36 -47 122 -76 191 -30 69 -54 133 -54 140 0 13 91 67 115
68 6 1 63 -104 127 -233z m4112 80 c61 -40 127 -81 146 -91 19 -10 36 -19 38
-20 2 -2 -12 -38 -31 -82 -19 -43 -42 -102 -51 -130 -10 -29 -21 -53 -24 -53
-11 0 -279 147 -341 187 -52 33 -53 35 -32 49 11 8 42 45 68 82 79 114 94 132
105 132 5 0 60 -33 122 -74z m4731 -16 c56 -75 63 -98 45 -145 -30 -79 -587
-941 -810 -1253 -86 -122 -105 -143 -123 -139 -12 2 -71 15 -132 27 -60 12
-112 24 -114 26 -6 5 37 68 184 269 72 99 198 279 280 400 82 121 216 309 297
417 162 216 216 296 273 406 21 40 40 71 42 69 2 -2 28 -37 58 -77z m-5917 43
l112 -6 0 -169 0 -170 -31 7 c-17 4 -80 10 -140 14 -60 4 -111 10 -115 13 -6
6 12 262 22 306 4 18 9 22 22 17 9 -4 68 -9 130 -12z m-3305 -38 c3 -20 37
-99 76 -178 38 -78 71 -148 73 -155 2 -9 -32 -24 -107 -46 -60 -18 -116 -35
-123 -37 -10 -3 -22 24 -42 88 -15 51 -42 122 -59 159 -17 37 -29 69 -26 72
10 10 190 131 196 131 4 1 9 -15 12 -34z m1992 -112 c111 -224 234 -483 230
-483 -27 0 -184 63 -270 108 l-109 57 -102 215 c-55 118 -99 217 -97 219 5 7
128 18 209 20 l71 1 68 -137z m297 60 c138 -234 563 -1057 647 -1253 l36 -85
-5 -220 -5 -220 -33 55 c-17 30 -82 152 -143 270 -120 232 -271 519 -367 695
-32 61 -63 121 -67 135 -4 14 -13 32 -20 40 -7 8 -66 128 -130 265 -64 138
-135 283 -156 323 l-40 72 118 0 119 0 46 -77z m216 52 c81 -9 152 -21 159
-28 7 -7 54 -96 106 -198 52 -102 112 -216 135 -255 22 -38 54 -103 70 -144
l29 -75 -9 -175 c-4 -96 -11 -208 -14 -249 l-6 -74 -102 204 c-144 286 -387
753 -462 886 -35 62 -64 115 -64 118 0 7 -11 7 158 -10z m2763 -25 l52 0 -6
-97 c-4 -54 -7 -136 -7 -183 l0 -85 -100 0 -100 -1 0 202 0 202 55 -19 c30
-10 78 -19 106 -19z m-3624 -161 c67 -144 78 -175 65 -178 -32 -6 -42 -24 -42
-70 0 -60 -60 -310 -79 -333 -4 -4 -51 77 -105 180 -55 103 -132 248 -173 323
-40 75 -73 139 -73 142 0 23 276 122 315 113 6 -2 47 -81 92 -177z m5832 59
c18 -67 35 -127 37 -133 4 -11 -131 -75 -157 -75 -11 0 -27 39 -58 146 -23 80
-40 148 -38 150 2 2 33 7 68 10 35 4 71 10 79 15 8 5 20 9 25 9 6 0 26 -55 44
-122z m348 31 c22 -35 52 -78 66 -94 l25 -30 -46 -72 c-26 -40 -69 -108 -97
-153 -81 -131 -74 -134 -127 51 l-46 161 81 104 c45 57 86 103 92 101 5 -2 29
-32 52 -68z m-4932 30 c68 -17 131 -36 139 -43 14 -10 14 -31 1 -186 -8 -96
-15 -186 -15 -200 0 -19 -8 -11 -38 41 -50 86 -222 419 -216 419 2 0 61 -14
129 -31z m1093 -62 l83 -60 -33 -34 c-18 -19 -87 -72 -153 -118 -66 -46 -167
-122 -225 -169 -57 -46 -118 -92 -134 -102 l-29 -17 5 134 c6 126 7 134 29
149 13 8 47 36 74 61 92 86 278 228 289 221 6 -3 48 -33 94 -65z m945 -52 l77
-17 0 -92 c0 -50 3 -128 6 -173 l7 -81 -80 18 c-44 11 -104 28 -135 40 l-55
20 8 53 c4 28 16 73 27 99 11 25 26 72 34 102 7 31 17 55 23 52 6 -2 45 -11
88 -21z m-3898 -283 c-1 -1 -22 5 -46 14 -29 11 -94 19 -188 23 l-144 6 -13
39 c-8 21 -12 42 -9 46 5 8 186 116 239 143 l30 15 67 -142 c36 -77 65 -142
64 -144z m331 -62 c101 -190 183 -352 183 -360 0 -8 -16 -68 -37 -133 l-38
-119 -197 399 c-108 220 -197 406 -197 414 1 42 71 154 93 146 5 -1 92 -158
193 -347z m4154 258 c68 -58 251 -193 273 -201 9 -4 9 -8 0 -23 -32 -48 -63
-115 -78 -169 -19 -71 -45 -135 -55 -135 -12 0 -163 144 -211 203 l-49 58 0
112 c0 62 3 143 7 180 l6 68 21 -19 c12 -10 50 -43 86 -74z m3960 -88 c0 -7
-20 -37 -44 -68 -24 -31 -94 -145 -156 -252 -132 -228 -205 -345 -425 -685
-89 -137 -167 -259 -173 -270 -29 -51 -24 -51 -136 1 -58 27 -106 53 -106 57
0 4 46 72 101 150 203 284 435 641 774 1190 l36 59 65 -86 c35 -47 64 -90 64
-96z m509 -27 l109 -151 -94 -83 c-51 -46 -100 -87 -108 -91 -12 -6 -41 25
-122 129 -140 181 -139 180 -124 198 7 8 40 35 74 59 33 24 75 65 91 90 l30
46 17 -22 c9 -13 66 -91 127 -175z m-10287 105 c31 -71 72 -199 65 -203 -5 -3
-182 -100 -188 -103 -3 -1 -11 20 -18 46 -7 27 -30 80 -52 117 -22 37 -37 71
-33 74 17 18 180 150 185 151 3 0 22 -37 41 -82z m7561 -104 c26 -89 47 -170
47 -179 0 -10 -60 -79 -132 -152 l-133 -134 -40 7 c-146 24 -367 82 -363 95 6
19 562 539 568 532 4 -5 28 -81 53 -169z m-3032 95 c49 -28 89 -53 89 -54 0
-2 -33 -27 -72 -56 -108 -77 -306 -240 -538 -439 -113 -97 -211 -180 -219
-185 -12 -7 -13 14 -7 136 9 166 6 161 121 239 39 26 112 82 164 124 52 43
145 113 207 157 61 44 122 91 135 105 12 13 24 24 27 24 2 0 44 -23 93 -51z
m-5511 -104 c190 -8 391 -18 446 -21 l102 -6 -85 -106 c-47 -59 -88 -110 -92
-114 -12 -13 -222 -38 -318 -38 -157 0 -164 4 -295 144 -62 67 -122 132 -133
145 l-20 24 25 -6 c14 -4 180 -14 370 -22z m5753 -31 c134 -67 159 -85 146
-100 -7 -8 -62 -52 -123 -98 -61 -46 -167 -134 -236 -196 -69 -61 -228 -195
-355 -298 -126 -103 -281 -236 -343 -296 -62 -60 -115 -107 -117 -104 -7 7 23
370 32 378 52 46 523 447 603 511 99 81 309 239 317 239 2 0 36 -16 76 -36z
m5135 -89 c34 -47 62 -89 62 -94 0 -12 -13 -36 -151 -266 -59 -99 -191 -337
-294 -530 -103 -192 -207 -382 -232 -422 l-44 -72 -54 44 c-30 24 -81 62 -115
85 -33 22 -60 43 -60 45 0 8 70 119 218 347 200 307 279 435 403 650 95 164
183 297 199 297 3 0 33 -38 68 -84z m-9473 3 c0 -35 3 -78 7 -95 7 -31 5 -34
-30 -52 -20 -10 -91 -38 -157 -61 -66 -23 -186 -70 -266 -105 -81 -35 -170
-70 -199 -79 -50 -15 -53 -15 -97 7 l-45 23 70 57 c177 143 386 259 591 328
64 21 118 39 121 39 3 0 5 -28 5 -62z m3164 50 l113 -2 -6 -151 c-4 -82 -9
-176 -12 -208 l-6 -58 -47 6 c-78 10 -229 37 -240 44 -9 6 4 334 15 370 3 9
14 11 37 8 17 -4 83 -7 146 -9z m4329 -193 c29 -96 52 -181 52 -188 0 -12
-119 -57 -152 -57 -11 0 -29 47 -66 169 -29 93 -52 173 -52 179 0 9 130 68
156 71 6 0 34 -78 62 -174z m-8253 123 c15 -23 40 -63 56 -89 l28 -48 -52 -39
c-29 -21 -78 -62 -109 -91 l-58 -53 -55 48 c-30 26 -55 51 -55 55 0 11 200
259 209 259 5 0 21 -19 36 -42z m1115 27 c69 -8 182 -15 252 -15 125 0 228
-14 228 -30 0 -5 -14 -69 -31 -142 -62 -271 -68 -307 -89 -503 -12 -110 -39
-344 -61 -520 -21 -176 -39 -339 -39 -362 0 -24 -6 -48 -15 -57 -20 -20 -79
-36 -132 -36 -71 0 -93 44 -118 238 -7 59 -45 262 -83 452 -39 190 -89 449
-111 575 -23 127 -48 267 -57 312 -9 45 -13 86 -10 92 10 15 118 14 266 -4z
m1417 -65 c75 -38 175 -81 222 -95 47 -14 92 -28 99 -30 9 -3 1 -28 -28 -84
-22 -44 -67 -148 -100 -231 -33 -82 -118 -264 -188 -403 -71 -138 -158 -326
-194 -417 l-65 -165 -118 2 c-65 1 -120 4 -122 7 -6 6 134 750 157 836 12 41
47 156 79 255 32 99 71 228 86 288 15 59 30 107 33 107 2 0 65 -31 139 -70z
m2868 -5 c33 -13 93 -32 133 -41 39 -10 72 -20 72 -24 0 -8 -75 -78 -140 -131
-30 -24 -116 -102 -190 -174 -290 -279 -604 -568 -810 -745 -118 -101 -261
-229 -317 -284 l-103 -99 1 59 c0 32 4 131 8 219 l7 160 59 56 c33 30 101 94
151 141 51 47 170 148 265 225 197 158 276 225 439 370 105 92 348 290 360
292 3 1 32 -10 65 -24z m463 -8 l72 -2 1 -45 c1 -25 4 -107 8 -182 l6 -138
-25 -4 c-14 -3 -59 -8 -101 -12 l-76 -6 -6 143 c-4 79 -7 172 -7 206 l0 63 28
-11 c15 -6 60 -12 100 -12z m845 -54 c50 -25 133 -63 182 -84 50 -21 91 -44
93 -52 2 -8 -8 -70 -22 -138 -15 -68 -26 -134 -26 -146 0 -13 -6 -23 -14 -23
-24 0 -269 81 -338 113 -44 19 -68 35 -68 46 0 9 20 81 45 159 25 79 45 150
45 158 0 8 2 14 5 14 3 0 47 -21 98 -47z m1292 -125 c15 -51 30 -99 33 -106 4
-11 -19 -12 -124 -7 -71 4 -131 9 -133 12 -6 4 180 193 190 193 3 0 19 -42 34
-92z m2426 -4 l66 -86 -73 -146 c-40 -81 -122 -259 -182 -397 -131 -300 -223
-485 -307 -620 -34 -55 -68 -111 -74 -123 -12 -23 -15 -21 -117 84 l-103 108
21 36 c44 72 138 241 265 475 72 132 173 312 225 400 52 88 119 204 149 257
30 54 56 98 59 98 3 -1 35 -39 71 -86z m-8563 -109 c50 -102 92 -189 92 -195
0 -5 -38 -27 -85 -50 -47 -22 -103 -51 -125 -65 -22 -14 -40 -22 -40 -18 0 5
-25 53 -56 108 -61 110 -60 102 -28 243 16 72 18 74 77 118 34 24 64 44 67 44
3 0 47 -83 98 -185z m9082 38 c57 -76 114 -152 127 -169 l23 -31 -37 -25 c-21
-14 -67 -51 -102 -82 -36 -31 -68 -55 -72 -54 -11 4 -239 299 -239 309 0 4 24
26 54 48 52 39 126 116 126 133 0 24 27 -5 120 -129z m-10126 -52 c15 -84 24
-156 21 -159 -6 -7 -236 -92 -395 -147 -52 -18 -112 -35 -133 -38 -37 -6 -39
-5 -74 51 -20 31 -56 86 -79 123 -24 36 -44 67 -44 70 0 3 19 12 43 19 23 7
113 44 200 82 88 38 211 87 275 110 65 22 124 44 132 48 8 5 18 6 21 2 3 -4
18 -76 33 -161z m4835 -56 l1 -79 -223 -226 c-1010 -1021 -1379 -1390 -1387
-1385 -6 4 -10 92 -10 221 l0 215 93 96 c50 52 155 150 232 217 320 278 394
345 708 641 180 171 383 358 450 416 l122 106 6 -71 c4 -39 7 -107 8 -151z
m-6058 146 c-22 -33 -56 -85 -75 -116 l-34 -57 -88 102 c-49 56 -90 105 -92
108 -1 4 24 6 55 4 32 -1 92 1 133 6 41 5 90 10 108 11 l33 1 -40 -59z m6714
-126 l110 -73 42 -193 c23 -107 56 -273 73 -369 17 -96 62 -300 100 -453 39
-153 70 -287 70 -296 0 -10 -13 -48 -30 -83 -16 -36 -34 -88 -41 -114 -6 -27
-15 -52 -18 -57 -8 -8 -176 500 -247 748 -25 88 -70 239 -99 335 -29 96 -64
222 -78 280 -55 224 -97 408 -97 424 0 13 14 5 53 -29 28 -26 102 -80 162
-120z m-3270 -37 c54 -101 151 -284 216 -408 157 -303 247 -471 298 -555 l42
-70 -6 -100 c-3 -55 -10 -180 -17 -278 l-11 -178 -52 98 c-29 54 -80 148 -114
208 -33 61 -109 205 -167 320 -58 116 -180 353 -271 527 l-164 318 27 67 c45
114 102 233 112 233 4 0 53 -82 107 -182z m-3754 80 c24 -29 69 -80 101 -113
l57 -60 -40 -88 c-21 -48 -39 -91 -39 -97 0 -5 -3 -10 -7 -10 -5 0 -68 63
-141 140 l-134 140 34 27 c18 15 51 46 73 70 22 23 43 43 46 43 3 0 26 -24 50
-52z m8028 16 c53 -15 134 -34 181 -44 l84 -17 -3 -129 c-1 -71 -4 -130 -5
-131 -5 -5 -260 27 -348 43 -49 9 -88 20 -88 24 0 35 67 280 77 280 3 0 49
-12 102 -26z m-7629 -54 l35 -29 -84 -77 c-46 -43 -95 -87 -108 -98 -24 -18
-24 -17 7 45 42 85 103 189 110 189 3 0 21 -14 40 -30z m6426 -275 c14 -60 52
-195 84 -300 32 -104 83 -277 114 -383 31 -105 95 -310 142 -453 47 -143 84
-262 82 -263 -2 -2 -17 -6 -35 -9 -37 -7 -42 -1 -115 128 -122 216 -202 464
-262 810 -31 182 -63 469 -70 625 l-5 115 19 -80 c11 -44 32 -129 46 -190z
m4518 168 c42 -54 76 -104 76 -112 0 -22 -110 -359 -151 -463 -21 -54 -96
-225 -165 -380 -69 -156 -141 -322 -159 -369 -18 -48 -45 -110 -59 -138 l-27
-52 -76 98 c-42 54 -98 125 -124 157 -56 69 -59 52 46 221 97 157 155 270 280
555 133 303 265 580 276 580 4 0 42 -44 83 -97z m-2661 57 c48 -5 92 -12 96
-14 13 -8 65 -195 57 -204 -4 -4 -84 -9 -177 -11 l-169 -3 0 43 c0 24 5 81 11
126 l12 82 41 -4 c23 -3 81 -9 129 -15z m-7983 -17 c58 -48 163 -215 325 -518
110 -206 162 -291 279 -455 136 -191 194 -351 152 -415 -23 -35 -74 -65 -112
-65 -71 0 -143 62 -588 505 -78 77 -186 179 -241 227 -55 47 -122 108 -148
136 l-48 49 20 87 c38 161 121 321 222 431 51 55 90 60 139 18z m3766 -69 c24
-10 81 -19 147 -22 69 -3 107 -9 107 -16 0 -6 -7 -92 -15 -191 -8 -99 -15
-188 -15 -197 0 -14 -5 -15 -32 -7 -18 5 -71 12 -118 15 -141 9 -130 -1 -130
112 0 95 11 322 15 322 2 0 20 -7 41 -16z m2825 -8 c30 -12 98 -38 152 -55 78
-26 98 -37 102 -54 2 -12 16 -83 31 -157 14 -74 50 -245 80 -379 l54 -244 -57
-64 c-32 -36 -82 -96 -112 -134 -30 -38 -56 -68 -57 -66 -12 12 -140 563 -165
707 -27 153 -82 422 -94 458 -6 17 5 15 66 -12z m1859 -189 c34 -109 60 -201
57 -203 -10 -10 -118 -44 -140 -44 -22 0 -28 14 -82 183 -32 100 -59 187 -62
192 -4 12 149 85 159 76 3 -3 34 -95 68 -204z m-7552 21 l21 -103 -22 -17
c-12 -10 -56 -30 -97 -45 -41 -15 -124 -53 -185 -84 -169 -86 -154 -89 -222
43 -32 62 -59 115 -61 119 -2 4 21 12 50 19 44 10 302 101 438 154 19 8 40 14
46 15 6 1 20 -44 32 -101z m4798 -101 l17 -198 -65 -67 c-35 -37 -108 -117
-162 -179 -53 -62 -224 -236 -379 -388 -300 -292 -501 -502 -600 -625 -100
-123 -184 -215 -210 -229 -22 -12 -29 -10 -73 22 -27 19 -77 49 -111 67 l-63
33 7 76 6 76 156 150 c136 131 436 433 1245 1252 115 117 211 211 212 210 1
-1 10 -91 20 -200z m281 189 c6 -4 44 -398 38 -404 -3 -4 -51 -9 -105 -10
l-97 -4 -6 44 c-7 44 -21 187 -32 315 l-6 72 103 -6 c57 -3 104 -6 105 -7z
m-4327 -127 l55 -111 -26 -21 c-15 -12 -50 -42 -79 -67 l-53 -45 6 50 c3 28
12 107 18 178 7 70 15 127 19 127 3 0 30 -50 60 -111z m5435 64 l132 -27 17
-96 c9 -52 34 -164 54 -248 l38 -154 -46 -23 c-25 -12 -80 -48 -124 -79 -43
-31 -80 -56 -81 -54 -4 4 -100 446 -125 573 -12 61 -24 119 -27 129 -4 15 -2
18 12 12 10 -3 78 -19 150 -33z m-3971 -638 c117 -231 239 -463 271 -515 75
-120 185 -338 185 -366 0 -12 -3 -36 -6 -53 l-6 -31 -117 0 -117 0 -30 62
c-16 34 -78 143 -138 243 -60 99 -143 239 -184 310 -80 141 -322 600 -347 658
l-15 36 82 160 82 160 64 -122 c35 -67 159 -311 276 -542z m-1049 595 c18 -40
18 -44 -4 -173 -25 -143 -36 -169 -80 -192 -29 -14 -30 -14 -49 18 -70 117
-133 242 -123 245 7 2 35 20 64 40 29 19 74 50 101 69 26 18 54 33 60 33 7 0
21 -18 31 -40z m8814 -80 l92 -120 -11 -41 c-6 -23 -34 -96 -61 -163 -156
-378 -372 -967 -425 -1158 -20 -73 -39 -137 -41 -141 -3 -4 -40 50 -82 121
-43 71 -92 149 -110 174 l-33 45 36 71 c20 39 54 117 76 173 23 56 94 221 159
368 140 315 198 459 241 601 35 117 60 190 64 190 2 0 45 -54 95 -120z m-3445
67 l99 -12 53 -170 c29 -94 53 -174 54 -180 0 -5 -48 -22 -108 -36 -59 -15
-114 -30 -122 -33 -13 -5 -23 24 -58 176 -23 101 -45 202 -48 226 -8 49 -18
47 130 29z m402 -33 l41 -5 43 -115 c24 -64 43 -132 44 -152 l1 -37 -105 -8
c-58 -4 -113 -6 -124 -5 -14 2 -29 36 -67 157 -27 85 -49 159 -49 166 0 11
120 11 216 -1z m387 -126 c26 -79 43 -146 39 -150 -9 -9 -126 -28 -174 -28
-28 0 -38 4 -38 16 0 8 -20 74 -45 146 -25 72 -45 135 -45 139 0 4 33 10 73
12 39 1 88 4 108 5 l37 2 45 -142z m-7268 -105 c9 -50 14 -96 11 -101 -6 -10
-268 -161 -319 -183 -32 -14 -28 -18 -106 109 -44 71 -49 83 -34 88 10 2 70
31 133 63 63 32 147 70 185 85 39 14 77 31 85 36 22 13 26 5 45 -97z m-1503
42 c19 -23 64 -114 57 -117 -15 -10 -171 -59 -175 -56 -4 4 53 194 63 211 5 9
29 -7 55 -38z m2202 -238 c-123 -124 -154 -151 -150 -130 3 16 10 72 17 126
l12 98 105 90 105 90 33 -59 33 -58 -155 -157z m9459 88 c42 -58 77 -112 77
-121 0 -34 -183 -669 -229 -795 -27 -74 -57 -161 -66 -194 -29 -101 -72 -184
-125 -242 -28 -31 -88 -105 -132 -164 l-81 -109 -39 93 c-21 50 -37 99 -34
107 90 340 207 677 427 1232 60 152 109 281 109 287 0 24 19 5 93 -94z m-2291
29 c439 -83 869 -430 1300 -1050 147 -211 251 -397 321 -572 78 -195 102 -342
94 -582 -8 -271 -49 -436 -222 -900 -166 -446 -251 -623 -381 -795 -91 -123
-81 -124 -148 19 l-58 124 52 122 c135 320 156 613 64 895 -71 215 -148 322
-307 422 -204 129 -531 352 -677 461 -376 282 -628 595 -764 949 -64 164 -80
243 -80 393 l-1 136 38 77 c62 126 166 216 320 277 125 50 273 58 449 24z
m-6000 -479 c97 -178 208 -370 322 -558 53 -88 94 -162 91 -166 -2 -5 -43 -11
-91 -15 -48 -3 -96 -9 -108 -11 -18 -4 -40 24 -154 200 -74 113 -172 271 -218
351 -76 133 -83 149 -69 164 8 9 15 22 15 28 0 18 -78 182 -111 234 l-31 48
17 43 c9 23 30 72 47 110 l31 67 94 -182 c52 -101 127 -241 165 -313z m2928
306 c16 -107 18 -137 8 -150 -54 -70 -534 -589 -728 -786 -86 -88 -181 -189
-210 -225 -29 -36 -109 -123 -177 -194 l-124 -130 -89 89 -90 90 73 75 c41 41
122 134 182 205 60 72 303 325 547 568 241 241 471 477 510 525 40 47 73 81
75 76 1 -5 12 -69 23 -143z m-6120 98 c41 -25 200 -158 200 -168 0 -3 -46 -26
-103 -50 -56 -24 -157 -73 -225 -108 -67 -34 -130 -63 -140 -63 -9 1 -32 14
-51 30 l-34 29 12 98 c19 159 16 151 79 179 46 20 200 71 222 73 3 1 21 -9 40
-20z m4176 -19 c49 -11 106 -20 127 -20 l39 0 -4 -214 c-1 -118 -5 -217 -8
-219 -3 -3 -30 1 -60 9 -30 8 -79 14 -110 14 -92 1 -90 -5 -90 239 0 116 4
211 8 211 4 0 48 -9 98 -20z m4238 -47 c-159 -194 -165 -479 -18 -836 l45
-111 -19 -25 c-32 -44 -98 -88 -164 -110 -119 -39 -233 -51 -558 -61 -342 -11
-512 -23 -605 -45 -33 -7 -61 -12 -63 -11 -1 2 4 34 12 72 8 38 22 120 31 182
9 62 23 136 31 165 20 68 101 213 172 309 180 242 354 380 562 448 117 38 362
71 578 79 l42 1 -46 -57z m-7036 -20 l11 -58 -47 -44 c-63 -58 -191 -161 -201
-161 -5 0 -29 31 -54 70 l-47 69 63 30 c34 17 105 57 157 90 52 33 98 61 101
61 3 0 11 -26 17 -57z m5057 -20 c13 -90 77 -328 117 -438 41 -110 118 -274
165 -348 13 -22 21 -42 16 -46 -4 -4 -42 -18 -83 -30 -41 -13 -93 -32 -114
-43 -47 -24 -46 -25 -107 94 -75 149 -130 351 -215 799 -5 26 -5 26 98 41 57
8 106 16 109 17 4 0 10 -20 14 -46z m-6859 -30 c-3 -21 -6 -55 -6 -75 0 -21
-5 -38 -11 -38 -15 0 -121 92 -114 99 9 9 108 49 124 50 10 1 12 -8 7 -36z
m819 -223 c91 -90 123 -127 113 -133 -78 -46 -260 -149 -326 -184 l-83 -45
-37 26 c-20 14 -90 74 -154 133 l-118 107 103 54 c112 60 358 172 369 169 4
-1 64 -58 133 -127z m1933 58 c-13 -74 -4 -98 37 -98 72 0 84 -9 126 -92 28
-56 36 -80 27 -83 -233 -82 -244 -87 -576 -277 -134 -76 -281 -157 -325 -179
l-82 -41 135 138 c196 201 536 558 605 636 32 37 60 66 62 65 1 -2 -3 -32 -9
-69z m-888 -137 l12 -44 -69 -69 c-37 -38 -88 -87 -113 -108 l-45 -38 3 57 c3
42 -3 78 -22 135 -14 42 -26 78 -26 81 0 2 28 25 62 52 35 26 85 68 113 92
l50 45 11 -80 c6 -43 17 -99 24 -123z m4756 -49 l32 -137 -92 -95 c-51 -52
-151 -162 -222 -245 -71 -82 -203 -226 -294 -320 -91 -93 -208 -219 -259 -280
-116 -135 -260 -290 -264 -284 -1 2 -36 48 -76 102 -40 54 -70 104 -68 110 4
12 172 193 437 471 80 83 284 303 455 488 170 185 312 335 314 332 3 -3 19
-66 37 -142z m-3224 -162 c39 -69 127 -211 196 -317 69 -105 125 -195 126
-199 1 -8 -157 -42 -200 -43 -19 -1 -23 10 -43 112 -12 61 -58 220 -102 353
-43 132 -79 244 -79 250 1 16 29 -27 102 -156z m-2314 45 l57 -56 -35 -30
c-37 -31 -256 -189 -301 -216 -26 -16 -28 -15 -105 47 -44 35 -85 69 -92 75
-10 9 12 26 105 80 171 100 275 154 296 155 10 0 44 -25 75 -55z m2145 3 c105
-280 139 -400 192 -678 19 -102 50 -242 70 -312 99 -355 63 -459 -273 -775
-86 -82 -253 -243 -372 -359 -417 -408 -546 -492 -890 -578 -224 -57 -337 -71
-575 -71 -228 0 -277 7 -380 56 -77 36 -97 58 -254 277 -310 435 -431 670
-431 833 1 155 38 186 612 505 227 126 867 454 885 454 4 0 30 -53 57 -118 71
-172 246 -528 300 -611 25 -40 67 -95 93 -122 25 -27 44 -50 42 -52 -2 -1 -47
-23 -99 -49 -115 -57 -200 -132 -200 -177 0 -28 14 -41 45 -41 8 0 41 24 74
54 34 30 95 70 138 90 139 66 147 71 162 98 15 27 15 28 -60 105 -99 101 -142
169 -249 388 -90 185 -210 455 -210 473 0 6 96 60 213 120 116 61 273 144 347
186 215 122 344 185 505 246 83 32 169 67 190 78 22 12 43 21 46 22 4 0 13
-19 22 -42z m1412 -15 l110 -6 3 -213 c2 -118 -1 -214 -5 -214 -16 0 -283 57
-287 61 -4 5 10 261 19 337 6 49 8 53 28 47 12 -3 72 -9 132 -12z m2063 -176
c12 -39 42 -112 65 -161 l42 -89 -95 -86 c-193 -175 -699 -698 -902 -933 -51
-60 -96 -108 -100 -108 -4 0 -22 28 -39 63 -17 34 -46 87 -65 118 -19 31 -34
61 -34 67 0 6 31 42 68 80 37 38 92 97 122 133 95 111 221 249 355 389 72 74
193 207 269 295 136 156 275 305 286 305 3 0 15 -33 28 -73z m702 -234 c0 -14
-31 -187 -36 -205 -3 -10 -15 -18 -28 -18 -52 0 -217 -35 -296 -62 -313 -109
-589 -367 -715 -667 -43 -104 -289 -1083 -315 -1256 -15 -102 -41 -205 -51
-205 -5 0 -9 2 -9 3 0 23 -128 480 -158 562 -73 203 -239 572 -336 745 -201
361 -435 571 -767 688 -387 136 -782 96 -1056 -109 l-52 -39 -10 37 c-40 151
-58 253 -45 253 3 0 83 13 177 30 219 38 353 50 549 50 332 0 538 -51 718
-178 86 -61 275 -246 360 -352 237 -297 429 -710 515 -1105 20 -91 28 -105 61
-105 32 0 41 21 49 115 25 290 104 554 254 855 173 347 379 617 596 779 89 67
249 146 345 171 74 19 250 28 250 13z m1550 -145 c124 -218 343 -453 610 -657
138 -106 522 -369 679 -466 120 -74 211 -159 211 -196 0 -64 -99 -318 -177
-453 -66 -115 -155 -244 -205 -295 l-43 -44 -105 6 c-58 3 -204 24 -325 46
-334 62 -410 71 -660 81 -257 9 -295 17 -385 79 -78 53 -141 136 -215 283 -36
69 -106 188 -156 265 -133 200 -307 487 -345 568 -18 39 -40 98 -48 133 -20
77 -13 109 43 195 22 34 53 97 70 140 17 43 42 100 56 126 l24 49 98 6 c54 3
168 7 253 8 153 3 156 3 213 -26 113 -55 206 -175 241 -313 40 -156 40 -376
-2 -660 -10 -66 -15 -128 -12 -138 3 -9 31 -34 61 -56 29 -21 71 -50 91 -65
55 -39 116 -16 89 35 -8 14 -72 69 -133 113 -17 12 -16 21 2 163 27 205 27
456 1 584 -32 154 -105 284 -200 359 l-49 39 57 18 c76 23 143 60 182 101 18
19 35 34 38 34 4 0 22 -28 41 -62z m-8762 -34 c80 -25 148 -46 149 -48 2 -1
-56 -40 -128 -85 l-130 -83 -62 6 c-64 7 -272 53 -295 65 -9 5 45 41 145 99
87 51 162 92 166 92 4 0 74 -21 155 -46z m7682 -107 c0 -12 -104 -246 -127
-287 l-30 -52 -34 48 c-18 27 -75 91 -126 143 -51 52 -92 96 -90 97 11 11 138
35 222 43 107 9 185 13 185 8z m3897 -98 c48 -41 94 -88 102 -102 14 -26 12
-30 -72 -139 -47 -62 -104 -131 -126 -152 -34 -34 -41 -37 -47 -22 -4 9 -51
51 -105 92 -55 41 -99 80 -99 87 0 26 235 321 251 315 4 -2 48 -37 96 -79z
m-4463 37 c4 -16 29 -37 75 -65 68 -40 155 -125 212 -208 41 -59 71 -122 114
-238 21 -55 49 -122 62 -149 28 -55 178 -297 313 -506 48 -74 104 -166 125
-204 43 -77 40 -86 -30 -86 -139 0 -337 -101 -466 -236 -114 -120 -191 -240
-396 -615 -238 -434 -514 -857 -898 -1374 -289 -390 -335 -463 -335 -537 0
-37 -1 -38 -38 -38 -37 0 -42 4 -138 124 -62 77 -145 200 -221 327 -182 305
-240 412 -731 1334 -93 176 -218 406 -277 510 -308 548 -465 688 -893 796
-126 32 -381 69 -474 69 l-60 0 95 94 c230 228 305 386 279 591 -13 104 -15
100 84 171 80 57 190 109 289 135 108 29 340 31 465 5 249 -53 498 -186 667
-354 162 -163 288 -382 492 -859 83 -194 122 -311 185 -551 30 -114 67 -243
83 -287 26 -76 30 -80 60 -83 27 -3 35 2 57 35 37 53 61 136 91 303 27 152
259 1102 295 1204 27 81 100 214 153 283 58 76 188 200 263 250 115 78 257
141 384 169 88 19 107 18 114 -10z m-1069 -368 c-139 -229 -260 -519 -315
-758 -34 -148 -33 -147 -70 -35 -18 55 -50 141 -70 190 l-37 91 149 169 c127
144 355 385 366 385 2 0 -9 -19 -23 -42z m5530 -441 c-20 -23 -84 -108 -144
-189 l-108 -146 -62 40 c-33 22 -61 47 -61 55 0 8 5 47 12 86 11 70 14 75 115
204 l104 132 89 -70 90 -71 -35 -41z m-8378 -388 c414 -34 665 -122 861 -303
124 -116 228 -275 437 -675 64 -123 171 -321 237 -440 66 -119 207 -378 313
-576 344 -642 438 -804 552 -944 151 -186 183 -231 199 -287 15 -52 15 -59 -1
-100 -21 -55 -73 -100 -177 -154 -43 -23 -120 -70 -171 -104 -141 -97 -172
-110 -247 -110 -55 -1 -75 5 -128 33 -107 58 -172 138 -352 436 -130 214 -229
363 -389 585 -134 184 -162 229 -256 403 -32 59 -94 151 -137 205 -44 53 -108
133 -144 176 -35 44 -80 111 -100 149 l-37 70 6 171 c7 238 32 322 122 407 46
44 57 77 31 98 -22 18 -61 3 -107 -42 -79 -79 -120 -200 -138 -410 -9 -101 -1
-1126 15 -1954 l6 -363 -44 0 c-24 0 -93 -9 -152 -20 -154 -28 -750 -79 -930
-80 l-39 0 7 263 c4 144 2 366 -3 492 -6 127 -15 428 -21 670 -9 393 -18 568
-37 716 l-5 46 53 25 c208 96 366 322 429 612 59 269 12 571 -113 729 l-30 39
115 114 c106 107 118 116 164 123 70 12 69 12 211 0z m7158 -106 c51 -162 67
-349 41 -503 -19 -118 -57 -250 -96 -336 l-30 -66 -48 60 c-62 78 -120 126
-204 168 -37 19 -68 38 -68 43 0 4 14 26 31 47 113 139 273 427 320 574 13 39
26 70 29 70 4 0 15 -26 25 -57z m-7681 -236 c38 -50 75 -137 92 -219 23 -104
14 -362 -16 -473 -27 -103 -107 -265 -163 -333 -125 -151 -274 -222 -463 -222
-291 0 -571 183 -694 452 -31 70 -74 224 -66 237 3 5 40 11 83 15 206 19 516
102 673 181 138 69 283 176 440 323 41 39 78 71 82 72 4 0 18 -15 32 -33z
m5341 -59 c-179 -199 -163 -450 43 -670 109 -117 240 -187 416 -223 l29 -6 -6
-382 c-6 -409 -15 -565 -77 -1337 -54 -685 -68 -888 -81 -1240 -6 -168 -13
-306 -14 -308 -5 -6 -216 39 -305 65 -46 13 -179 65 -295 115 -214 92 -484
188 -528 188 -14 0 -27 6 -29 13 -6 15 30 185 238 1127 251 1134 315 1433 312
1460 -4 34 -52 52 -71 26 -7 -10 -50 -192 -96 -404 -47 -213 -92 -411 -102
-441 -10 -29 -35 -76 -56 -105 -141 -196 -513 -589 -704 -741 -63 -51 -137
-119 -164 -151 -87 -104 -118 -134 -142 -134 -31 0 -86 57 -168 176 -38 54
-98 130 -133 169 -74 80 -102 130 -102 179 0 42 77 161 273 423 425 567 744
1055 990 1513 61 113 134 243 163 290 181 291 388 446 602 449 l54 1 -47 -52z
m246 -142 c60 -51 148 -95 228 -112 37 -8 155 -16 266 -20 192 -5 559 -45 578
-63 13 -13 -88 -155 -151 -212 -128 -118 -296 -205 -449 -235 -87 -16 -248
-18 -312 -3 -165 38 -382 240 -428 398 -32 110 6 238 98 334 l48 50 39 -50
c22 -27 59 -66 83 -87z m1556 -261 c34 5 49 1 80 -18 21 -14 66 -38 99 -55
120 -61 215 -190 343 -468 101 -222 133 -281 240 -453 114 -182 173 -282 169
-286 -2 -1 -30 -10 -63 -20 -76 -21 -456 -214 -595 -301 -135 -85 -198 -139
-246 -214 -22 -33 -41 -60 -44 -59 -3 0 -60 73 -127 162 -203 271 -453 601
-468 620 -8 9 -26 17 -39 17 -32 0 -47 -26 -35 -58 10 -27 108 -161 339 -462
86 -113 203 -272 260 -355 176 -256 245 -341 335 -414 131 -106 251 -151 402
-151 l96 0 -5 -79 c-5 -95 -38 -169 -147 -336 -84 -129 -114 -200 -115 -275
-1 -67 28 -121 77 -141 45 -19 151 -15 219 8 l57 20 16 -46 c48 -148 63 -328
32 -392 -25 -51 -75 -99 -127 -122 -68 -31 -234 -33 -550 -8 -146 11 -431 25
-635 31 -203 5 -446 17 -540 25 -210 19 -408 44 -416 53 -9 10 7 509 26 792 8
135 33 468 55 740 65 829 76 1009 86 1452 l7 297 51 6 c315 43 623 237 741
467 l38 74 171 -28 c106 -18 187 -27 213 -23z m-8524 -212 c15 -54 49 -143 76
-198 110 -223 352 -407 599 -455 39 -8 109 -11 186 -8 l124 5 6 -61 c15 -153
26 -395 37 -806 6 -245 13 -448 15 -452 8 -12 5 -765 -2 -805 l-7 -36 -177 7
c-220 8 -457 35 -724 81 -112 20 -245 39 -296 44 -50 5 -93 11 -96 13 -6 6
164 323 243 453 73 119 152 229 241 332 39 47 72 93 72 102 0 23 -20 41 -45
41 -46 0 -218 -214 -357 -445 -98 -161 -310 -564 -374 -709 -105 -239 -194
-522 -194 -620 0 -32 -3 -37 -17 -33 -85 28 -187 50 -330 72 -290 45 -401 78
-477 145 -81 72 -85 139 -16 305 50 123 79 229 125 455 66 327 124 525 344
1172 127 371 185 590 231 862 17 104 41 218 52 255 50 163 129 272 240 332 67
35 85 37 433 47 l61 2 27 -97z m-864 -319 c-11 -41 -33 -162 -50 -267 -16
-106 -41 -233 -54 -283 -23 -84 -74 -245 -80 -252 -1 -1 -81 4 -176 13 -96 8
-223 15 -284 16 -60 0 -118 4 -128 7 -14 6 10 37 134 170 83 89 155 162 159
162 4 0 117 115 251 255 134 140 244 255 245 255 1 0 -7 -34 -17 -76z m3377
-679 c106 -128 164 -215 227 -340 46 -92 86 -151 314 -468 143 -199 233 -337
344 -528 129 -223 224 -332 348 -398 73 -38 85 -60 108 -186 20 -108 11 -226
-29 -392 -17 -73 -35 -133 -38 -133 -6 0 -62 75 -271 365 -184 256 -290 377
-599 686 -306 306 -375 368 -482 429 l-58 32 0 141 c0 78 -3 329 -6 557 l-5
415 28 -35 c15 -19 69 -84 119 -145z m7017 -211 c16 -31 72 -123 126 -204 54
-81 109 -174 121 -206 30 -79 24 -163 -16 -231 -38 -66 -133 -159 -228 -222
-223 -150 -400 -176 -584 -86 -95 47 -226 175 -319 311 l-62 90 24 42 c45 79
88 131 144 175 141 111 660 374 761 386 3 1 18 -24 33 -55z m-10993 20 l116
-6 -1 -225 0 -226 -134 7 c-74 3 -159 6 -190 6 l-56 0 1 148 c0 81 4 184 8
229 l9 83 66 -5 c36 -3 118 -8 181 -11z m7491 -811 c-39 -172 -77 -325 -85
-341 -33 -64 -138 -183 -277 -312 -171 -161 -435 -441 -529 -562 l-68 -87 -12
29 c-7 16 -18 35 -26 41 -23 19 -16 26 28 33 61 10 107 35 123 67 47 90 -16
284 -147 456 -53 69 -55 92 -5 67 42 -22 99 -21 137 3 17 11 63 58 103 105 40
48 117 124 172 170 178 148 410 379 570 567 43 51 81 89 82 84 2 -5 -28 -149
-66 -320z m-3570 -85 c63 -41 629 -593 629 -613 0 -6 -13 -17 -29 -26 -28 -17
-30 -16 -77 18 -136 97 -488 285 -560 299 l-34 6 0 67 c0 36 -3 117 -7 179 -4
75 -3 112 4 112 6 0 39 -19 74 -42z m2232 -382 c245 -200 416 -436 417 -572 0
-92 -62 -90 -181 7 -38 30 -99 42 -126 23 -39 -25 -28 -54 62 -163 112 -135
138 -180 137 -236 -2 -74 -37 -125 -86 -125 -70 0 -176 86 -307 250 -116 144
-145 164 -179 130 -11 -11 -20 -24 -20 -29 0 -6 37 -54 82 -108 150 -181 227
-330 228 -440 0 -43 -28 -111 -51 -123 -72 -39 -184 36 -269 179 -46 77 -100
217 -100 259 0 10 -12 30 -26 45 -19 21 -31 26 -47 21 -30 -9 -28 -5 -88 -139
-68 -152 -123 -215 -186 -215 -33 0 -46 6 -63 28 -20 24 -22 35 -17 112 3 47
16 130 30 185 60 234 69 345 41 490 -24 124 -25 118 25 127 63 11 150 54 274
136 59 39 135 86 170 104 34 18 86 56 117 85 30 29 57 52 58 53 2 0 50 -38
105 -84z m-2152 -88 l122 -62 -25 -20 c-203 -171 -251 -207 -259 -194 -12 18
-11 30 5 50 9 13 11 51 8 153 -4 119 -3 135 11 135 9 0 71 -28 138 -62z m3344
-113 c-14 -61 -27 -120 -30 -132 -4 -16 -28 -33 -88 -62 -59 -28 -136 -82
-272 -191 -104 -83 -208 -168 -230 -189 -137 -127 -60 -25 171 224 135 146
463 467 471 461 1 -1 -9 -51 -22 -111z m-3045 -56 c52 -33 99 -64 103 -68 4
-4 -18 -25 -50 -46 -32 -21 -128 -88 -212 -148 -85 -60 -161 -110 -168 -111
-8 -1 -31 38 -54 88 -32 73 -37 92 -27 102 34 34 294 243 303 243 6 1 53 -26
105 -60z m-2690 -98 c340 -59 470 -72 790 -78 382 -7 875 25 1182 77 64 11
123 20 130 20 8 0 26 -26 40 -57 14 -32 65 -146 113 -253 120 -270 249 -577
435 -1035 280 -690 324 -786 870 -1905 111 -228 232 -478 268 -555 74 -161
222 -502 222 -514 0 -4 -35 -11 -77 -14 -43 -3 -163 -22 -268 -42 -104 -21
-246 -48 -315 -61 -290 -55 -545 -68 -616 -31 -49 25 -102 92 -195 248 -47 79
-115 191 -151 249 -36 58 -126 218 -200 355 -172 318 -211 382 -387 645 -204
305 -291 445 -426 685 -339 605 -333 595 -382 622 -51 27 -74 8 -122 -101 -55
-126 -92 -256 -146 -517 -68 -325 -293 -1229 -369 -1479 -58 -192 -140 -432
-212 -621 -30 -81 -82 -143 -131 -160 -49 -16 -344 -4 -553 22 -88 11 -219 19
-305 19 -199 0 -269 11 -351 55 -36 19 -77 35 -90 35 -24 0 -25 2 -19 48 10
71 40 185 80 302 58 171 110 387 165 687 16 90 38 202 50 250 26 112 126 451
192 655 l51 157 31 -26 c77 -65 176 -81 237 -40 100 67 143 290 104 537 -39
242 -77 344 -254 674 -43 82 -87 173 -96 203 -16 52 -16 56 0 87 18 33 18 34
-3 64 -41 57 -27 163 55 402 34 100 84 223 141 344 l46 99 116 -6 c67 -3 213
-22 350 -46z m3013 -139 c18 -19 16 -21 -85 -99 -57 -44 -125 -99 -153 -122
-52 -43 -65 -49 -65 -29 0 12 -35 68 -81 129 l-28 35 141 97 140 96 57 -43
c31 -24 64 -53 74 -64z m6381 -107 c18 -194 105 -322 234 -341 26 -4 56 -10
68 -14 22 -9 210 -296 394 -605 63 -104 133 -220 157 -257 l43 -68 -165 -2
c-91 -1 -177 -2 -192 -2 -25 -1 -30 5 -54 71 -34 92 -89 199 -229 443 -119
209 -310 581 -310 606 0 8 -12 51 -27 96 l-27 81 45 38 c24 20 47 35 50 33 3
-2 9 -38 13 -79z m-3819 -33 c28 -49 41 -82 45 -122 5 -51 7 -56 37 -65 21 -7
45 -29 71 -65 68 -96 358 -636 427 -798 l25 -57 -46 49 c-61 66 -310 364 -464
555 -68 84 -175 211 -237 283 l-114 129 23 18 c13 11 57 46 98 79 41 34 80 61
85 61 6 0 28 -30 50 -67z m-2386 -17 c74 -79 282 -350 357 -467 24 -38 114
-188 200 -335 86 -148 187 -316 225 -375 l68 -108 -143 0 -143 0 -200 303
c-181 273 -550 783 -626 865 -19 20 -27 35 -21 41 25 23 197 151 204 151 4 0
40 -34 79 -75z m-721 -76 c9 -17 34 -58 55 -90 20 -33 37 -61 37 -63 0 -2 -18
-15 -40 -30 l-40 -26 -9 22 c-5 13 -25 59 -44 103 l-34 80 21 17 c29 24 35 22
54 -13z m2939 -214 c53 -60 168 -200 257 -310 88 -110 255 -310 370 -445 l210
-245 -70 -6 c-38 -4 -153 -9 -256 -12 l-187 -6 -37 51 c-20 27 -63 81 -96 120
-32 39 -116 149 -186 245 -140 194 -322 426 -383 488 l-39 41 73 70 c39 39 99
94 131 122 l60 52 29 -28 c16 -15 72 -76 124 -137z m-2312 -174 c113 -152 286
-398 385 -548 163 -248 176 -272 157 -277 -12 -3 -89 -6 -172 -6 l-150 0 -65
90 c-36 50 -95 138 -131 197 -71 115 -250 393 -387 600 -46 69 -82 127 -80
128 2 2 43 35 92 74 l89 72 28 -27 c16 -15 121 -151 234 -303z m2951 212 c88
-35 99 -42 125 -83 16 -25 29 -52 29 -61 0 -20 -43 -59 -102 -93 -25 -15 -52
-33 -58 -41 -7 -8 -16 -15 -20 -15 -8 0 -150 253 -150 267 0 11 53 61 67 62 7
1 56 -16 109 -36z m-3393 -180 c104 -149 317 -477 379 -583 31 -52 86 -137
122 -187 l65 -93 -162 0 -162 0 -69 173 c-38 94 -123 302 -188 461 -65 159
-117 290 -116 291 34 23 54 35 58 35 3 0 36 -44 73 -97z m3881 -30 c-4 -49
-39 -243 -44 -243 -6 0 -141 230 -178 306 l-21 41 122 -43 c98 -34 122 -46
121 -61z m2909 -46 c35 -67 119 -218 186 -335 115 -200 191 -355 191 -388 0
-11 -17 -14 -77 -14 -43 0 -161 -5 -262 -10 -101 -6 -188 -7 -192 -3 -5 5 -26
150 -49 323 -38 296 -39 316 -22 325 9 6 38 31 63 56 44 44 79 115 79 161 0
34 17 10 83 -115z m-5339 33 c61 -149 161 -282 250 -328 41 -21 65 -26 122
-27 l71 0 -110 -180 c-60 -99 -121 -199 -135 -221 -24 -39 -29 -42 -81 -47
-30 -3 -56 -5 -57 -4 -42 57 -232 354 -361 567 l-21 35 34 3 c89 6 164 72 222
193 20 42 38 76 39 75 0 0 13 -30 27 -66z m878 3 c61 -64 248 -303 371 -475
64 -89 155 -208 202 -262 47 -55 83 -101 82 -102 -6 -6 -406 9 -415 15 -13 9
-360 427 -426 514 l-59 77 28 42 c47 72 166 228 174 228 4 0 23 -17 43 -37z
m-265 -27 l41 -11 -38 -54 c-21 -29 -42 -52 -46 -52 -5 0 -14 26 -21 58 -17
80 -16 87 5 78 9 -5 36 -13 59 -19z m2088 -10 c231 -48 545 -85 862 -102 l131
-6 -73 -102 c-78 -108 -164 -245 -265 -421 -105 -183 -230 -379 -520 -820
-339 -514 -366 -559 -439 -728 -32 -74 -76 -161 -98 -193 -55 -80 -219 -236
-334 -316 -157 -109 -178 -115 -264 -74 -101 48 -183 144 -200 239 -5 27 -2
47 15 81 17 37 33 51 88 81 182 100 253 206 402 600 39 105 78 206 85 225 146
366 337 1034 400 1392 34 193 30 182 63 175 15 -4 81 -17 147 -31z m-417 -211
c74 -128 85 -161 55 -172 -17 -6 -121 -73 -170 -108 -21 -16 -22 -15 -92 131
-39 81 -70 148 -69 149 110 63 148 87 168 104 14 11 27 20 30 20 3 0 38 -56
78 -124z m1927 85 c110 -5 295 -17 412 -26 168 -13 229 -14 294 -5 45 6 85 9
88 6 7 -8 57 -398 81 -640 50 -506 72 -699 100 -874 16 -102 34 -242 40 -311
14 -168 36 -284 65 -339 34 -68 114 -138 251 -220 144 -85 160 -99 173 -148
40 -141 -23 -280 -158 -352 -147 -78 -370 -81 -460 -6 -50 42 -115 187 -191
425 -107 333 -176 502 -345 835 -83 165 -186 386 -229 490 -43 105 -117 276
-163 380 -47 105 -114 264 -150 355 -36 91 -83 206 -104 257 -22 51 -46 112
-53 137 l-14 46 81 0 c45 0 172 -5 282 -10z m-435 -66 c0 -9 19 -60 42 -113
23 -53 74 -181 113 -286 l72 -190 -81 -3 c-45 -2 -185 0 -313 3 l-231 7 71
122 c124 213 299 476 317 476 6 0 10 -7 10 -16z m-3105 -179 c43 -55 136 -169
208 -253 71 -84 127 -155 125 -157 -2 -2 -94 -1 -205 2 l-201 6 -86 120 -87
119 27 47 c56 95 136 222 139 219 1 -2 38 -48 80 -103z m-221 -327 l48 -68
-106 0 c-58 0 -106 2 -106 5 0 2 21 39 47 80 53 86 44 87 117 -17z m5750 -185
c4 -38 9 -89 13 -116 l6 -47 -174 2 -173 3 -7 40 c-4 22 -9 70 -11 107 l-4 67
116 4 c63 1 140 4 171 5 l56 2 7 -67z m-514 50 c1 -5 7 -53 15 -108 7 -55 10
-103 7 -106 -4 -4 -85 -10 -179 -13 l-173 -7 -1 48 c0 26 -2 78 -4 115 l-3 67
96 4 c213 7 242 7 242 0z m-5899 -68 c4 -16 9 -60 12 -97 l5 -68 -239 0 -239
0 0 28 c0 15 -3 57 -6 94 l-7 68 189 3 c298 5 277 7 285 -28z m263 -27 c21
-27 46 -48 55 -48 21 0 48 24 81 73 l25 37 103 0 102 0 0 -54 c0 -29 3 -74 6
-100 l7 -46 -225 0 -225 0 4 78 c5 93 11 128 22 116 4 -5 25 -30 45 -56z m906
45 c4 -4 10 -47 13 -95 l5 -88 -198 0 -199 0 -7 45 c-3 25 -3 71 1 102 l7 56
186 -6 c102 -3 188 -10 192 -14z m2643 -8 c-2 -11 -6 -64 -9 -117 l-7 -98 -36
0 c-20 0 -56 5 -81 11 -25 6 -96 14 -157 17 l-113 7 29 45 c16 25 44 70 63
100 l35 55 139 0 c133 0 139 -1 137 -20z m-4442 -71 c3 -45 9 -86 13 -93 5 -8
-29 -11 -126 -11 l-134 0 -37 88 c-20 48 -37 91 -37 95 0 4 71 6 158 5 l157
-3 6 -81z m4945 -38 c30 -65 54 -120 54 -122 0 -5 -256 5 -325 12 l-50 5 3
109 3 109 97 4 c180 6 156 19 218 -117z m-2610 100 c1 0 4 -38 6 -83 l3 -83
-182 0 -183 0 0 91 0 91 178 -7 c97 -4 178 -8 178 -9z m524 -45 c0 -32 3 -73
6 -90 l7 -31 -174 0 -174 0 0 82 0 83 80 6 c44 3 119 6 168 7 l87 2 0 -59z
m-5025 -138 c41 -69 75 -134 75 -144 0 -14 -330 -372 -337 -365 -4 3 67 330
88 404 28 103 78 232 89 232 5 0 43 -57 85 -127z m9005 -140 c0 -49 7 -182 15
-298 16 -226 19 -494 8 -722 l-6 -142 -89 -73 c-49 -40 -104 -82 -122 -92
l-33 -20 -57 38 -57 38 7 102 c10 130 10 860 0 1078 l-8 167 49 4 c26 2 103 4
171 5 l122 2 0 -87z m-407 -238 c7 -286 2 -974 -8 -983 -6 -7 -94 46 -144 86
-27 22 -53 56 -68 88 -24 53 -27 68 -68 409 -14 110 -36 281 -49 380 -14 99
-28 213 -32 252 l-7 73 169 3 c93 1 176 2 184 2 13 0 16 -45 23 -310z m-6339
239 c20 -36 36 -67 34 -68 -4 -2 -141 -61 -191 -81 l-37 -15 -44 94 c-70 151
-78 136 71 136 l129 0 38 -66z m576 57 c0 -4 -44 -59 -97 -120 -54 -62 -118
-136 -143 -166 -25 -29 -48 -54 -52 -54 -7 -1 -208 331 -208 343 0 3 113 6
250 6 138 0 250 -4 250 -9z m347 -1 l94 0 -24 -22 c-61 -57 -449 -491 -514
-575 -14 -18 -28 -31 -32 -28 -4 2 -33 50 -65 105 l-57 101 33 43 c18 24 80
95 136 157 57 63 123 140 145 172 l42 58 74 -5 c41 -3 116 -6 168 -6z m1181
-8 c-7 -10 -294 -305 -637 -654 l-625 -636 -84 136 c-46 76 -86 143 -89 150
-3 7 112 131 264 285 148 149 367 373 487 497 l219 225 51 6 c28 3 136 7 239
8 181 1 188 0 175 -17z m367 -105 c-71 -67 -170 -162 -220 -212 -180 -179
-814 -842 -965 -1009 -85 -94 -178 -195 -206 -225 l-51 -54 -73 123 -73 122
120 121 c683 695 1155 1180 1182 1215 l33 42 191 -1 192 0 -130 -122z m367
117 c34 -6 36 -8 26 -27 -6 -11 -54 -66 -107 -122 -53 -56 -188 -211 -300
-344 -353 -420 -863 -994 -1143 -1285 l-103 -109 -68 102 -68 102 123 132
c580 622 988 1050 1146 1202 75 72 186 180 246 241 110 110 111 111 161 112
28 1 67 -1 87 -4z m-1337 -36 c-15 -18 -219 -229 -454 -469 l-426 -435 -26 40
c-14 23 -44 75 -66 116 l-41 75 106 126 c178 211 428 478 505 540 l49 39 190
0 190 0 -27 -32z m2525 25 c0 -3 -25 -49 -56 -102 -31 -53 -81 -138 -111 -189
l-55 -94 -45 67 -45 67 86 129 86 129 70 0 c39 0 70 -3 70 -7z m263 -19 c64
-4 117 -10 117 -14 0 -5 -20 -57 -46 -117 -34 -82 -212 -539 -264 -677 -5 -16
-13 -8 -45 45 -21 35 -74 121 -117 191 -43 69 -78 130 -78 135 0 6 23 48 51
94 27 46 85 146 127 222 75 136 77 138 107 133 16 -3 83 -8 148 -12z m454 -18
c4 -3 -45 -183 -135 -501 -50 -176 -116 -414 -147 -528 -30 -115 -61 -223 -69
-240 l-12 -32 -119 199 c-65 110 -118 204 -118 210 0 21 230 614 343 883 8 20
13 21 132 16 68 -3 124 -6 125 -7z m255 -118 l46 -113 -54 -260 c-65 -309
-179 -904 -225 -1170 -18 -104 -35 -193 -38 -197 -3 -4 -70 100 -149 231
l-143 238 44 144 c25 79 68 234 97 344 28 110 94 348 146 528 52 181 94 337
94 348 0 17 7 19 68 19 l69 0 45 -112z m-7088 -52 c26 -48 36 -78 31 -87 -42
-69 -626 -842 -632 -836 -2 3 26 126 63 274 l68 268 85 95 c105 118 334 359
341 360 3 0 23 -33 44 -74z m2300 -200 l76 -130 -118 -64 c-64 -35 -122 -66
-128 -69 -11 -4 -164 296 -164 321 0 6 33 20 73 30 39 10 95 29 122 41 34 15
52 18 57 11 3 -6 40 -69 82 -140z m2516 5 c0 -30 -133 -361 -186 -464 l-20
-38 -78 85 -77 86 161 190 c156 185 163 191 181 174 10 -9 19 -24 19 -33z
m2540 -391 c0 -33 -9 -105 -20 -162 -24 -126 -145 -793 -205 -1132 -25 -137
-46 -251 -49 -253 -2 -3 -49 71 -105 164 l-100 168 50 280 c77 437 235 1250
255 1318 4 12 34 -40 90 -153 76 -156 84 -177 84 -230z m-9505 293 c-17 -54
-61 -201 -96 -327 l-64 -228 -145 -137 c-79 -75 -213 -203 -296 -284 l-152
-149 -120 96 -120 95 512 514 c281 283 512 515 512 516 1 0 -13 -43 -31 -96z
m8084 -125 c86 -137 93 -153 77 -162 -10 -6 -75 -48 -145 -93 -69 -46 -128
-83 -131 -83 -3 0 -36 57 -73 128 l-68 127 118 116 c65 63 120 116 123 117 3
1 48 -66 99 -150z m-5917 55 c20 -16 72 -71 116 -124 l80 -97 -102 -129 c-56
-71 -111 -142 -122 -157 l-20 -27 -117 115 c-64 64 -117 123 -117 131 0 20
221 314 236 314 6 1 27 -11 46 -26z m2503 -215 c32 -57 69 -121 82 -144 l23
-41 -77 -47 c-43 -26 -100 -63 -127 -82 -80 -56 -68 -67 -182 173 l-52 111 61
38 c97 59 168 94 191 94 17 0 35 -23 81 -102z m3027 -31 c43 -84 280 -504 400
-707 28 -47 42 -78 32 -69 -213 176 -629 577 -629 605 1 20 134 264 145 264 3
0 26 -42 52 -93z m-5037 -225 c94 -141 198 -306 233 -367 l63 -110 -73 -7
c-40 -4 -212 -11 -383 -17 -170 -6 -351 -15 -402 -21 -51 -6 -117 -10 -148 -8
l-55 3 172 235 c95 130 208 281 252 335 43 55 97 126 119 158 23 31 43 57 46
57 4 0 83 -116 176 -258z m3845 170 c0 -5 34 -45 75 -89 69 -75 73 -82 57 -96
-25 -22 -105 -60 -212 -101 -52 -20 -111 -48 -131 -61 l-37 -24 -23 25 c-28
30 -39 12 126 203 122 140 145 163 145 143z m3165 -201 c23 -58 63 -170 90
-249 l47 -143 -12 -152 c-24 -300 -37 -408 -51 -421 -11 -10 -357 -234 -415
-269 -13 -8 -14 -13 116 708 55 303 104 582 110 620 17 114 19 116 47 60 14
-27 44 -96 68 -154z m-1272 -77 c54 -91 97 -167 95 -169 -2 -1 -14 -8 -28 -15
-14 -7 -80 -49 -148 -92 -68 -44 -125 -78 -126 -76 -1 1 -42 72 -90 156 -84
145 -88 154 -70 167 11 8 69 51 131 95 62 44 115 85 118 90 3 6 9 10 13 10 4
0 51 -75 105 -166z m-6533 42 c53 -51 111 -101 129 -110 l32 -17 -31 -42 c-17
-23 -63 -86 -102 -139 -40 -54 -75 -98 -79 -98 -4 0 -18 19 -32 43 -14 23 -63
85 -109 137 l-83 94 85 113 c47 62 87 113 89 113 2 0 48 -42 101 -94z m5940
-302 c190 -171 284 -253 375 -325 76 -61 58 -33 383 -589 62 -107 136 -228
163 -268 27 -40 49 -76 49 -80 0 -4 -34 -29 -75 -56 l-75 -48 -42 38 c-51 45
-88 86 -189 214 -42 52 -129 154 -194 225 -65 72 -158 180 -207 240 -49 61
-218 246 -376 412 -157 166 -289 308 -293 316 -5 8 6 30 27 57 20 25 51 78 71
118 l35 74 97 -94 c53 -52 166 -157 251 -234z m-2819 86 c83 -134 113 -192
105 -199 -6 -5 -38 -22 -72 -39 -33 -17 -82 -48 -110 -70 -27 -21 -68 -51 -92
-66 l-42 -26 -76 157 c-133 276 -137 285 -122 294 7 5 19 9 27 9 20 0 171 74
211 103 19 15 40 26 45 26 6 1 62 -84 126 -189z m-5191 70 c-5 -25 -21 -108
-35 -185 -37 -197 -115 -515 -127 -515 -5 0 -39 26 -76 59 -37 32 -106 93
-154 136 -49 42 -88 80 -88 83 0 15 479 476 487 468 1 0 -2 -21 -7 -46z m6625
-83 c0 -55 5 -83 23 -119 45 -90 160 -195 235 -213 15 -4 27 -11 27 -15 0 -21
-443 -247 -530 -270 -67 -18 -154 -16 -184 3 -101 67 -2 334 198 533 71 70
190 153 221 154 6 0 10 -31 10 -73z m-352 -74 c-97 -113 -159 -217 -188 -316
l-17 -58 -50 51 -50 51 33 37 c18 20 91 101 163 180 114 125 132 141 144 128
13 -13 9 -22 -35 -73z m4942 -9 c20 -31 59 -85 86 -121 27 -35 49 -68 49 -74
0 -5 -15 -22 -32 -38 l-33 -29 -70 67 c-38 36 -92 86 -119 109 -27 23 -46 46
-42 50 19 19 112 91 118 91 4 1 24 -24 43 -55z m-3683 -31 c35 -37 110 -117
168 -178 231 -243 380 -406 451 -496 42 -52 131 -155 199 -229 68 -74 157
-178 198 -230 42 -52 107 -127 145 -166 l69 -71 -139 -87 -138 -87 -104 108
c-103 106 -642 748 -955 1137 l-160 198 39 31 c22 18 65 55 95 84 30 29 58 53
62 53 3 0 35 -30 70 -67z m-5785 -50 c32 -36 80 -90 106 -119 32 -35 46 -57
41 -66 -14 -24 -177 -239 -178 -236 -1 2 -33 36 -70 75 l-69 72 49 171 c26 93
51 170 55 170 4 0 34 -30 66 -67z m7134 -110 l88 -147 -70 -38 c-38 -21 -95
-55 -127 -76 -31 -22 -71 -46 -89 -55 l-32 -17 -80 140 c-45 76 -84 145 -86
152 -4 9 41 40 127 90 73 42 142 84 153 92 11 8 22 13 24 10 2 -2 44 -70 92
-151z m2301 -101 c208 -219 290 -379 264 -517 -17 -91 -117 -143 -251 -132
-253 22 -563 155 -755 325 l-45 40 95 0 c205 2 376 78 447 199 34 59 63 154
63 210 l0 45 49 -41 c27 -22 86 -81 133 -129z m-7931 26 c23 -46 61 -117 84
-159 l43 -77 -122 -6 c-66 -4 -227 -14 -356 -22 -129 -8 -351 -19 -494 -24
-142 -5 -331 -18 -420 -29 -88 -11 -178 -22 -198 -23 -36 -4 -36 -4 -20 18 9
12 71 95 137 183 70 94 128 163 140 165 48 10 344 27 624 36 167 6 307 12 309
15 3 3 56 5 118 5 l112 0 43 -82z m4074 -61 c103 -133 738 -900 883 -1067 36
-41 97 -107 136 -147 38 -40 68 -75 65 -78 -3 -2 -72 -43 -154 -90 -119 -69
-151 -84 -160 -73 -29 32 -230 277 -455 553 -278 342 -448 545 -608 725 -62
69 -112 127 -111 130 0 8 273 188 284 189 6 0 59 -64 120 -142z m-1826 -61
l90 -140 -171 -178 c-94 -98 -174 -178 -177 -178 -4 0 -48 95 -97 212 l-91
212 51 31 c28 18 105 66 171 108 66 42 123 75 127 74 4 -1 47 -65 97 -141z
m4679 -81 c-2 -1 -31 -21 -65 -44 l-63 -42 0 28 c0 15 5 85 12 155 l12 127 53
-110 c30 -61 53 -112 51 -114z m-4231 -24 l92 -99 -73 -11 c-96 -14 -165 -40
-265 -100 l-80 -49 -26 34 -26 34 137 145 c76 80 140 145 143 145 4 0 47 -45
98 -99z m1041 -78 c187 -211 278 -320 586 -698 143 -176 304 -373 358 -437 54
-64 98 -120 98 -125 0 -4 -46 -36 -103 -71 -56 -34 -116 -71 -133 -82 l-31
-20 -119 168 c-277 389 -656 881 -903 1171 -63 74 -110 136 -105 138 5 2 54
28 109 58 55 30 101 54 102 55 0 0 64 -71 141 -157z m-7204 -48 l28 -20 -31
-100 c-16 -55 -36 -130 -42 -167 -7 -38 -15 -68 -19 -68 -3 0 -22 16 -41 36
-18 20 -89 79 -156 130 -67 52 -125 99 -128 104 -3 5 27 35 67 68 40 33 93 81
117 106 l44 45 67 -57 c37 -31 79 -66 94 -77z m9358 -2 c42 -71 86 -145 98
-166 l22 -37 -107 -50 c-58 -28 -131 -66 -162 -86 -46 -29 -58 -33 -68 -22
-17 19 -175 293 -175 304 0 15 95 75 204 130 55 28 103 52 106 53 3 0 39 -56
82 -126z m-2466 -85 c319 -377 1023 -1307 1012 -1338 -5 -16 -251 -171 -258
-163 -4 4 -65 89 -135 188 -172 240 -468 638 -641 860 -77 99 -166 221 -198
270 -32 50 -92 124 -133 166 l-75 77 73 12 c41 7 108 25 149 40 41 16 77 29
80 29 3 1 60 -63 126 -141z m-5082 60 c4 -3 -33 -59 -84 -123 -51 -64 -94
-114 -96 -112 -2 2 19 72 47 156 l51 153 37 -34 c20 -18 40 -36 45 -40z m1891
-40 c33 -57 83 -139 112 -183 l52 -80 -197 -7 c-108 -5 -386 -15 -617 -24
-231 -8 -499 -22 -595 -30 -131 -10 -253 -12 -487 -7 -172 3 -313 8 -313 9 0
11 245 310 259 316 9 4 39 7 66 8 28 0 115 10 195 20 81 11 268 25 425 31 154
6 404 19 555 28 151 10 322 19 380 20 l105 1 60 -102z m6609 20 c3 -13 27 -57
53 -99 26 -42 61 -104 78 -138 l29 -63 -22 -17 c-13 -9 -95 -63 -183 -120
-126 -81 -163 -101 -170 -90 -5 8 -9 17 -9 20 0 9 -76 142 -123 217 -22 34
-37 66 -33 70 10 10 360 240 367 241 4 1 9 -9 13 -21z m-3929 -57 c33 -16 76
-46 96 -67 168 -182 250 -367 251 -574 2 -169 -48 -276 -157 -336 -106 -59
-130 -60 -710 -38 -146 5 -179 3 -368 -25 -115 -17 -226 -31 -246 -31 l-38 0
-32 113 c-38 135 -76 220 -122 272 -97 110 -285 115 -378 9 -30 -35 -46 -67
-70 -147 -44 -144 -68 -186 -126 -222 -46 -29 -54 -30 -183 -34 -74 -1 -138 1
-142 5 -5 5 -1 150 8 322 l16 312 105 0 c126 0 216 13 559 80 294 57 433 80
480 80 25 0 42 -9 68 -36 33 -36 36 -37 89 -31 74 8 187 69 328 178 199 156
293 198 432 199 68 0 89 -4 140 -29z m4528 -168 c29 -14 96 -43 150 -63 l99
-37 -62 -38 -61 -37 -26 23 c-41 39 -166 179 -159 179 4 0 30 -12 59 -27z
m-1126 -150 c15 -27 58 -95 95 -152 37 -58 68 -108 68 -111 0 -5 -289 -197
-337 -224 -7 -4 -18 18 -32 62 -11 37 -45 112 -76 167 -40 72 -52 101 -43 107
7 4 76 50 153 102 77 52 141 95 142 95 1 1 15 -20 30 -46z m-5843 -16 c14 -18
46 -45 71 -62 26 -16 53 -41 61 -56 17 -34 18 -88 2 -94 -21 -7 -820 -74
-1248 -105 -253 -18 -706 -39 -985 -46 l-270 -7 -18 121 c-9 66 -19 127 -22
134 -2 7 9 28 24 46 l29 34 143 1 c79 1 252 0 384 -2 160 -2 310 2 450 12 116
9 395 21 620 28 226 6 464 14 530 18 213 14 201 15 229 -22z m7561 -108 c80
-62 148 -116 151 -121 7 -10 -100 -124 -148 -159 l-27 -20 -151 137 c-82 75
-150 141 -150 145 0 4 10 11 23 15 28 8 94 54 127 88 14 13 26 25 28 25 1 1
68 -49 147 -110z m-4558 -214 c224 -293 628 -849 635 -872 2 -6 -52 -47 -119
-91 l-121 -80 -20 21 c-67 75 -350 474 -481 679 l-62 97 22 88 c23 92 30 225
15 298 -4 22 -6 38 -3 35 2 -3 62 -81 134 -175z m2435 -124 c38 -62 70 -117
71 -121 1 -5 -61 -49 -137 -98 l-140 -90 -30 52 c-32 53 -112 228 -118 258 -2
13 33 41 127 102 l130 85 14 -37 c8 -20 46 -88 83 -151z m-5306 12 c-4 -76 -9
-161 -12 -189 l-6 -52 -141 -6 c-131 -7 -393 -24 -1157 -76 -445 -30 -680 -40
-925 -40 l-222 0 -7 108 c-4 59 -11 136 -16 172 -5 35 -8 65 -7 67 1 1 160 7
352 13 525 16 1066 51 1720 109 171 16 336 29 369 30 l58 1 -6 -137z m840 69
c7 -4 -39 -59 -123 -147 -74 -77 -133 -131 -130 -120 44 165 68 213 126 252
34 23 103 31 127 15z m128 -130 c23 -47 56 -148 56 -173 0 -8 -14 4 -32 26
-17 22 -54 62 -81 88 l-49 49 33 34 c18 18 36 31 41 28 5 -3 19 -26 32 -52z
m-4336 -6 c38 -20 86 -74 112 -124 12 -24 20 -46 18 -48 -3 -2 -44 39 -92 91
-85 93 -93 110 -38 81z m8147 -83 c3 -16 35 -80 70 -143 35 -63 66 -122 69
-130 4 -11 -41 -44 -156 -117 l-161 -102 -53 107 c-29 59 -65 127 -79 152 -42
74 -41 75 132 177 87 50 160 90 164 87 4 -2 10 -16 14 -31z m-8206 -162 c19
-25 54 -67 79 -93 l46 -48 -24 -32 c-13 -18 -52 -70 -88 -116 l-64 -83 -92 88
c-50 49 -112 107 -138 130 -73 62 -69 79 52 222 l84 100 56 -61 c30 -34 70
-82 89 -107z m4241 19 l73 -90 -54 -58 c-30 -31 -98 -103 -151 -160 -83 -89
-97 -101 -103 -83 -3 11 -41 52 -83 91 l-76 70 69 73 c177 184 240 247 246
247 3 0 39 -41 79 -90z m1992 -138 c80 -119 201 -291 268 -380 67 -90 120
-165 118 -167 -9 -9 -234 -145 -240 -145 -3 0 -23 28 -44 63 -57 93 -164 253
-288 427 -124 172 -201 289 -195 294 2 2 26 10 53 19 59 20 124 57 150 86 11
12 22 21 26 21 3 0 72 -98 152 -218z m-2819 79 c4 -17 15 -35 26 -41 32 -16
317 -14 374 3 l48 15 -90 -96 c-117 -127 -116 -127 -186 -150 -163 -55 -509
-73 -1385 -72 -333 1 -699 -4 -815 -10 -115 -6 -466 -13 -779 -17 -486 -5
-568 -4 -561 8 8 13 159 213 176 233 4 4 17 -2 29 -14 24 -24 35 -24 277 -4
62 6 84 3 160 -21 115 -37 182 -38 217 -6 14 13 28 36 31 51 l6 27 322 6 c340
7 546 18 1242 67 558 40 679 47 801 49 l102 1 5 -29z m1905 13 l90 -7 32 -45
c17 -24 28 -48 23 -52 -4 -4 -57 -40 -118 -80 -60 -40 -125 -86 -143 -102 -25
-22 -37 -26 -47 -18 -7 6 -45 60 -86 121 l-73 110 30 25 c64 54 103 61 292 48z
m506 -109 c33 -49 123 -180 201 -290 125 -176 176 -252 263 -396 l22 -36 -86
-52 c-47 -29 -87 -51 -89 -49 -1 1 -27 44 -57 93 -87 143 -179 283 -353 535
-89 129 -169 246 -178 260 l-16 25 117 0 117 0 59 -90z m1876 25 c0 -11 34
-85 75 -164 41 -79 75 -150 75 -158 0 -12 -267 -189 -295 -196 -6 -2 -17 16
-24 38 -7 23 -39 96 -72 162 -32 66 -59 131 -59 143 0 13 9 26 23 33 12 6 76
45 142 86 66 41 123 75 128 75 4 1 7 -8 7 -19z m-7997 -276 c77 -76 124 -130
120 -137 -4 -7 -45 -59 -92 -117 -47 -58 -86 -107 -87 -109 -2 -2 -29 17 -61
41 -32 25 -85 63 -118 86 -33 23 -86 61 -117 86 -32 24 -63 46 -70 48 -14 5 8
33 123 156 68 72 68 72 121 72 l53 0 128 -126z m5959 -16 l98 -142 -93 -49
c-50 -28 -124 -69 -164 -92 -66 -39 -73 -41 -86 -26 -28 33 -157 220 -157 228
0 11 283 221 300 222 3 1 49 -63 102 -141z m-6434 18 l-92 -103 -109 91 c-101
85 -107 91 -80 94 99 9 248 19 306 21 l68 1 -93 -104z m4636 -83 l39 -43 -46
-52 c-25 -29 -90 -100 -145 -158 l-98 -104 -26 20 c-14 11 -55 47 -91 80 l-66
60 151 163 150 162 46 -43 c26 -24 64 -62 86 -85z m3369 30 c9 -27 41 -106 72
-177 31 -70 55 -132 53 -138 -2 -5 -82 -60 -178 -123 l-174 -114 -17 52 c-9
29 -42 107 -73 175 -31 68 -56 128 -56 133 0 9 336 237 352 238 3 1 13 -20 21
-46z m-3693 30 c0 -5 -71 -82 -158 -172 l-157 -163 -65 -15 c-51 -12 -200 -17
-705 -23 -644 -9 -975 -19 -1490 -45 -281 -15 -798 -18 -1103 -6 l-163 6 136
168 136 167 177 1 c452 2 893 10 1297 24 268 9 690 14 1080 13 639 -1 800 5
940 36 79 18 75 17 75 9z"/>
<path d="M3352 12423 c-5 -10 -12 -40 -16 -67 -14 -109 -108 -216 -251 -287
-104 -51 -179 -69 -294 -73 -98 -4 -111 -10 -111 -53 0 -22 9 -27 71 -38 49
-9 184 11 268 40 239 81 397 238 409 406 3 38 0 64 -8 74 -17 20 -57 19 -68
-2z"/>
<path d="M2017 11707 c-10 -7 -33 -47 -51 -90 -121 -278 -426 -432 -783 -396
-113 12 -133 6 -133 -36 0 -35 19 -43 124 -56 195 -23 433 27 591 123 120 73
221 184 276 303 39 87 46 132 23 150 -24 18 -26 18 -47 2z"/>
<path d="M2879 11039 c-38 -71 -85 -114 -178 -163 -84 -44 -166 -66 -248 -66
-59 0 -64 -2 -75 -26 -39 -84 164 -85 344 -1 93 43 169 104 213 170 57 86 57
147 -1 147 -18 0 -30 -13 -55 -61z"/>
<path d="M8432 11948 c-30 -30 -13 -56 81 -131 197 -158 354 -239 472 -241 57
-1 60 0 63 25 4 34 -14 48 -90 65 -118 28 -239 99 -424 250 -56 45 -81 53
-102 32z"/>
<path d="M9566 11361 c-17 -18 -17 -21 -1 -55 10 -20 58 -79 107 -131 202
-213 444 -352 599 -343 l54 3 0 35 c0 38 3 36 -116 60 -161 32 -363 179 -560
408 -39 47 -57 51 -83 23z"/>
<path d="M8916 10899 c-18 -27 -12 -45 33 -92 50 -53 120 -96 192 -118 105
-33 299 -22 350 20 17 14 20 24 15 46 l-7 28 -62 -9 c-34 -5 -105 -9 -157 -9
-82 0 -103 4 -151 26 -31 15 -82 50 -113 78 -62 56 -78 61 -100 30z"/>
<path d="M11612 16783 c-13 -26 -7 -38 78 -143 43 -52 130 -167 194 -255 65
-88 208 -278 319 -423 l202 -263 3 60 3 60 -134 173 c-73 95 -214 281 -312
413 -285 384 -327 429 -353 378z"/>
<path d="M12126 16745 c-3 -8 -3 -23 1 -32 11 -31 108 -164 195 -268 l83 -100
3 53 c2 39 -2 59 -15 76 -89 113 -173 230 -173 240 0 37 -81 63 -94 31z"/>
<path d="M12325 1517 c-39 -34 -152 -130 -250 -213 -194 -164 -437 -380 -693
-619 -166 -154 -185 -182 -143 -205 23 -12 30 -7 358 296 256 237 440 399 650
573 l153 126 0 53 c0 28 -1 52 -2 51 -2 0 -35 -28 -73 -62z"/>
<path d="M12135 829 c-143 -140 -285 -274 -315 -299 -69 -56 -78 -69 -72 -93
17 -66 87 -13 440 335 l213 210 -3 51 -3 50 -260 -254z"/>
</g>
</svg>
